<?xml version="1.0" encoding="utf-8"?>
<!-- Generator: Adobe Illustrator 17.0.0, SVG Export Plug-In . SVG Version: 6.00 Build 0)  -->
<!DOCTYPE svg PUBLIC "-//W3C//DTD SVG 1.1//EN" "http://www.w3.org/Graphics/SVG/1.1/DTD/svg11.dtd">
<svg version="1.1" id="Layer_1" xmlns="http://www.w3.org/2000/svg" xmlns:xlink="http://www.w3.org/1999/xlink" x="0px" y="0px"
	 width="1827.445px" height="1331.53px" viewBox="0 0 1827.445 1331.53" enable-background="new 0 0 1827.445 1331.53"
	 xml:space="preserve">
<g opacity="0.5">
	<g>
		<g>
			<path fill="none" stroke="#6496C8" stroke-miterlimit="10" d="M674.88-0.671c-27.053,92.816-180.672,48.122-207.725,140.938
				c-27.054,92.821,126.565,137.514,99.511,230.335S386.909,418.337,359.119,510.94c-39.72,132.355,112.675,178.467,72.22,310.599
				s-193.457,85.372-233.913,217.504s112.546,178.892,72.091,311.024"/>
		</g>
		<g>
			<path fill="none" stroke="#6496C8" stroke-miterlimit="10" d="M683.475-1.2C657.054,91.829,503.131,48.194,476.71,141.223
				c-26.422,93.033,127.502,136.669,101.08,229.703s-178.514,48.612-206.41,141.216c-39.875,132.369,111.607,178.836,70.263,310.755
				s-194.034,84.152-235.377,216.071s111.346,179.686,70.003,311.604"/>
		</g>
		<g>
			<path fill="none" stroke="#6496C8" stroke-miterlimit="10" d="M692.066-1.73c-25.788,93.243-180.009,50.668-205.797,143.91
				C460.48,235.428,614.7,278.003,588.911,371.25S411.643,420.734,383.64,513.342c-40.032,132.389,110.536,179.205,68.304,310.909
				c-42.232,131.705-194.604,82.936-236.836,214.641s110.14,180.475,67.908,312.18"/>
		</g>
		<g>
			<path fill="none" stroke="#6496C8" stroke-miterlimit="10" d="M700.654-2.26c-25.156,93.456-179.666,51.942-204.822,145.399
				C470.675,236.6,625.185,278.114,600.028,371.575s-176.016,50.353-204.127,142.97c-40.19,132.415,109.461,179.571,66.341,311.062
				s-195.168,81.722-238.288,213.213s108.927,181.262,65.807,312.754"/>
		</g>
		<g>
			<path fill="none" stroke="#6496C8" stroke-miterlimit="10" d="M709.238-2.792c-24.524,93.671-179.316,53.219-203.84,146.888
				c-24.525,93.675,130.268,134.127,105.743,227.801c-24.525,93.675-174.758,51.218-202.979,143.848
				c-40.35,132.445,108.383,179.935,64.375,311.213c-44.008,131.279-195.725,80.511-239.734,211.788s107.708,182.045,63.7,313.324"
				/>
		</g>
		<g>
			<path fill="none" stroke="#6496C8" stroke-miterlimit="10" d="M717.818-3.322C693.927,90.561,538.86,51.172,514.969,145.056
				c-23.892,93.888,131.174,133.277,107.282,227.165s-173.496,52.081-201.827,144.727
				c-40.512,132.483,107.302,180.298,62.406,311.363c-44.897,131.065-196.277,79.303-241.173,210.368
				s106.483,182.827,61.586,313.891"/>
		</g>
		<g>
			<path fill="none" stroke="#6496C8" stroke-miterlimit="10" d="M726.394-3.855c-23.259,94.097-178.592,55.771-201.851,149.869
				c-23.26,94.101,132.073,132.427,108.814,226.528c-23.26,94.101-172.228,52.938-200.671,145.608
				c-40.676,132.524,106.218,180.66,60.433,311.511s-196.822,78.099-242.607,208.95s105.252,183.603,59.467,314.454"/>
		</g>
		<g>
			<path fill="none" stroke="#6496C8" stroke-miterlimit="10" d="M734.966-4.386c-22.627,94.31-178.219,57.049-200.846,151.36
				c-22.628,94.315,132.965,131.576,110.337,225.892s-170.955,53.792-199.512,146.487
				c-40.841,132.572,105.131,181.019,58.458,311.657s-197.361,76.899-244.034,207.536s104.015,184.376,57.342,315.015"/>
		</g>
		<g>
			<path fill="none" stroke="#6496C8" stroke-miterlimit="10" d="M743.535-4.919c-21.994,94.524-177.839,58.328-199.833,152.852
				c-21.995,94.528,133.849,130.725,111.854,225.253s-169.677,54.641-198.348,147.367c-41.009,132.626,104.041,181.376,56.48,311.8
				s-197.895,75.702-245.456,206.126s102.772,185.147,55.21,315.57"/>
		</g>
		<g>
			<path fill="none" stroke="#6496C8" stroke-miterlimit="10" d="M752.099-5.451c-21.362,94.738-177.45,59.606-198.812,154.344
				c-21.363,94.742,134.725,129.874,113.362,224.616s-168.394,55.488-197.181,148.247
				C428.29,654.44,572.416,703.487,523.966,833.697c-48.45,130.211-198.422,74.509-246.872,204.72s101.523,185.912,53.073,316.123"
				/>
		</g>
		<g>
			<path fill="none" stroke="#6496C8" stroke-miterlimit="10" d="M760.66-5.984c-20.73,94.952-177.054,60.885-197.784,155.835
				C542.146,244.807,698.47,278.874,677.74,373.83s-167.105,56.33-196.01,149.128c-41.349,132.749,101.852,182.085,52.514,312.081
				c-49.338,129.997-198.944,73.32-248.282,203.317s100.268,186.674,50.93,316.671"/>
		</g>
		<g>
			<path fill="none" stroke="#6496C8" stroke-miterlimit="10" d="M769.217-6.516C749.12,88.648,592.566,55.647,572.469,150.812
				c-20.098,95.169,136.455,128.17,116.357,223.34S523.015,431.318,493.991,524.16c-41.522,132.819,100.753,182.436,50.526,312.219
				c-50.226,129.783-199.46,72.135-249.686,201.918s99.007,187.432,48.781,317.216"/>
		</g>
		<g>
			<path fill="none" stroke="#6496C8" stroke-miterlimit="10" d="M777.771-7.049c-19.465,95.378-176.239,63.441-195.704,158.82
				C562.601,247.153,719.375,279.09,699.91,374.473s-164.512,58.001-193.656,150.889c-41.696,132.894,99.651,182.786,48.536,312.355
				c-51.115,129.57-199.97,70.954-251.084,200.524s97.741,188.186,46.626,317.756"/>
		</g>
		<g>
			<path fill="none" stroke="#6496C8" stroke-miterlimit="10" d="M786.32-7.581C767.487,88.011,610.5,57.138,591.667,152.73
				c-18.834,95.596,138.154,126.468,119.321,222.064c-18.834,95.596-163.207,58.83-192.473,151.77
				c-41.873,132.974,98.546,183.133,46.543,312.488c-52.003,129.356-200.475,69.778-252.477,199.134s96.469,188.935,44.466,318.292"
				/>
		</g>
		<g>
			<path fill="none" stroke="#6496C8" stroke-miterlimit="10" d="M794.866-8.113c-18.2,95.805-175.394,65.997-193.594,161.802
				c-18.201,95.81,138.992,125.618,120.791,221.428s-161.898,59.655-191.287,152.65c-42.051,133.06,97.438,183.477,44.547,312.62
				s-200.974,68.605-253.865,197.748s95.192,189.681,42.301,318.824"/>
		</g>
		<g>
			<path fill="none" stroke="#6496C8" stroke-miterlimit="10" d="M803.408-8.645C785.84,87.373,628.448,58.628,610.88,154.647
				c-17.569,96.024,139.823,124.769,122.254,220.791c-17.569,96.024-160.582,60.476-190.096,153.529
				c-42.232,133.152,96.328,183.819,42.549,312.749s-201.468,67.437-255.247,196.367s93.909,190.422,40.13,319.35"/>
		</g>
		<g>
			<path fill="none" stroke="#6496C8" stroke-miterlimit="10" d="M811.946-9.176c-16.936,96.232-174.518,68.55-191.454,164.782
				c-16.936,96.236,140.646,123.919,123.71,220.156S584.94,437.054,555.3,530.172c-42.414,133.248,95.215,184.16,40.547,312.874
				c-54.668,128.716-201.956,66.274-256.624,194.99s92.621,191.158,37.953,319.874"/>
		</g>
		<g>
			<path fill="none" stroke="#6496C8" stroke-miterlimit="10" d="M820.48-9.707c-16.303,96.446-174.069,69.826-190.373,166.271
				c-16.304,96.45,141.462,123.071,125.158,219.521c-16.304,96.45-157.936,62.104-187.704,155.289
				c-42.598,133.35,94.099,184.497,38.543,312.999s-202.439,65.115-257.995,193.617s91.328,191.89,35.772,320.392"/>
		</g>
		<g>
			<path fill="none" stroke="#6496C8" stroke-miterlimit="10" d="M829.011-10.237C813.34,86.422,655.399,60.862,639.727,157.521
				c-15.672,96.664,142.27,122.224,126.598,218.888S609.72,439.32,579.823,532.577c-42.784,133.458,92.98,184.832,36.536,313.12
				s-202.917,63.961-259.361,192.25s90.029,192.617,33.585,320.905"/>
		</g>
		<g>
			<path fill="none" stroke="#6496C8" stroke-miterlimit="10" d="M837.538-10.767c-15.039,96.873-173.149,72.373-188.187,169.245
				c-15.039,96.877,143.07,121.378,128.031,218.256S622.113,440.447,592.086,533.78c-42.972,133.57,91.859,185.165,34.527,313.24
				c-57.332,128.076-203.39,62.812-260.723,190.887s88.726,193.338,31.393,321.414"/>
		</g>
		<g>
			<path fill="none" stroke="#6496C8" stroke-miterlimit="10" d="M846.061-11.296c-14.406,97.087-172.677,73.644-187.083,170.73
				c-14.407,97.091,143.863,120.533,129.456,217.624s-153.927,64.511-184.086,157.923
				c-43.162,133.687,90.736,185.495,32.515,313.356c-58.221,127.862-203.858,61.668-262.079,189.529s87.417,194.056,29.197,321.917"
				/>
		</g>
		<g>
			<path fill="none" stroke="#6496C8" stroke-miterlimit="10" d="M854.58-11.824c-13.774,97.3-172.197,74.914-185.971,172.213
				c-13.775,97.305,144.649,119.69,130.874,216.995S646.902,442.69,616.609,536.186c-43.354,133.81,89.609,185.823,30.501,313.471
				c-59.109,127.648-204.321,60.528-263.43,188.176s86.104,194.768,26.995,322.417"/>
		</g>
		<g>
			<path fill="none" stroke="#6496C8" stroke-miterlimit="10" d="M863.096-12.352C849.954,85.161,691.385,63.83,678.243,161.344
				c-13.142,97.518,145.427,118.849,132.284,216.367s-151.228,66.093-181.656,159.677
				c-43.548,133.939,88.481,186.148,28.484,313.582s-204.78,59.394-264.777,186.828s84.786,195.475,24.789,322.91"/>
		</g>
		<g>
			<path fill="none" stroke="#6496C8" stroke-miterlimit="10" d="M871.607-12.879C859.098,84.849,700.39,64.57,687.881,162.297
				c-12.51,97.731,146.197,118.01,133.687,215.742c-12.51,97.731-149.871,66.876-180.435,160.553
				c-43.744,134.072,87.35,186.47,26.465,313.691c-60.885,127.221-205.233,58.265-266.119,185.485s83.463,196.177,22.577,323.399"/>
		</g>
		<g>
			<path fill="none" stroke="#6496C8" stroke-miterlimit="10" d="M880.116-13.404C868.239,84.537,709.4,65.309,697.523,163.249
				c-11.878,97.945,146.961,117.172,135.083,215.117s-148.508,67.655-179.21,161.427c-43.942,134.211,86.216,186.79,24.443,313.798
				c-61.774,127.008-205.682,57.141-267.456,184.149s82.135,196.874,20.362,323.881"/>
		</g>
		<g>
			<path fill="none" stroke="#6496C8" stroke-miterlimit="10" d="M888.62-13.929c-11.245,98.154-170.207,79.976-181.452,178.13
				c-11.245,98.159,147.717,116.336,136.471,214.495s-147.139,68.43-177.98,162.301c-44.141,134.354,85.081,187.107,22.419,313.901
				s-206.127,56.022-268.789,182.816s80.803,197.566,18.141,324.36"/>
		</g>
		<g>
			<path fill="none" stroke="#6496C8" stroke-miterlimit="10" d="M897.121-14.452C886.509,83.915,727.43,66.784,716.817,165.152
				c-10.613,98.373,148.466,115.503,137.853,213.875s-145.767,69.198-176.75,163.174c-44.343,134.503,83.943,187.422,20.393,314.001
				c-63.55,126.581-206.567,54.909-270.117,181.489s79.467,198.252,15.917,324.833"/>
		</g>
		<g>
			<path fill="none" stroke="#6496C8" stroke-miterlimit="10" d="M905.619-14.974c-9.98,98.581-169.168,82.494-179.148,181.075
				c-9.981,98.585,149.207,114.673,139.227,213.258s-144.389,69.962-175.514,164.045c-44.547,134.657,82.803,187.732,18.364,314.099
				c-64.438,126.367-207.003,53.801-271.441,180.168s78.126,198.933,13.688,325.3"/>
		</g>
		<g>
			<path fill="none" stroke="#6496C8" stroke-miterlimit="10" d="M914.112-15.495c-9.348,98.794-168.638,83.75-177.986,182.545
				c-9.348,98.799,149.942,113.843,140.593,212.643s-143.006,70.721-174.274,164.915c-44.753,134.815,81.66,188.041,16.334,314.194
				c-65.327,126.153-207.434,52.699-272.761,178.852s76.781,199.609,11.454,325.762"/>
		</g>
		<g>
			<path fill="none" stroke="#6496C8" stroke-miterlimit="10" d="M922.603-16.015c-8.716,99.008-168.1,85.004-176.816,184.012
				c-8.716,99.013,150.669,113.017,141.953,212.03s-141.617,71.475-173.031,165.784c-44.961,134.979,80.516,188.347,14.301,314.286
				S521.148,911.7,454.933,1037.639s75.432,200.278,9.217,326.217"/>
		</g>
		<g>
			<path fill="none" stroke="#6496C8" stroke-miterlimit="10" d="M931.089-16.533C923.006,82.689,763.533,69.72,755.45,168.942
				c-8.084,99.227,151.389,112.194,143.305,211.421S758.532,452.587,726.97,547.015c-45.17,135.148,79.37,188.649,12.267,314.375
				c-67.103,125.727-208.285,50.511-275.388,176.238s74.079,200.942,6.976,326.668"/>
		</g>
		<g>
			<path fill="none" stroke="#6496C8" stroke-miterlimit="10" d="M939.573-17.051c-7.451,99.436-167.004,87.501-174.455,186.936
				c-7.451,99.44,152.102,111.374,144.651,210.813s-138.824,72.968-170.534,167.52c-45.383,135.322,78.221,188.949,10.229,314.462
				c-67.991,125.513-208.705,49.426-276.696,174.939s72.722,201.6,4.73,327.113"/>
		</g>
		<g>
			<path fill="none" stroke="#6496C8" stroke-miterlimit="10" d="M948.052-17.566c-6.819,99.648-166.446,88.746-173.265,188.395
				c-6.819,99.653,152.808,110.556,145.99,210.21c-6.819,99.653-137.421,73.706-169.281,168.385
				c-45.597,135.5,77.07,189.246,8.19,314.545s-209.12,48.346-278,173.645s71.361,202.252,2.481,327.552"/>
		</g>
		<g>
			<path fill="none" stroke="#6496C8" stroke-miterlimit="10" d="M956.529-18.08c-6.186,99.862-165.881,89.987-172.067,189.849
				c-6.187,99.867,153.508,109.741,147.321,209.608s-136.012,74.44-168.023,169.249c-45.813,135.684,75.917,189.541,6.15,314.626
				c-69.768,125.086-209.532,47.272-279.3,172.358s69.996,202.9,0.228,327.985"/>
		</g>
		<g>
			<path fill="none" stroke="#6496C8" stroke-miterlimit="10" d="M965.001-18.592C959.447,81.484,799.692,72.634,794.139,172.71
				c-5.554,100.08,154.2,108.93,148.646,209.011s-134.597,75.168-166.763,170.11c-46.031,135.871,74.763,189.831,4.107,314.703
				s-209.94,46.204-280.597,171.076s68.628,203.54-2.028,328.412"/>
		</g>
		<g>
			<path fill="none" stroke="#6496C8" stroke-miterlimit="10" d="M973.471-19.103c-4.922,100.289-164.73,92.461-169.651,192.751
				c-4.922,100.294,154.886,108.122,149.964,208.416s-133.178,75.89-165.498,170.972c-46.251,136.065,73.607,190.119,2.063,314.778
				s-210.345,45.143-281.89,169.801s67.256,204.175-4.288,328.834"/>
		</g>
		<g>
			<path fill="none" stroke="#6496C8" stroke-miterlimit="10" d="M981.937-19.612C977.648,80.89,817.793,74.08,813.504,174.583
				C809.215,275.091,969.069,281.9,964.78,382.408s-131.754,76.608-164.231,171.831c-46.474,136.263,72.449,190.404,0.016,314.849
				s-210.747,44.087-283.179,168.532c-72.433,124.445,65.881,204.804-6.551,329.249"/>
		</g>
		<g>
			<path fill="none" stroke="#6496C8" stroke-miterlimit="10" d="M990.4-20.12c-3.657,100.716-163.552,94.921-167.209,195.637
				c-3.657,100.721,156.238,106.516,152.581,207.238c-3.657,100.721-130.325,77.32-162.96,172.688
				c-46.698,136.466,71.289,190.686-2.031,314.917c-73.321,124.232-211.145,43.037-284.466,167.268s64.503,205.427-8.818,329.658"/>
		</g>
		<g>
			<path fill="none" stroke="#6496C8" stroke-miterlimit="10" d="M998.859-20.625C995.834,80.305,835.906,75.52,832.881,176.45
				c-3.024,100.934,156.904,105.719,153.879,206.653c-3.025,100.934-128.892,78.027-161.686,173.543
				c-46.924,136.673,70.128,190.964-4.081,314.982s-211.539,41.993-285.749,166.011s63.121,206.044-11.088,330.062"/>
		</g>
		<g>
			<path fill="none" stroke="#6496C8" stroke-miterlimit="10" d="M1007.316-21.129c-2.392,101.143-162.348,97.366-164.74,198.51
				c-2.392,101.148,157.563,104.925,155.17,206.073c-2.392,101.148-127.453,78.728-160.408,174.397
				c-47.153,136.885,68.965,191.239-6.132,315.043s-211.931,40.955-287.028,164.759s61.736,206.654-13.361,330.459"/>
		</g>
		<g>
			<path fill="none" stroke="#6496C8" stroke-miterlimit="10" d="M1015.769-21.631c-1.76,101.357-161.736,98.584-163.496,199.941
				c-1.76,101.362,158.216,104.134,156.456,205.496s-126.009,79.425-159.127,175.25c-47.384,137.101,67.8,191.512-8.185,315.102
				c-75.986,123.591-212.32,39.923-288.305,163.514s60.348,207.26-15.638,330.85"/>
		</g>
		<g>
			<path fill="none" stroke="#6496C8" stroke-miterlimit="10" d="M1024.219-22.131c-1.128,101.571-161.118,99.797-162.246,201.368
				c-1.128,101.576,158.862,103.348,157.735,204.924c-1.128,101.576-124.56,80.115-157.843,176.1
				c-47.616,137.323,66.634,191.781-10.239,315.158c-76.874,123.378-212.705,38.898-289.579,162.276s58.957,207.858-17.917,331.235"
				/>
		</g>
		<g>
			<path fill="none" stroke="#6496C8" stroke-miterlimit="10" d="M1032.665-22.629C1032.17,79.156,872.171,78.378,871.676,180.162
				c-0.495,101.788,159.503,102.566,159.007,204.355c-0.495,101.788-123.107,80.801-156.556,176.948
				c-47.851,137.549,65.467,192.047-12.295,315.21c-77.762,123.164-213.088,37.879-290.85,161.043s57.564,208.449-20.199,331.614"/>
		</g>
		<g>
			<path fill="none" stroke="#6496C8" stroke-miterlimit="10" d="M1041.109-23.124c0.137,101.997-159.863,102.212-159.726,204.209
				c0.137,102.002,160.137,101.787,160.274,203.79s-121.65,81.48-155.266,177.795c-48.088,137.779,64.298,192.31-14.353,315.259
				c-78.65,122.95-213.468,36.865-292.119,159.816s56.167,209.036-22.483,331.986"/>
		</g>
		<g>
			<path fill="none" stroke="#6496C8" stroke-miterlimit="10" d="M1049.549-23.619c0.769,102.211-159.226,103.413-158.457,205.624
				c0.769,102.216,160.765,101.014,161.534,203.229S932.44,467.39,898.655,563.874c-48.327,138.015,63.127,192.569-16.411,315.306
				c-79.539,122.737-213.846,35.858-293.385,158.595s54.768,209.615-24.77,332.353"/>
		</g>
		<g>
			<path fill="none" stroke="#6496C8" stroke-miterlimit="10" d="M1057.987-24.11c1.402,102.425-158.583,104.61-157.182,207.035
				c1.402,102.429,161.387,100.244,162.788,202.674c1.402,102.429-118.719,82.824-152.675,179.482
				c-48.568,138.253,61.956,192.826-18.471,315.348c-80.427,122.523-214.221,34.858-294.648,157.381s53.367,210.189-27.06,332.712"
				/>
		</g>
		<g>
			<path fill="none" stroke="#6496C8" stroke-miterlimit="10" d="M1066.422-24.6c2.034,102.638-157.935,105.803-155.901,208.44
				c2.034,102.643,162.003,99.479,164.037,202.121c2.034,102.643-117.247,83.486-151.375,180.322
				c-48.811,138.497,60.783,193.078-20.532,315.388s-214.593,33.863-295.909,156.173s51.963,210.756-29.353,333.066"/>
		</g>
		<g>
			<path fill="none" stroke="#6496C8" stroke-miterlimit="10" d="M1074.853-25.086c2.666,102.851-157.28,106.991-154.614,209.842
				c2.666,102.856,162.613,98.717,165.279,201.574s-115.77,84.144-150.072,181.16c-49.057,138.746,59.609,193.328-22.595,315.424
				c-82.203,122.096-214.963,32.876-297.167,154.972s50.556,211.317-31.647,333.414"/>
		</g>
		<g>
			<path fill="none" stroke="#6496C8" stroke-miterlimit="10" d="M1083.282-25.572c3.299,103.065-156.62,108.174-153.321,211.239
				c3.299,103.07,163.217,97.961,166.516,201.031s-114.29,84.797-148.767,181.996c-49.304,138.999,58.433,193.575-24.658,315.457
				c-83.092,121.883-215.331,31.894-298.423,153.777s49.148,211.871-33.944,333.754"/>
		</g>
		<g>
			<path fill="none" stroke="#6496C8" stroke-miterlimit="10" d="M1091.708-26.055c3.931,103.279-155.954,109.353-152.023,212.632
				c3.931,103.283,163.815,97.21,167.747,200.493S994.629,472.513,959.974,569.9c-49.554,139.255,57.256,193.819-26.724,315.487
				c-83.98,121.669-215.697,30.919-299.677,152.588s47.737,212.42-36.243,334.089"/>
		</g>
		<g>
			<path fill="none" stroke="#6496C8" stroke-miterlimit="10" d="M1100.131-26.535c4.563,103.492-155.282,110.527-150.719,214.019
				c4.563,103.497,164.408,96.462,168.972,199.959c4.563,103.497-111.313,86.085-146.147,183.661
				c-49.805,139.516,56.079,194.058-28.789,315.514s-216.061,29.95-300.929,151.406s46.324,212.961-38.544,334.417"/>
		</g>
		<g>
			<path fill="none" stroke="#6496C8" stroke-miterlimit="10" d="M1108.551-27.013c5.196,103.706-154.604,111.696-149.409,215.402
				c5.196,103.711,164.996,95.719,170.191,199.43c5.196,103.711-109.818,86.72-144.832,184.49
				c-50.059,139.782,54.901,194.295-30.856,315.537s-216.423,28.988-302.179,150.23c-85.757,121.242,44.91,213.497-40.847,334.739"
				/>
		</g>
		<g>
			<path fill="none" stroke="#6496C8" stroke-miterlimit="10" d="M1116.969-27.488c5.828,103.919-153.922,112.861-148.094,216.781
				c5.828,103.924,165.578,94.982,171.406,198.905s-108.319,87.35-143.515,185.317c-50.315,140.052,53.721,194.529-32.924,315.557
				c-86.645,121.029-216.783,28.031-303.427,149.06c-86.645,121.029,43.493,214.025-43.152,335.054"/>
		</g>
		<g>
			<path fill="none" stroke="#6496C8" stroke-miterlimit="10" d="M1125.383-27.962C1131.843,76.17,972.15,86.059,978.61,190.193
				c6.46,104.137,166.154,94.248,172.615,198.387s-106.816,87.975-142.195,186.142c-50.573,140.325,52.54,194.759-34.992,315.574
				c-87.533,120.815-217.141,27.082-304.674,147.897s42.075,214.548-45.458,335.363"/>
		</g>
		<g>
			<path fill="none" stroke="#6496C8" stroke-miterlimit="10" d="M1133.795-28.432c7.093,104.346-152.54,115.177-145.447,219.523
				c7.093,104.351,166.725,93.521,173.818,197.872s-105.308,88.593-140.873,186.964c-50.833,140.604,51.359,194.986-37.062,315.587
				s-217.497,26.139-305.919,146.741c-88.421,120.601,40.655,215.064-47.767,335.666"/>
		</g>
		<g>
			<path fill="none" stroke="#6496C8" stroke-miterlimit="10" d="M1142.205-28.901c7.725,104.56-151.841,116.327-144.116,220.887
				c7.725,104.565,167.291,92.798,175.016,197.363s-103.796,89.207-139.547,187.784c-51.096,140.886,50.177,195.209-39.133,315.597
				c-89.31,120.387-217.852,25.202-307.162,145.591s39.233,215.574-50.077,335.961"/>
		</g>
		<g>
			<path fill="none" stroke="#6496C8" stroke-miterlimit="10" d="M1150.612-29.367c8.357,104.774-151.137,117.472-142.78,222.246
				c8.357,104.778,167.852,92.079,176.209,196.858s-102.28,89.814-138.219,188.602c-51.36,141.173,48.994,195.429-41.204,315.604
				s-218.206,24.272-308.403,144.447s37.81,216.078-52.388,336.251"/>
		</g>
		<g>
			<path fill="none" stroke="#6496C8" stroke-miterlimit="10" d="M1159.016-29.83c8.99,104.987-150.428,118.612-141.439,223.599
				c8.99,104.992,168.408,91.367,177.397,196.358c8.99,104.991-100.759,90.417-136.889,189.417
				c-51.627,141.462,47.81,195.647-43.276,315.607c-91.086,119.961-218.557,23.348-309.644,143.309s36.385,216.574-54.701,336.535"
				/>
		</g>
		<g>
			<path fill="none" stroke="#6496C8" stroke-miterlimit="10" d="M1167.418-30.291c9.622,105.2-149.714,119.747-140.093,224.947
				c9.622,105.205,168.958,90.659,178.581,195.864s-99.235,91.013-135.556,190.229c-51.895,141.757,46.625,195.861-45.349,315.608
				s-218.908,22.431-310.883,142.178c-91.974,119.747,34.959,217.065-57.015,336.812"/>
		</g>
		<g>
			<path fill="none" stroke="#6496C8" stroke-miterlimit="10" d="M1175.818-30.748c10.254,105.414-148.996,120.877-138.742,226.29
				c10.255,105.419,169.504,89.956,179.759,195.374s-97.706,91.605-134.22,191.039c-52.166,142.055,45.44,196.071-47.422,315.605
				c-92.863,119.534-219.258,21.519-312.12,141.054c-92.863,119.534,33.532,217.548-59.33,337.082"/>
		</g>
		<g>
			<path fill="none" stroke="#6496C8" stroke-miterlimit="10" d="M1184.215-31.204c10.886,105.627-148.272,122.001-137.386,227.629
				c10.887,105.632,170.045,89.259,180.932,194.891s-96.173,92.19-132.883,191.846c-52.439,142.358,44.254,196.279-49.497,315.598
				c-93.751,119.32-219.606,20.615-313.357,139.935c-93.751,119.32,32.104,218.026-61.647,337.346"/>
		</g>
		<g>
			<path fill="none" stroke="#6496C8" stroke-miterlimit="10" d="M1192.61-31.657c11.519,105.841-147.544,123.12-136.025,228.961
				c11.519,105.846,170.582,88.566,182.101,194.412s-94.636,92.77-131.542,192.651c-52.714,142.663,43.068,196.482-51.571,315.589
				S835.62,919.672,740.981,1038.78s30.675,218.497-63.964,337.604"/>
		</g>
		<g>
			<path fill="none" stroke="#6496C8" stroke-miterlimit="10" d="M1201.002-32.107c12.151,106.055-146.811,124.234-134.66,230.289
				c12.151,106.06,171.114,87.88,183.265,193.939c12.151,106.06-93.096,93.345-130.2,193.454
				c-52.989,142.97,41.883,196.678-53.641,315.568c-95.529,118.895-220.301,18.827-315.829,137.722s29.243,218.964-66.286,337.859"
				/>
		</g>
		<g>
			<path fill="none" stroke="#6496C8" stroke-miterlimit="10" d="M1209.392-32.555c12.783,106.268-146.073,125.343-133.29,231.61
				c12.784,106.273,171.641,87.198,184.425,193.471s-91.551,93.914-128.854,194.253c-53.268,143.284,40.696,196.876-55.717,315.552
				c-96.417,118.681-220.646,17.941-317.063,136.623s27.812,219.422-68.605,338.104"/>
		</g>
		<g>
			<path fill="none" stroke="#6496C8" stroke-miterlimit="10" d="M1217.78-32.999c13.416,106.481-145.332,126.446-131.916,232.927
				c13.416,106.486,172.164,86.522,185.58,193.008s-90.003,94.477-127.507,195.051c-53.55,143.601,39.508,197.07-57.793,315.532
				c-97.305,118.468-220.991,17.062-318.296,135.53s26.38,219.874-70.925,338.342"/>
		</g>
		<g>
			<path fill="none" stroke="#6496C8" stroke-miterlimit="10" d="M1226.166-33.442c14.048,106.695-144.585,127.544-130.537,234.239
				c14.049,106.7,172.682,85.852,186.731,192.552s-88.451,95.036-126.158,195.845c-53.833,143.922,38.32,197.261-59.869,315.51
				c-98.194,118.254-221.335,16.189-319.528,134.444c-98.194,118.254,24.947,220.32-73.246,338.574"/>
		</g>
		<g>
			<path fill="none" stroke="#6496C8" stroke-miterlimit="10" d="M1234.55-33.88c14.68,106.909-143.835,128.636-129.155,235.545
				c14.681,106.914,173.196,85.187,187.877,192.1c14.681,106.914-86.894,95.587-124.806,196.637
				c-54.119,144.248,37.131,197.448-61.946,315.484c-99.082,118.041-221.678,15.323-320.76,133.364s23.514,220.759-75.568,338.8"/>
		</g>
		<g>
			<path fill="none" stroke="#6496C8" stroke-miterlimit="10" d="M1242.932-34.317c15.313,107.123-143.08,129.722-127.768,236.845
				c15.313,107.128,173.706,84.527,189.02,191.654c15.313,107.127-85.334,96.135-123.452,197.426
				c-54.406,144.577,35.942,197.632-64.023,315.454c-99.97,117.828-222.02,14.463-321.991,132.29s22.08,221.192-77.89,339.02"/>
		</g>
		<g>
			<path fill="none" stroke="#6496C8" stroke-miterlimit="10" d="M1251.311-34.752c15.945,107.335-142.321,130.804-126.376,238.139
				c15.946,107.34,174.212,83.873,190.158,191.213s-83.771,96.676-122.096,198.213c-54.696,144.908,34.753,197.814-66.101,315.422
				c-100.859,117.614-222.363,13.609-323.221,131.223s20.646,221.62-80.213,339.233"/>
		</g>
		<g>
			<path fill="none" stroke="#6496C8" stroke-miterlimit="10" d="M1259.688-35.182c16.577,107.549-141.559,131.879-124.981,239.428
				c16.578,107.554,174.714,83.224,191.292,190.779s-82.203,97.213-120.738,198.996c-54.988,145.245,33.563,197.992-68.179,315.386
				c-101.747,117.4-222.704,12.761-324.451,130.162s19.211,222.039-82.536,339.439"/>
		</g>
		<g>
			<path fill="none" stroke="#6496C8" stroke-miterlimit="10" d="M1268.064-35.611c17.21,107.763-140.792,132.949-123.582,240.712
				c17.21,107.768,175.212,82.581,192.422,190.349s-80.632,97.743-119.378,199.777c-55.283,145.584,32.373,198.166-70.257,315.347
				c-102.635,117.186-223.046,11.92-325.681,129.107s17.776,222.454-84.859,339.64"/>
		</g>
		<g>
			<path fill="none" stroke="#6496C8" stroke-miterlimit="10" d="M1276.438-36.036c17.842,107.976-140.021,134.014-122.179,241.99
				c17.843,107.981,175.706,81.943,193.549,189.924s-79.058,98.268-118.016,200.556c-55.579,145.927,31.183,198.338-72.335,315.305
				c-103.523,116.974-223.387,11.085-326.91,128.059s16.34,222.861-87.183,339.835"/>
		</g>
		<g>
			<path fill="none" stroke="#6496C8" stroke-miterlimit="10" d="M1284.809-36.459c18.474,108.19-139.247,135.073-120.773,243.263
				c18.475,108.195,176.196,81.312,194.671,189.507s-77.48,98.788-116.652,201.331c-55.877,146.273,29.993,198.505-74.414,315.26
				c-104.411,116.76-223.728,10.256-328.139,127.015s14.905,223.263-89.507,340.023"/>
		</g>
		<g>
			<path fill="none" stroke="#6496C8" stroke-miterlimit="10" d="M1293.179-36.879c19.107,108.403-138.469,136.126-119.362,244.53
				c19.107,108.408,176.683,80.686,195.79,189.094s-75.898,99.303-115.286,202.104c-56.178,146.624,28.803,198.671-76.492,315.211
				c-105.3,116.546-224.068,9.433-329.368,125.979s13.469,223.659-91.831,340.206"/>
		</g>
		<g>
			<path fill="none" stroke="#6496C8" stroke-miterlimit="10" d="M1301.547-37.296c19.739,108.617-137.687,137.174-117.948,245.79
				c19.74,108.622,177.166,80.065,196.906,188.686s-74.313,99.811-113.918,202.875c-56.48,146.976,27.612,198.833-78.571,315.16
				c-106.188,116.332-224.409,8.617-330.597,124.949s12.033,224.048-94.155,340.381"/>
		</g>
		<g>
			<path fill="none" stroke="#6496C8" stroke-miterlimit="10" d="M1309.914-37.71c20.371,108.83-136.902,138.215-116.531,247.046
				c20.372,108.835,177.646,79.45,198.018,188.285s-72.725,100.316-112.549,203.642c-56.785,147.334,26.422,198.992-80.65,315.105
				c-107.076,116.119-224.75,7.807-331.826,123.925s10.597,224.432-96.479,340.55"/>
		</g>
		<g>
			<path fill="none" stroke="#6496C8" stroke-miterlimit="10" d="M1318.278-38.122c21.004,109.044-136.114,139.252-115.11,248.296
				c21.004,109.049,178.122,78.84,199.126,187.889s-71.133,100.814-111.177,204.406c-57.092,147.694,25.231,199.147-82.728,315.048
				c-107.964,115.906-225.091,7.003-333.055,122.908c-107.964,115.906,9.161,224.809-98.803,340.714"/>
		</g>
		<g>
			<path fill="none" stroke="#6496C8" stroke-miterlimit="10" d="M1326.641-38.53c21.636,109.258-135.322,140.282-113.686,249.54
				c21.637,109.263,178.594,78.237,200.231,187.499s-69.538,101.307-109.805,205.168c-57.401,148.057,24.041,199.3-84.807,314.987
				c-108.853,115.692-225.432,6.204-334.284,121.896s7.726,225.18-101.127,340.872"/>
		</g>
		<g>
			<path fill="none" stroke="#6496C8" stroke-miterlimit="10" d="M1335.003-38.936c22.268,109.47-134.526,141.307-112.258,250.778
				c22.269,109.476,179.064,77.639,201.333,187.115s-67.94,101.795-108.43,205.928c-57.711,148.424,22.851,199.449-86.885,314.923
				c-109.741,115.478-225.773,5.412-335.514,120.89s6.291,225.545-103.451,341.024"/>
		</g>
		<g>
			<path fill="none" stroke="#6496C8" stroke-miterlimit="10" d="M1343.362-39.338c22.901,109.684-133.728,142.327-110.828,252.011
				c22.901,109.689,179.53,77.047,202.432,186.736s-66.339,102.278-107.053,206.684c-58.025,148.794,21.66,199.595-88.964,314.855
				c-110.629,115.265-226.114,4.626-336.744,119.891c-110.629,115.265,4.855,225.904-105.774,341.169"/>
		</g>
		<g>
			<path fill="none" stroke="#6496C8" stroke-miterlimit="10" d="M1351.721-39.738c23.533,109.898-132.927,143.341-109.394,253.238
				c23.534,109.903,179.993,76.46,203.527,186.364c23.534,109.903-64.734,102.756-105.675,207.437
				c-58.34,149.166,20.47,199.738-91.042,314.785c-111.518,115.051-226.456,3.846-337.974,118.897s3.421,226.257-108.097,341.309"/>
		</g>
	</g>
</g>
</svg>
