<?xml version="1.0" encoding="utf-8"?>
<!-- Generator: Adobe Illustrator 17.0.0, SVG Export Plug-In . SVG Version: 6.00 Build 0)  -->
<!DOCTYPE svg PUBLIC "-//W3C//DTD SVG 1.1//EN" "http://www.w3.org/Graphics/SVG/1.1/DTD/svg11.dtd">
<svg version="1.1" id="Layer_1" xmlns="http://www.w3.org/2000/svg" xmlns:xlink="http://www.w3.org/1999/xlink" x="0px" y="0px"
	 width="1827.445px" height="1331.53px" viewBox="0 0 1827.445 1331.53" enable-background="new 0 0 1827.445 1331.53"
	 xml:space="preserve">
<g opacity="0.5">
	<g>
		<g>
			<path fill="none" stroke="#2D376E" stroke-miterlimit="10" d="M307.629-90.236c61.999,73.183-30.615,147.396,31.384,220.579
				c61.998,73.182,154.612-1.03,216.61,72.152c62.001,73.186-30.612,147.399,31.389,220.585s231.232,14.996,230.307,109.819
				c-1.2,122.963-175.564,76.217-239.317,182.411c-63.752,106.193,39.878,165.038-23.874,271.231
				c-63.755,106.197-167.384,47.352-231.139,153.55s39.875,165.043-23.88,271.241"/>
		</g>
		<g>
			<path fill="none" stroke="#2D376E" stroke-miterlimit="10" d="M325.094-89.671c60.418,73.16-33.141,146.242,27.277,219.401
				s153.976,0.076,214.394,73.235c60.42,73.162-33.138,146.245,27.282,219.406s228.534,16.502,227.617,110.337
				c-1.193,122.216-174.312,76.795-236.483,183.013c-62.171,106.217,42.116,163.954-20.055,270.17
				c-62.174,106.222-166.46,48.485-228.634,154.707s42.113,163.959-20.061,270.18"/>
		</g>
		<g>
			<path fill="none" stroke="#2D376E" stroke-miterlimit="10" d="M342.562-89.088C401.399-15.953,306.89,55.964,365.728,129.1
				c58.837,73.134,153.346,1.218,212.183,74.352c58.839,73.138-35.67,145.055,23.17,218.192
				c58.84,73.138,225.837,18.011,224.931,110.872C824.826,654,652.955,609.9,592.364,716.142
				c-60.59,106.24,44.349,162.849-16.241,269.089c-60.593,106.245-165.532,49.637-226.124,155.884s44.346,162.854-16.247,269.099"/>
		</g>
		<g>
			<path fill="none" stroke="#2D376E" stroke-miterlimit="10" d="M360.031-88.487c57.257,73.111-38.207,143.826,19.05,216.937
				c57.256,73.11,152.719,2.396,209.975,75.506c57.259,73.114-38.205,143.829,19.054,216.943
				c57.259,73.114,223.143,19.522,222.246,111.424c-1.179,120.767-171.8,77.983-230.81,184.248
				c-59.009,106.265,46.577,161.723-12.433,267.987c-59.012,106.269-164.598,50.811-223.61,157.081
				c-59.012,106.269,46.574,161.728-12.438,267.998"/>
		</g>
		<g>
			<path fill="none" stroke="#2D376E" stroke-miterlimit="10" d="M377.503-87.868c55.676,73.087-40.745,142.562,14.93,215.649
				s152.096,3.612,207.771,76.698c55.678,73.09-40.743,142.564,14.934,215.654S835.589,441.17,834.701,532.13
				c-1.172,120.065-170.54,78.591-227.969,184.881c-57.428,106.289,48.798,160.577-8.63,266.866
				c-57.431,106.294-163.658,52.006-221.089,158.299s48.796,160.582-8.635,266.876"/>
		</g>
		<g>
			<path fill="none" stroke="#2D376E" stroke-miterlimit="10" d="M394.975-87.228c54.095,73.063-43.286,141.26,10.809,214.323
				c54.094,73.062,151.475,4.866,205.57,77.928c54.097,73.066-43.284,141.262,10.813,214.328
				c54.097,73.065,217.76,22.555,216.881,112.587c-1.166,119.38-169.276,79.211-225.124,185.525
				c-55.848,106.312,51.014,159.41-4.834,265.722c-55.85,106.318-162.712,53.22-218.562,159.538s51.011,159.415-4.839,265.732"/>
		</g>
		<g>
			<path fill="none" stroke="#2D376E" stroke-miterlimit="10" d="M412.449-86.57c52.514,73.039-45.828,139.918,6.686,212.957
				c52.513,73.038,150.856,6.159,203.369,79.197c52.516,73.042-45.826,139.921,6.69,212.963s215.07,24.075,214.2,113.198
				c-1.159,118.709-168.009,79.841-222.276,186.179c-54.267,106.337,53.222,158.223-1.045,264.559
				c-54.269,106.341-161.758,54.456-216.027,160.798s53.22,158.227-1.05,264.569"/>
		</g>
		<g>
			<path fill="none" stroke="#2D376E" stroke-miterlimit="10" d="M429.922-85.891c50.933,73.015-48.371,138.537,2.563,211.552
				c50.933,73.015,150.236,7.493,201.169,80.507c50.935,73.018-48.369,138.539,2.566,211.558
				c50.935,73.018,212.381,25.597,211.519,113.829c-1.153,118.056-166.738,80.481-219.424,186.843
				c-52.686,106.361,55.423,157.014,2.737,263.375c-52.688,106.366-160.797,55.713-213.485,162.079
				c-52.688,106.366,55.42,157.018,2.732,263.384"/>
		</g>
		<g>
			<path fill="none" stroke="#2D376E" stroke-miterlimit="10" d="M447.395-85.191c49.352,72.991-50.912,137.114-1.56,210.106
				c49.352,72.99,149.616,8.868,198.968,81.857c49.354,72.993-50.91,137.117-1.556,210.11s209.691,27.123,208.838,114.48
				c-1.146,117.419-165.463,81.132-216.568,187.518c-51.105,106.385,57.615,155.784,6.51,262.169
				c-51.107,106.39-159.827,56.99-210.935,163.38c-51.107,106.39,57.612,155.789,6.505,262.179"/>
		</g>
		<g>
			<path fill="none" stroke="#2D376E" stroke-miterlimit="10" d="M464.866-84.472c47.771,72.967-53.451,135.65-5.68,208.618
				c47.771,72.966,148.994,10.284,196.765,83.25c47.773,72.97-53.449,135.652-5.676,208.622c47.773,72.97,207,28.65,206.155,115.152
				c-1.14,116.798-164.183,81.793-213.708,188.203c-49.524,106.409,59.798,154.535,10.274,260.943
				c-49.527,106.413-158.849,58.287-208.375,164.702c-49.527,106.413,59.796,154.539,10.269,260.954"/>
		</g>
		<g>
			<path fill="none" stroke="#2D376E" stroke-miterlimit="10" d="M482.336-83.731c46.191,72.943-55.986,134.144-9.796,207.087
				s148.367,11.742,194.557,84.684c46.192,72.946-55.985,134.146-9.792,207.092s204.307,30.179,203.471,115.845
				c-1.135,116.194-162.899,82.464-210.843,188.898c-47.943,106.433,61.971,153.264,14.028,259.697
				c-47.946,106.438-157.86,59.606-205.806,166.044s61.969,153.269,14.023,259.707"/>
		</g>
		<g>
			<path fill="none" stroke="#2D376E" stroke-miterlimit="10" d="M499.804-82.967c44.61,72.919-58.517,132.594-13.907,205.513
				c44.609,72.918,147.736,13.243,192.345,86.162c44.611,72.921-58.515,132.597-13.904,205.518s201.612,31.711,200.784,116.56
				c-1.129,115.608-161.609,83.145-207.972,189.603c-46.363,106.457,64.134,151.974,17.772,258.431
				c-46.365,106.462-156.862,60.944-203.227,167.406s64.132,151.979,17.768,258.441"/>
		</g>
		<g>
			<path fill="none" stroke="#2D376E" stroke-miterlimit="10" d="M517.268-82.183c43.029,72.895-61.041,131.001-18.012,203.896
				c43.029,72.894,147.098,14.789,190.127,87.683c43.031,72.898-61.039,131.004-18.009,203.901s198.914,33.244,198.093,117.297
				c-1.123,115.04-160.314,83.836-205.096,190.318c-44.782,106.48,66.287,150.664,21.505,257.144
				c-44.784,106.485-155.852,62.303-200.636,168.788s66.284,150.669,21.501,257.154"/>
		</g>
		<g>
			<path fill="none" stroke="#2D376E" stroke-miterlimit="10" d="M534.728-81.376c41.448,72.871-63.557,129.364-22.108,202.235
				c41.448,72.87,146.452,16.378,187.9,89.249c41.45,72.874-63.555,129.366-22.105,202.24s196.212,34.779,195.399,118.056
				C872.695,644.89,714.8,614.939,671.599,721.445c-43.201,106.505,68.427,149.333,25.226,255.838
				c-43.203,106.51-154.831,63.682-198.034,170.192s68.425,149.338,25.222,255.848"/>
		</g>
		<g>
			<path fill="none" stroke="#2D376E" stroke-miterlimit="10" d="M552.183-80.547C592.05-7.7,486.121,47.134,525.988,119.981
				s145.797,18.012,185.664,90.858c39.869,72.849-66.061,127.684-26.192,200.534s193.506,36.314,192.7,118.837
				c-1.113,113.956-157.705,85.249-199.326,191.779c-41.62,106.529,70.555,147.982,28.935,254.512
				c-41.622,106.534-153.797,65.08-195.419,171.614s70.553,147.987,28.931,254.521"/>
		</g>
		<g>
			<path fill="none" stroke="#2D376E" stroke-miterlimit="10" d="M569.632-79.695c38.286,72.823-68.557,125.955-30.27,198.778
				c38.286,72.822,145.129,19.69,183.415,92.513c38.288,72.826-68.555,125.958-30.267,198.783
				c38.288,72.826,190.793,37.85,189.995,119.64c-1.108,113.441-156.392,85.969-196.431,192.524
				c-40.039,106.552,72.67,146.613,32.63,253.165c-40.041,106.558-152.75,66.498-192.792,173.056
				c-40.041,106.558,72.668,146.618,32.627,253.175"/>
		</g>
		<g>
			<path fill="none" stroke="#2D376E" stroke-miterlimit="10" d="M587.075-78.822c36.706,72.799-71.038,124.183-34.332,196.982
				c36.705,72.798,144.448,21.415,181.154,94.213c36.707,72.802-71.036,124.186-34.329,196.988s188.075,39.386,187.283,120.466
				c-1.103,112.946-155.071,86.7-193.53,193.278c-38.459,106.577,74.771,145.224,36.312,251.801
				c-38.46,106.582-151.69,67.934-190.15,174.516s74.769,145.229,36.309,251.811"/>
		</g>
		<g>
			<path fill="none" stroke="#2D376E" stroke-miterlimit="10" d="M604.51-77.925c35.125,72.775-73.503,122.366-38.378,195.141
				c35.124,72.775,143.752,23.183,178.877,95.957c35.126,72.777-73.502,122.369-38.376,195.147
				c35.126,72.777,185.349,40.921,184.563,121.314c-1.099,112.469-153.743,87.44-190.621,194.042
				c-36.878,106.601,76.858,143.817,39.98,250.418c-36.879,106.606-150.615,69.39-187.494,175.996s76.856,143.822,39.976,250.428"/>
		</g>
		<g>
			<path fill="none" stroke="#2D376E" stroke-miterlimit="10" d="M621.936-77.006c33.544,72.751-75.951,120.504-42.407,193.255
				c33.544,72.75,143.039,24.998,176.582,97.748c33.545,72.754-75.95,120.507-42.405,193.26s182.614,42.455,181.836,122.185
				c-1.094,112.01-152.408,88.189-187.705,194.814c-35.297,106.624,78.929,142.391,43.632,249.016
				c-35.299,106.63-149.524,70.864-184.823,177.494s78.927,142.396,43.629,249.026"/>
		</g>
		<g>
			<path fill="none" stroke="#2D376E" stroke-miterlimit="10" d="M639.352-76.065c31.963,72.727-78.38,118.597-46.417,191.324
				c31.963,72.726,142.306,26.856,174.268,99.582c31.964,72.73-78.379,118.6-46.414,191.329s179.87,43.987,179.097,123.078
				c-1.09,111.572-151.064,88.946-184.78,195.596c-33.716,106.649,80.985,140.948,47.269,247.597
				c-33.718,106.654-148.418,72.355-182.136,179.009c-33.718,106.654,80.983,140.953,47.266,247.606"/>
		</g>
		<g>
			<path fill="none" stroke="#2D376E" stroke-miterlimit="10" d="M656.758-75.101c30.382,72.703-80.787,116.646-50.404,189.348
				c30.382,72.703,141.551,28.76,171.933,101.462c30.383,72.706-80.786,116.648-50.402,189.353
				C758.268,477.768,905,450.579,904.234,529.057c-1.086,111.153-149.712,89.713-181.848,196.387
				c-32.135,106.673,83.024,139.487,50.889,246.159c-32.137,106.678-147.296,73.864-179.433,180.542
				c-32.137,106.678,83.022,139.492,50.886,246.17"/>
		</g>
		<g>
			<path fill="none" stroke="#2D376E" stroke-miterlimit="10" d="M674.152-74.115c28.801,72.679-83.17,114.65-54.369,187.328
				c28.801,72.678,140.773,30.708,169.574,103.386c28.802,72.681-83.169,114.652-54.367,187.334s174.349,47.043,173.588,124.932
				c-1.082,110.754-148.352,90.488-178.907,197.185c-30.554,106.697,85.046,138.009,54.491,244.706
				c-30.556,106.702-146.156,75.39-176.712,182.092s85.045,138.014,54.489,244.716"/>
		</g>
		<g>
			<path fill="none" stroke="#2D376E" stroke-miterlimit="10" d="M691.533-73.107c27.221,72.655-85.528,112.611-58.307,185.265
				c27.22,72.654,139.969,32.699,167.189,105.353c27.222,72.658-85.527,112.612-58.305,185.27s171.57,48.565,170.815,125.892
				c-1.078,110.375-146.983,91.271-175.957,197.992s87.05,136.515,58.077,243.236c-28.975,106.726-144.999,76.932-173.974,183.658
				s87.049,136.52,58.074,243.245"/>
		</g>
		<g>
			<path fill="none" stroke="#2D376E" stroke-miterlimit="10" d="M708.9-72.078c25.64,72.63-87.857,110.528-62.218,183.158
				c25.64,72.631,139.137,34.733,164.776,107.364c25.641,72.633-87.856,110.531-62.216,183.165S918.02,451.69,917.27,528.481
				c-1.075,110.016-145.605,92.061-172.998,198.807c-27.393,106.745,89.036,135.006,61.643,241.751
				c-27.394,106.75-143.823,78.489-171.217,185.239s89.035,135.01,61.641,241.76"/>
		</g>
		<g>
			<path fill="none" stroke="#2D376E" stroke-miterlimit="10" d="M726.252-71.029c24.059,72.607-90.157,108.404-66.098,181.011
				c24.059,72.606,138.274,36.808,162.333,109.415c24.06,72.609-90.156,108.407-66.096,181.016s165.97,51.591,165.225,127.875
				c-1.071,109.676-144.217,92.86-170.029,199.63c-25.812,106.769,91.003,133.481,65.191,240.25
				c-25.813,106.774-142.628,80.062-168.441,186.836s91.001,133.485,65.188,240.26"/>
		</g>
		<g>
			<path fill="none" stroke="#2D376E" stroke-miterlimit="10" d="M743.587-69.959c22.478,72.583-92.423,106.24-69.945,178.823
				c22.478,72.582,137.379,38.925,159.857,111.507c22.479,72.586-92.423,106.243-69.944,178.828
				c22.479,72.586,163.146,53.094,162.406,128.897c-1.068,109.358-142.819,93.665-167.05,200.459
				c-24.231,106.793,92.95,131.942,68.719,238.735c-24.232,106.797-141.413,81.649-165.645,188.447s92.949,131.947,68.716,238.744"
				/>
		</g>
		<g>
			<path fill="none" stroke="#2D376E" stroke-miterlimit="10" d="M760.905-68.869C781.802,3.69,666.25,35.168,687.147,107.727
				s136.45,41.08,157.347,113.639c20.898,72.562-94.655,104.039-73.757,176.601s160.306,54.588,159.57,129.939
				c-1.066,109.061-141.411,94.477-164.062,201.295c-22.65,106.817,94.876,130.389,72.226,237.206
				c-22.651,106.822-140.178,83.25-162.83,190.072c-22.651,106.822,94.875,130.394,72.224,237.217"/>
		</g>
		<g>
			<path fill="none" stroke="#2D376E" stroke-miterlimit="10" d="M778.205-67.76c19.316,72.535-96.851,101.796-77.534,174.331
				c19.316,72.534,135.483,43.273,154.799,115.807c19.317,72.537-96.85,101.799-77.533,174.336s157.447,56.071,156.715,130.999
				C933.59,636.497,794.66,623.009,773.59,729.851c-21.07,106.841,96.783,128.824,75.713,235.665
				c-21.07,106.846-138.922,84.863-159.993,191.709c-21.07,106.846,96.782,128.829,75.711,235.675"/>
		</g>
		<g>
			<path fill="none" stroke="#2D376E" stroke-miterlimit="10" d="M795.485-66.634c17.736,72.511-99.007,99.52-81.271,172.03
				c17.735,72.51,134.478,45.501,152.213,118.012c17.736,72.514-99.006,99.522-81.27,172.036
				c17.736,72.514,154.569,57.543,153.841,132.077c-1.06,108.529-138.564,96.121-158.053,202.987
				c-19.489,106.865,98.667,127.247,79.179,234.111c-19.49,106.87-137.646,86.489-157.135,193.359
				c-19.49,106.87,98.666,127.251,79.177,234.122"/>
		</g>
		<g>
			<path fill="none" stroke="#2D376E" stroke-miterlimit="10" d="M812.745-65.491C828.9,6.995,711.623,31.718,727.778,104.204
				s133.431,47.764,149.586,120.25c16.155,72.49-101.121,97.211-84.966,169.701s151.671,59.003,150.946,133.172
				c-1.058,108.295-137.124,96.951-155.032,203.841c-17.908,106.889,100.53,125.657,82.622,232.546
				c-17.909,106.894-136.347,88.125-154.255,195.019c-17.909,106.894,100.529,125.662,82.621,232.557"/>
		</g>
		<g>
			<path fill="none" stroke="#2D376E" stroke-miterlimit="10" d="M829.983-64.332c14.574,72.462-103.194,94.866-88.62,167.33
				c14.574,72.462,132.342,50.059,146.916,122.521c14.574,72.465-103.194,94.869-88.619,167.334s148.752,60.448,148.03,134.284
				c-1.056,108.082-135.673,97.787-152.001,204.701C779.362,838.751,898.06,855.896,881.733,962.81
				c-16.328,106.918-135.026,89.773-151.354,196.69c-16.328,106.918,102.37,124.063,86.042,230.982"/>
		</g>
		<g>
			<path fill="none" stroke="#2D376E" stroke-miterlimit="10" d="M847.199-63.158c12.993,72.439-105.222,92.495-92.229,164.933
				s131.208,52.382,144.201,124.82c12.994,72.442-105.221,92.497-92.228,164.939s145.81,61.877,145.092,135.409
				c-1.054,107.891-134.211,98.627-148.958,205.566c-14.746,106.937,104.189,122.45,89.443,229.386
				c-14.747,106.942-133.682,91.429-148.429,198.372c-14.747,106.941,104.188,122.455,89.441,229.397"/>
		</g>
		<g>
			<path fill="none" stroke="#2D376E" stroke-miterlimit="10" d="M864.392-61.971c11.412,72.415-107.203,90.096-95.79,162.51
				c11.412,72.414,130.027,54.733,141.439,127.147c11.413,72.418-107.202,90.099-95.79,162.516s142.846,63.289,142.13,136.549
				c-1.053,107.721-132.737,99.471-145.903,206.434c-13.165,106.961,105.984,120.833,92.819,227.793
				c-13.166,106.966-132.315,93.094-145.481,200.06s105.983,120.837,92.817,227.804"/>
		</g>
		<g>
			<path fill="none" stroke="#2D376E" stroke-miterlimit="10" d="M881.56-60.771c9.831,72.39-109.135,87.673-99.304,160.064
				S911.054,156.4,920.885,228.79c9.832,72.393-109.135,87.676-99.303,160.069c9.832,72.393,139.858,64.682,139.144,137.701
				c-1.051,107.573-131.252,100.32-142.837,207.307C806.304,840.852,925.644,853.075,914.06,960.06
				c-11.585,106.99-130.925,94.767-142.51,201.757s107.755,119.213,96.17,226.203"/>
		</g>
		<g>
			<path fill="none" stroke="#2D376E" stroke-miterlimit="10" d="M898.704-59.561c8.251,72.366-111.018,85.228-102.768,157.595
				c8.25,72.366,127.52,59.504,135.77,131.87c8.251,72.369-111.018,85.231-102.767,157.601s136.845,66.053,136.133,138.863
				c-1.05,107.446-129.755,101.172-139.758,208.182c-10.004,107.01,109.503,117.576,99.5,224.586
				c-10.004,107.015-129.511,96.447-139.516,203.461c-10.004,107.014,109.503,117.581,99.499,224.596"/>
		</g>
		<g>
			<path fill="none" stroke="#2D376E" stroke-miterlimit="10" d="M915.822-58.341c6.67,72.343-112.851,82.766-106.181,155.108
				s126.19,61.919,132.86,134.262c6.67,72.346-112.851,82.769-106.181,155.113s133.807,67.401,133.097,140.034
				c-1.049,107.342-128.245,102.026-136.668,209.061c-8.423,107.033,111.227,115.94,102.804,222.972
				c-8.423,107.038-128.073,98.132-136.497,205.17c-8.423,107.038,111.227,115.945,102.803,222.982"/>
		</g>
		<g>
			<path fill="none" stroke="#2D376E" stroke-miterlimit="10" d="M932.915-57.115c5.089,72.319-114.631,80.288-109.542,152.606
				s124.809,64.349,129.898,136.668c5.089,72.321-114.631,80.29-109.542,152.611s130.744,68.726,130.035,141.213
				c-1.048,107.26-126.724,102.884-133.566,209.942c-6.842,107.057,112.927,114.297,106.085,221.354
				c-6.842,107.062-126.611,99.822-133.454,206.885c-6.843,107.062,112.926,114.302,106.084,221.364"/>
		</g>
		<g>
			<path fill="none" stroke="#2D376E" stroke-miterlimit="10" d="M949.981-55.88c3.508,72.294-116.359,77.795-112.851,150.09
				c3.508,72.294,123.375,66.792,126.883,139.086c3.508,72.297-116.358,77.799-112.85,150.097
				c3.508,72.297,127.654,70.024,126.947,142.399c-1.048,107.199-125.19,103.743-130.452,210.824
				C842.397,843.699,962.26,849.268,956.999,956.35c-5.261,107.086-125.125,101.516-130.386,208.602
				c-5.262,107.086,114.602,112.656,109.34,219.743"/>
		</g>
		<g>
			<path fill="none" stroke="#2D376E" stroke-miterlimit="10" d="M967.02-54.643c1.927,72.271-118.032,75.296-116.105,147.567
				c1.927,72.27,121.887,69.244,123.814,141.514c1.927,72.274-118.032,75.299-116.105,147.572
				c1.927,72.274,124.538,71.294,123.832,143.588C981.409,632.759,858.812,630.2,855.131,737.306
				c-3.68,107.105,116.253,111.003,112.572,218.109c-3.681,107.11-123.614,103.212-127.294,210.322
				c-3.681,107.11,116.252,111.009,112.572,218.118"/>
		</g>
		<g>
			<path fill="none" stroke="#2D376E" stroke-miterlimit="10" d="M984.032-53.402c0.346,72.247-119.652,72.791-119.306,145.038
				s120.345,71.702,120.691,143.948c0.346,72.249-119.652,72.794-119.306,145.042S987.507,453.16,986.8,525.408
				c-1.047,107.145-122.086,105.463-124.186,212.593c-2.1,107.129,117.879,109.353,115.779,216.483
				c-2.1,107.134-122.078,104.91-124.178,212.044s117.878,109.358,115.779,216.492"/>
		</g>
		<g>
			<path fill="none" stroke="#2D376E" stroke-miterlimit="10" d="M1001.017-52.16c-1.235,72.223-121.218,70.283-122.453,142.506
				c-1.234,72.222,118.749,74.161,117.515,146.384c-1.235,72.225-121.218,70.286-122.452,142.511
				c-1.235,72.225,118.226,73.743,117.52,145.975C990.1,632.366,870.632,631.54,870.113,738.694
				c-0.519,107.154,119.48,107.703,118.961,214.856c-0.519,107.158-120.517,106.609-121.036,213.767s119.48,107.708,118.961,214.866
				"/>
		</g>
		<g>
			<path fill="none" stroke="#2D376E" stroke-miterlimit="10" d="M1017.975-50.918c-2.816,72.199-122.73,67.776-125.545,139.974
				s117.099,76.621,114.283,148.819c-2.815,72.202-122.729,67.779-125.545,139.98c-2.815,72.202,115.03,74.919,114.323,147.168
				c-1.048,107.179-118.932,107.186-117.87,214.364c1.062,107.177,121.056,106.053,122.118,213.229
				c1.062,107.183-118.932,108.307-117.87,215.489c1.062,107.183,121.057,106.057,122.119,213.24"/>
		</g>
		<g>
			<path fill="none" stroke="#2D376E" stroke-miterlimit="10" d="M1034.905-49.679c-4.396,72.174-124.186,65.273-128.582,137.448
				c-4.396,72.174,115.394,79.076,110.998,151.249c-4.396,72.177-124.186,65.276-128.583,137.454s111.806,76.06,111.1,148.36
				C998.79,632.06,882.501,632.878,885.144,740.08c2.643,107.201,122.608,104.404,125.251,211.605
				c2.643,107.206-117.323,110.003-114.68,217.21c2.643,107.206,122.608,104.409,125.251,211.615"/>
		</g>
		<g>
			<path fill="none" stroke="#2D376E" stroke-miterlimit="10" d="M1051.809-48.444c-5.977,72.151-125.589,62.779-131.566,134.93
				c-5.977,72.15,113.636,81.523,107.659,153.672c-5.977,72.153-125.59,62.781-131.567,134.935s108.557,77.164,107.849,149.547
				c-1.049,107.3-115.73,108.905-111.506,216.131c4.224,107.225,124.136,102.758,128.359,209.983
				c4.224,107.23-115.688,111.698-111.464,218.929c4.224,107.23,124.136,102.762,128.36,209.993"/>
		</g>
		<g>
			<path fill="none" stroke="#2D376E" stroke-miterlimit="10" d="M1068.686-47.214c-7.558,72.127-126.94,60.295-134.497,132.421
				c-7.558,72.126,111.824,83.958,104.266,156.084c-7.558,72.13-126.94,60.297-134.498,132.426s105.281,78.23,104.572,150.73
				c-1.05,107.394-114.11,109.763-108.305,217.013c5.804,107.249,125.639,101.115,131.443,208.364
				c5.805,107.255-114.029,113.388-108.225,220.643c5.805,107.255,125.639,101.12,131.444,208.374"/>
		</g>
		<g>
			<path fill="none" stroke="#2D376E" stroke-miterlimit="10" d="M1085.537-45.992C1076.399,26.112,957.3,11.834,948.161,83.936
				s109.96,86.38,100.821,158.482c-9.139,72.105-128.238,57.827-137.377,129.933s101.979,79.257,101.269,151.905
				c-1.051,107.509-112.478,110.618-105.093,217.892c7.385,107.273,127.117,99.476,134.503,206.749
				c7.386,107.278-112.346,115.075-104.961,222.353c7.386,107.278,127.118,99.481,134.503,206.76"/>
		</g>
		<g>
			<path fill="none" stroke="#2D376E" stroke-miterlimit="10" d="M1102.363-44.777c-10.72,72.078-129.484,55.373-140.203,127.451
				s108.045,88.785,97.325,160.862c-10.72,72.081-129.484,55.375-140.204,127.456s98.652,80.243,97.94,153.071
				c-1.052,107.648-110.834,111.471-101.868,218.769c8.966,107.297,128.572,97.843,137.538,205.141
				c8.967,107.302-110.639,116.756-101.673,224.058s128.572,97.848,137.539,205.15"/>
		</g>
		<g>
			<path fill="none" stroke="#2D376E" stroke-miterlimit="10" d="M1119.163-43.573c-12.3,72.055-130.68,52.94-142.98,124.995
				c-12.3,72.054,106.079,91.169,93.779,163.222c-12.301,72.057-130.68,52.943-142.981,125s95.3,81.186,94.586,154.226
				c-1.054,107.807-109.178,112.32-98.631,219.641s130.003,96.217,140.549,203.539c10.547,107.327-108.908,118.43-98.361,225.757
				s130.003,96.222,140.55,203.549"/>
		</g>
		<g>
			<path fill="none" stroke="#2D376E" stroke-miterlimit="10" d="M1135.939-42.38C1122.058,29.65,1004.111,8.151,990.23,80.181
				c-13.881,72.03,104.065,93.529,90.184,165.559c-13.882,72.033-131.828,50.534-145.71,122.568s91.924,82.087,91.207,155.371
				c-1.056,107.988-107.51,113.165-95.383,220.511c12.128,107.345,131.41,94.599,143.538,201.944
				c12.128,107.35-107.154,120.097-95.025,227.447c12.128,107.35,131.41,94.604,143.539,201.953"/>
		</g>
		<g>
			<path fill="none" stroke="#2D376E" stroke-miterlimit="10" d="M1152.691-41.201c-15.462,72.006-132.928,48.148-148.39,120.155
				c-15.462,72.006,102.004,95.864,86.542,167.87c-15.463,72.009-132.928,48.151-148.391,120.16s88.524,82.943,87.805,156.502
				c-1.057,108.19-105.831,114.006-92.122,221.377c13.709,107.369,132.794,92.988,146.503,200.358
				c13.709,107.374-105.376,121.756-91.667,229.13s132.795,92.993,146.504,200.367"/>
		</g>
		<g>
			<path fill="none" stroke="#2D376E" stroke-miterlimit="10" d="M1169.421-40.036c-17.043,71.983-133.983,45.794-151.026,117.777
				c-17.043,71.982,99.897,98.17,82.854,170.152c-17.043,71.985-133.983,45.797-151.027,117.782
				c-17.044,71.985,85.102,83.754,84.38,157.62c-1.06,108.414-104.141,114.843-88.851,222.237
				c15.289,107.394,134.155,91.386,149.445,198.78c15.29,107.399-103.576,123.405-88.286,230.804
				c15.29,107.399,134.156,91.391,149.446,198.79"/>
		</g>
		<g>
			<path fill="none" stroke="#2D376E" stroke-miterlimit="10" d="M1186.129-38.886c-18.624,71.959-134.994,43.471-153.618,115.43
				c-18.623,71.958,97.747,100.446,79.123,172.403c-18.624,71.961-134.995,43.473-153.619,115.435s81.659,84.518,80.934,158.721
				c-1.062,108.659-102.439,115.674-85.569,223.093c16.87,107.417,135.494,89.795,152.365,197.213
				c16.871,107.422-101.753,125.044-84.882,232.467c16.871,107.423,135.495,89.8,152.366,197.223"/>
		</g>
		<g>
			<path fill="none" stroke="#2D376E" stroke-miterlimit="10" d="M1202.815-37.753c-20.205,71.934-135.963,41.181-156.168,113.115
				c-20.204,71.934,95.554,102.688,75.35,174.621c-20.205,71.937-135.964,41.184-156.169,113.121s78.195,85.237,77.466,159.806
				c-1.065,108.926-100.726,116.501-82.275,223.943c18.451,107.441,136.812,88.216,155.263,195.656
				c18.452,107.446-99.909,126.673-81.457,234.119c18.452,107.446,136.812,88.221,155.264,195.667"/>
		</g>
		<g>
			<path fill="none" stroke="#2D376E" stroke-miterlimit="10" d="M1219.482-36.638c-21.785,71.911-136.893,38.927-158.678,110.837
				s93.323,104.894,71.537,176.804c-21.786,71.913-136.894,38.929-158.68,110.842s74.712,85.907,73.979,160.874
				c-1.068,109.213-99.003,117.321-78.971,224.787s138.107,86.647,158.139,194.113c20.033,107.471-98.043,128.288-78.01,235.759
				c20.033,107.471,138.108,86.652,158.141,194.122"/>
		</g>
		<g>
			<path fill="none" stroke="#2D376E" stroke-miterlimit="10" d="M1236.131-35.541c-23.367,71.887-137.786,36.709-161.152,108.596
				c-23.366,71.886,91.053,107.064,67.687,178.95c-23.367,71.89-137.786,36.711-161.153,108.601s71.21,86.529,70.473,161.922
				c-1.071,109.522-97.269,118.135-75.656,225.625c21.613,107.489,139.382,85.092,160.995,192.581
				c21.614,107.494-96.156,129.892-74.542,237.387s139.383,85.097,160.997,192.591"/>
		</g>
		<g>
			<path fill="none" stroke="#2D376E" stroke-miterlimit="10" d="M1252.761-34.464c-24.947,71.862-138.642,34.53-163.589,106.392
				c-24.947,71.861,88.748,109.194,63.801,181.056c-24.948,71.865-138.643,34.533-163.591,106.398s67.691,87.104,66.949,162.951
				c-1.074,109.85-95.525,118.942-72.331,226.456c23.193,107.513,140.636,83.549,163.83,191.063
				c23.195,107.518-94.248,131.483-71.054,239.001c23.195,107.518,140.637,83.554,163.832,191.073"/>
		</g>
		<g>
			<path fill="none" stroke="#2D376E" stroke-miterlimit="10" d="M1269.375-33.407c-26.528,71.839-139.465,32.391-165.993,104.23
				c-26.528,71.838,86.41,111.285,59.882,183.123c-26.529,71.841-139.466,32.394-165.995,104.235s64.155,87.63,63.408,163.961
				c-1.078,110.2-93.771,119.741-68.997,227.28c24.774,107.538,141.871,82.021,166.645,189.558
				c24.775,107.543-92.321,133.059-67.546,240.601c24.776,107.543,141.872,82.026,166.648,189.568"/>
		</g>
		<g>
			<path fill="none" stroke="#2D376E" stroke-miterlimit="10" d="M1285.974-32.37c-28.109,71.815-140.258,30.294-168.367,102.109
				c-28.109,71.814,84.041,113.334,55.932,185.148c-28.11,71.818-140.259,30.297-168.369,102.115s60.604,88.108,59.852,164.949
				c-1.081,110.569-92.008,120.534-65.652,228.097c26.355,107.561,143.086,80.507,169.442,188.069
				c26.356,107.567-90.375,134.62-64.019,242.186s143.088,80.512,169.444,188.079"/>
		</g>
		<g>
			<path fill="none" stroke="#2D376E" stroke-miterlimit="10" d="M1302.557-31.355c-29.689,71.79-141.022,28.24-170.711,100.03
				c-29.689,71.789,81.643,115.34,51.954,187.13c-29.691,71.793-141.023,28.243-170.714,100.036
				c-29.691,71.793,57.039,88.537,56.282,165.916c-1.085,110.959-90.235,121.32-62.298,228.906
				c27.936,107.585,144.283,79.01,172.219,186.595c27.937,107.59-88.41,136.166-60.473,243.756s144.285,79.015,172.222,186.605"/>
		</g>
		<g>
			<path fill="none" stroke="#2D376E" stroke-miterlimit="10" d="M1319.128-30.362c-31.27,71.766-141.759,26.23-173.03,97.996
				c-31.27,71.766,79.219,117.302,47.949,189.068c-31.271,71.769-141.76,26.233-173.032,98.002s53.461,88.918,52.699,166.862
				c-1.089,111.369-88.453,122.096-58.936,229.706s145.462,77.527,174.979,185.137c29.518,107.614-86.427,137.696-56.909,245.31
				c29.518,107.615,145.464,77.532,174.982,185.147"/>
		</g>
		<g>
			<path fill="none" stroke="#2D376E" stroke-miterlimit="10" d="M1335.687-29.391c-32.851,71.743-142.472,24.263-175.323,96.006
				c-32.851,71.742,76.77,119.221,43.919,190.963c-32.852,71.745-142.473,24.266-175.326,96.011
				c-32.852,71.745,49.871,89.25,49.103,167.785c-1.094,111.798-86.662,122.865-55.564,230.499
				c31.098,107.633,146.623,76.062,177.721,183.696c31.099,107.639-84.427,139.21-53.328,246.848
				c31.099,107.639,146.625,76.068,177.724,183.705"/>
		</g>
		<g>
			<path fill="none" stroke="#2D376E" stroke-miterlimit="10" d="M1352.235-28.442c-34.432,71.718-143.163,22.343-177.595,94.061
				c-34.432,71.717,74.299,121.094,39.868,192.812c-34.433,71.721-143.165,22.345-177.598,94.066s46.271,89.535,45.496,168.685
				c-1.098,112.247-84.863,123.625-52.185,231.284c32.678,107.657,147.768,74.614,180.447,182.272
				c32.68,107.662-82.41,140.706-49.73,248.368s147.77,74.618,180.45,182.282"/>
		</g>
		<g>
			<path fill="none" stroke="#2D376E" stroke-miterlimit="10" d="M1368.773-27.516c-36.013,71.694-143.834,20.467-179.847,92.161
				c-36.012,71.694,71.809,122.922,35.797,194.616c-36.014,71.697-143.836,20.468-179.85,92.165
				c-36.014,71.697,42.66,89.772,41.88,169.564c-1.103,112.715-83.057,124.377-48.797,232.059
				c34.259,107.682,148.897,73.183,183.156,180.865c34.261,107.686-80.377,142.184-46.116,249.872
				c34.261,107.686,148.898,73.188,183.159,180.875"/>
		</g>
		<g>
			<path fill="none" stroke="#2D376E" stroke-miterlimit="10" d="M1385.301-26.612c-37.594,71.671-144.488,18.636-182.082,90.306
				c-37.593,71.67,69.301,124.704,31.707,196.374c-37.595,71.673-144.489,18.638-182.084,90.312
				c-37.595,71.673,39.041,89.962,38.254,170.418c-1.107,113.202-81.242,125.119-45.401,232.826
				c35.84,107.706,150.01,71.771,185.85,179.476c35.842,107.711-78.328,143.645-42.487,251.356
				c35.842,107.711,150.012,71.776,185.854,179.486"/>
		</g>
		<g>
			<path fill="none" stroke="#2D376E" stroke-miterlimit="10" d="M1401.822-25.732c-39.175,71.646-145.125,16.851-184.3,88.497
				c-39.174,71.645,66.777,126.441,27.603,198.087c-39.176,71.649-145.127,16.853-184.303,88.503s35.415,90.105,34.621,171.251
				c-1.112,113.707-79.42,125.852-41.999,233.582c37.421,107.729,151.109,70.376,188.53,178.106
				c37.423,107.734-76.265,145.087-38.843,252.822s151.11,70.382,188.533,178.116"/>
		</g>
		<g>
			<path fill="none" stroke="#2D376E" stroke-miterlimit="10" d="M1418.337-24.874c-40.755,71.622-145.75,15.112-186.505,86.734
				s64.239,128.133,23.484,199.755c-40.757,71.625-145.751,15.115-186.508,86.74s31.781,90.203,30.981,172.06
				c-1.117,114.231-77.591,126.576-38.589,234.33c39.002,107.754,152.193,69.001,191.195,176.755
				c39.003,107.758-74.188,146.511-35.184,254.269c39.003,107.758,152.195,69.006,191.198,176.764"/>
		</g>
		<g>
			<path fill="none" stroke="#2D376E" stroke-miterlimit="10" d="M1434.845-24.04c-42.336,71.599-146.362,13.417-188.698,85.016
				c-42.336,71.598,61.69,129.778,19.354,201.376c-42.338,71.601-146.363,13.42-188.701,85.021s28.142,90.255,27.334,172.848
				c-1.123,114.773-75.755,127.289-35.172,235.068c40.583,107.778,153.264,67.645,193.847,175.422
				c40.584,107.783-72.097,147.915-31.513,255.697c40.584,107.783,153.266,67.65,193.851,175.433"/>
		</g>
		<g>
			<path fill="none" stroke="#2D376E" stroke-miterlimit="10" d="M1451.348-23.228c-43.917,71.574-146.964,11.769-190.881,83.343
				c-43.917,71.573,59.13,131.379,15.213,202.952c-43.919,71.577-146.965,11.772-190.884,83.348
				c-43.919,71.577,24.499,90.263,23.683,173.612c-1.128,115.334-73.913,127.994-31.75,235.797
				c42.163,107.801,154.323,66.308,196.486,174.11c42.165,107.806-69.994,149.3-27.829,257.106
				c42.165,107.806,154.325,66.313,196.49,174.12"/>
		</g>
		<g>
			<path fill="none" stroke="#2D376E" stroke-miterlimit="10" d="M1467.847-22.437c-45.498,71.55-147.558,10.165-193.056,81.715
				c-45.497,71.55,56.562,132.935,11.065,204.484c-45.5,71.553-147.559,10.167-193.059,81.72s20.851,90.227,20.028,174.353
				c-1.134,115.911-72.065,128.689-28.321,236.515c43.744,107.826,155.37,64.991,199.114,172.817
				c43.746,107.83-67.879,150.665-24.133,258.495s155.372,64.996,199.118,172.826"/>
		</g>
		<g>
			<path fill="none" stroke="#2D376E" stroke-miterlimit="10" d="M1484.343-21.67c-47.079,71.527-148.145,8.605-195.224,80.132
				c-47.078,71.526,53.988,134.446,6.91,205.972c-47.08,71.529-148.147,8.608-195.227,80.137s17.2,90.148,16.369,175.074
				c-1.14,116.507-70.212,129.373-24.886,237.223c45.325,107.85,156.405,63.694,201.73,171.544
				c45.327,107.855-65.753,152.01-20.425,259.865c45.327,107.855,156.407,63.699,201.734,171.553"/>
		</g>
		<g>
			<path fill="none" stroke="#2D376E" stroke-miterlimit="10" d="M1500.836-20.924c-48.66,71.502-148.727,7.089-197.387,78.591
				c-48.659,71.501,51.409,135.915,2.75,207.416c-48.661,71.505-148.729,7.092-197.39,78.597s13.547,90.028,12.708,175.771
				c-1.146,117.118-68.353,130.047-21.446,237.923c46.906,107.873,157.429,62.417,204.335,170.291
				c46.908,107.878-63.615,153.335-16.707,261.214s157.432,62.422,204.339,170.301"/>
		</g>
		<g>
			<path fill="none" stroke="#2D376E" stroke-miterlimit="10" d="M1517.328-20.199c-50.24,71.478-149.306,5.617-199.547,77.095
				c-50.24,71.477,48.826,137.34-1.414,208.817c-50.242,71.481-149.308,5.619-199.55,77.1
				c-50.242,71.481,9.893,89.865,9.046,176.448c-1.152,117.748-66.489,130.712-18.002,238.611
				c48.487,107.898,158.444,61.16,206.931,169.058c48.489,107.902-61.468,154.64-12.979,262.543
				c48.489,107.902,158.446,61.165,206.935,169.068"/>
		</g>
		<g>
			<path fill="none" stroke="#2D376E" stroke-miterlimit="10" d="M1533.818-19.496c-51.821,71.454-149.883,4.186-201.704,75.641
				c-51.821,71.454,46.241,138.722-5.58,210.176c-51.823,71.457-149.885,4.189-201.708,75.646s6.237,89.664,5.382,177.103
				c-1.158,118.394-64.62,131.366-14.552,239.289c50.068,107.922,159.449,59.924,209.517,167.845
				c50.07,107.927-59.312,155.924-9.242,263.851c50.07,107.927,159.452,59.929,209.521,167.856"/>
		</g>
		<g>
			<path fill="none" stroke="#2D376E" stroke-miterlimit="10" d="M1550.308-18.813c-53.402,71.43-150.459,2.797-203.861,74.228
				c-53.401,71.43,43.655,140.062-9.747,211.491c-53.404,71.432-150.461,2.8-203.865,74.233s2.582,89.423,1.717,177.738
				c-1.165,119.057-62.747,132.01-11.098,239.957c51.648,107.945,160.446,58.707,212.094,166.654
				c51.651,107.951-57.147,157.189-5.496,265.14c51.651,107.951,160.448,58.712,212.099,166.663"/>
		</g>
		<g>
			<path fill="none" stroke="#2D376E" stroke-miterlimit="10" d="M1566.799-18.152c-54.983,71.406-151.035,1.449-206.018,72.856
				c-54.982,71.405,41.07,141.362-13.913,212.767c-54.985,71.409-151.037,1.452-206.022,72.861s-1.074,89.143-1.947,178.352
				c-1.172,119.734-60.87,132.644-7.641,240.615c53.229,107.969,161.434,57.512,214.663,165.482
				c53.232,107.974-54.974,158.433-1.742,266.407s161.437,57.517,214.668,165.491"/>
		</g>
		<g>
			<path fill="none" stroke="#2D376E" stroke-miterlimit="10" d="M1583.29-17.51c-56.564,71.382-151.613,0.142-208.177,71.524
				c-56.563,71.382,38.486,142.622-18.077,214.004c-56.566,71.385-151.615,0.144-208.181,71.529s-4.728,88.826-5.61,178.946
				c-1.178,120.429-58.989,133.268-4.179,241.262s162.415,56.337,217.225,164.331c54.812,107.999-52.793,159.655,2.02,267.654
				c54.812,107.999,162.418,56.342,217.23,164.341"/>
		</g>
		<g>
			<path fill="none" stroke="#2D376E" stroke-miterlimit="10" d="M1599.782-16.888c-58.145,71.359-152.193-1.127-210.338,70.231
				c-58.144,71.358,35.905,143.843-22.239,215.201c-58.147,71.36-152.196-1.124-210.342,70.236s-8.381,88.473-9.272,179.52
				c-1.185,121.139-57.105,133.881-0.714,241.899c56.391,108.017,163.389,55.183,219.78,163.2
				c56.393,108.023-50.605,160.858,5.788,268.88c56.393,108.023,163.392,55.188,219.785,163.211"/>
		</g>
		<g>
			<path fill="none" stroke="#2D376E" stroke-miterlimit="10" d="M1616.276-16.284c-59.725,71.334-152.778-2.357-212.503,68.977
				c-59.725,71.333,33.328,145.025-26.397,216.359c-59.728,71.337-152.78-2.356-212.508,68.982s-12.031,88.084-12.932,180.075
				c-1.193,121.863-55.218,134.484,2.754,242.527c57.972,108.041,164.357,54.049,222.329,162.09
				c57.974,108.046-48.411,162.04,9.563,270.086s164.36,54.054,222.334,162.1"/>
		</g>
		<g>
			<path fill="none" stroke="#2D376E" stroke-miterlimit="10" d="M1632.773-15.699c-61.306,71.31-153.366-3.551-214.673,67.759
				c-61.306,71.31,30.755,146.171-30.551,217.48c-61.308,71.313-153.369-3.548-214.677,67.765
				c-61.309,71.313-15.68,87.66-16.59,180.612c-1.2,122.604-53.328,135.077,6.225,243.143
				c59.552,108.066,165.319,52.935,224.872,161.001c59.555,108.071-46.212,163.201,13.343,271.272
				c59.555,108.071,165.322,52.94,224.877,161.011"/>
		</g>
		<g>
			<path fill="none" stroke="#2D376E" stroke-miterlimit="10" d="M1649.272-15.133c-62.887,71.287-153.961-4.708-216.848,66.578
				c-62.886,71.286,28.187,147.279-34.699,218.565c-62.889,71.288-153.963-4.705-216.852,66.583s-19.325,87.203-20.245,181.13
				c-1.207,123.358-51.435,135.659,9.699,243.75c61.133,108.09,166.277,51.842,227.41,159.931
				c61.136,108.095-44.007,164.343,17.129,272.438s166.279,51.847,227.416,159.942"/>
		</g>
		<g>
			<path fill="none" stroke="#2D376E" stroke-miterlimit="10" d="M1665.775-14.585c-64.468,71.262-154.561-5.83-219.029,65.433
				c-64.467,71.261,25.626,148.353-38.842,219.614c-64.47,71.265-154.563-5.827-219.034,65.438
				c-64.47,71.265-22.968,86.713-23.897,181.631c-1.215,124.128-49.54,136.232,13.175,244.346
				c62.714,108.113,167.229,50.768,229.943,158.883c62.717,108.118-41.798,165.463,20.919,273.582
				c62.717,108.118,167.232,50.774,229.949,158.893"/>
		</g>
		<g>
			<path fill="none" stroke="#2D376E" stroke-miterlimit="10" d="M1682.28-14.053c-66.049,71.238-155.168-6.917-221.217,64.321
				c-66.048,71.238,23.071,149.393-42.977,220.63c-66.051,71.241-155.171-6.914-221.222,64.327s-26.607,86.193-27.545,182.114
				c-1.223,124.91-47.643,136.794,16.652,244.933c64.295,108.138,168.177,49.716,232.472,157.854
				c64.298,108.143-39.585,166.564,24.713,274.707c64.298,108.143,168.18,49.721,232.478,157.864"/>
		</g>
	</g>
</g>
</svg>
