<?xml version="1.0" encoding="utf-8"?>
<!-- Generator: Adobe Illustrator 17.0.0, SVG Export Plug-In . SVG Version: 6.00 Build 0)  -->
<!DOCTYPE svg PUBLIC "-//W3C//DTD SVG 1.1//EN" "http://www.w3.org/Graphics/SVG/1.1/DTD/svg11.dtd">
<svg version="1.1" id="Layer_1" xmlns="http://www.w3.org/2000/svg" xmlns:xlink="http://www.w3.org/1999/xlink" x="0px" y="0px"
	 width="1827.445px" height="1331.53px" viewBox="0 0 1827.445 1331.53" enable-background="new 0 0 1827.445 1331.53"
	 xml:space="preserve">
<g opacity="0.5">
	<g>
		<g>
			<path fill="none" stroke="#2D376E" stroke-miterlimit="10" d="M374.336-85.254c68.818,145.428-95.001,217.191-26.183,362.618
				c68.819,145.43,232.639,73.667,301.458,219.098c68.821,145.433-94.999,217.195-26.178,362.629s232.64,73.67,301.461,219.103
				s-94.999,217.195-26.178,362.629"/>
		</g>
		<g>
			<path fill="none" stroke="#2D376E" stroke-miterlimit="10" d="M391.674-84.515c67.119,145.428-97.391,215.714-30.272,361.141
				c67.12,145.43,231.63,75.144,298.75,220.575c67.121,145.433-97.389,215.719-30.267,361.151
				c67.122,145.433,231.631,75.148,298.753,220.58s-97.388,215.719-30.267,361.152"/>
		</g>
		<g>
			<path fill="none" stroke="#2D376E" stroke-miterlimit="10" d="M409.007-83.768c65.42,145.428-99.772,214.218-34.352,359.646
				c65.421,145.43,230.612,76.64,296.033,222.07c65.422,145.433-99.769,214.223-34.347,359.656s230.614,76.643,296.036,222.076
				s-99.769,214.223-34.347,359.657"/>
		</g>
		<g>
			<path fill="none" stroke="#2D376E" stroke-miterlimit="10" d="M426.336-83.01c63.721,145.428-102.143,212.704-38.422,358.132
				c63.722,145.43,229.585,78.154,293.307,223.584c63.723,145.433-102.141,212.709-38.418,358.141
				c63.723,145.433,229.587,78.158,293.309,223.591s-102.141,212.709-38.418,358.142"/>
		</g>
		<g>
			<path fill="none" stroke="#2D376E" stroke-miterlimit="10" d="M443.66-82.244c62.021,145.428-104.505,211.172-42.483,356.599
				c62.022,145.43,228.548,79.686,290.571,225.117c62.023,145.433-104.503,211.176-42.479,356.61s228.55,79.689,290.573,225.123
				s-104.503,211.176-42.479,356.61"/>
		</g>
		<g>
			<path fill="none" stroke="#2D376E" stroke-miterlimit="10" d="M460.978-81.469C521.3,63.959,354.122,128.152,414.444,273.579
				c60.323,145.43,227.501,81.237,287.825,226.668c60.324,145.433-106.854,209.625-46.53,355.059s227.503,81.24,287.827,226.674
				s-106.854,209.626-46.53,355.06"/>
		</g>
		<g>
			<path fill="none" stroke="#2D376E" stroke-miterlimit="10" d="M478.292-80.685c58.623,145.428-109.197,208.052-50.574,353.48
				c58.624,145.43,226.444,82.806,285.068,228.236c58.625,145.433-109.195,208.057-50.57,353.489
				c58.625,145.433,226.445,82.81,285.07,228.243s-109.195,208.057-50.57,353.49"/>
		</g>
		<g>
			<path fill="none" stroke="#2D376E" stroke-miterlimit="10" d="M495.599-79.891c56.924,145.428-111.527,206.465-54.603,351.893
				c56.925,145.43,225.375,84.393,282.299,229.823c56.926,145.433-111.525,206.47-54.599,351.903s225.376,84.396,282.302,229.829
				s-111.524,206.471-54.599,351.904"/>
		</g>
		<g>
			<path fill="none" stroke="#2D376E" stroke-miterlimit="10" d="M512.901-79.089c55.225,145.428-113.844,204.861-58.62,350.288
				c55.225,145.43,224.294,85.997,279.52,231.427c55.226,145.433-113.843,204.866-58.616,350.298
				c55.227,145.433,224.296,86.001,279.522,231.434c55.227,145.433-113.842,204.866-58.616,350.299"/>
		</g>
		<g>
			<path fill="none" stroke="#2D376E" stroke-miterlimit="10" d="M530.197-78.278c53.525,145.428-116.15,203.239-62.625,348.666
				c53.526,145.429,223.202,87.619,276.728,233.05c53.527,145.433-116.148,203.243-62.621,348.676
				c53.527,145.433,223.203,87.623,276.73,233.055c53.527,145.433-116.148,203.243-62.621,348.677"/>
		</g>
		<g>
			<path fill="none" stroke="#2D376E" stroke-miterlimit="10" d="M547.487-77.459C599.313,67.97,429.043,124.14,480.87,269.569
				c51.827,145.43,222.096,89.259,273.923,234.689c51.828,145.433-118.441,201.604-66.614,347.037
				c51.828,145.433,222.097,89.262,273.925,234.695s-118.441,201.604-66.613,347.037"/>
		</g>
		<g>
			<path fill="none" stroke="#2D376E" stroke-miterlimit="10" d="M564.769-76.63c50.127,145.428-120.722,199.943-70.596,345.371
				c50.128,145.43,220.977,90.916,271.105,236.345c50.129,145.433-120.721,199.947-70.593,345.381
				c50.129,145.433,220.979,90.918,271.107,236.352S845.071,1286.767,895.2,1432.2"/>
		</g>
		<g>
			<path fill="none" stroke="#2D376E" stroke-miterlimit="10" d="M582.046-75.793c48.427,145.428-122.99,198.269-74.562,343.697
				c48.428,145.43,219.845,92.589,268.273,238.018c48.429,145.433-122.987,198.274-74.558,343.707s219.846,92.592,268.276,238.025
				s-122.987,198.275-74.558,343.708"/>
		</g>
		<g>
			<path fill="none" stroke="#2D376E" stroke-miterlimit="10" d="M599.314-74.949c46.728,145.428-125.241,196.58-78.513,342.008
				c46.73,145.429,218.699,94.277,265.429,239.708c46.73,145.433-125.24,196.585-78.509,342.018
				c46.73,145.433,218.7,94.281,265.43,239.714s-125.239,196.586-78.509,342.019"/>
		</g>
		<g>
			<path fill="none" stroke="#2D376E" stroke-miterlimit="10" d="M616.576-74.096c45.029,145.428-127.478,194.874-82.449,340.302
				c45.03,145.43,217.538,95.984,262.567,241.414c45.031,145.433-127.477,194.879-82.446,340.312s217.539,95.987,262.569,241.42
				s-127.477,194.88-82.446,340.313"/>
		</g>
		<g>
			<path fill="none" stroke="#2D376E" stroke-miterlimit="10" d="M633.83-73.235c43.33,145.428-129.7,193.153-86.37,338.58
				c43.331,145.43,216.361,97.705,259.692,243.136c43.331,145.433-129.699,193.157-86.368,338.59
				c43.332,145.433,216.362,97.709,259.694,243.143s-129.699,193.157-86.367,338.591"/>
		</g>
		<g>
			<path fill="none" stroke="#2D376E" stroke-miterlimit="10" d="M651.076-72.366C692.707,73.061,519.169,119.049,560.8,264.476
				c41.631,145.43,215.169,99.443,256.801,244.872c41.632,145.433-131.906,191.42-90.274,336.853s215.17,99.446,256.803,244.879
				c41.632,145.433-131.906,191.421-90.273,336.854"/>
		</g>
		<g>
			<path fill="none" stroke="#2D376E" stroke-miterlimit="10" d="M668.315-71.491C708.247,73.937,534.217,118.172,574.149,263.6
				c39.932,145.43,213.962,101.195,253.894,246.625c39.933,145.433-134.096,189.668-94.163,335.101s213.962,101.198,253.895,246.631
				s-134.096,189.669-94.163,335.102"/>
		</g>
		<g>
			<path fill="none" stroke="#2D376E" stroke-miterlimit="10" d="M685.545-70.607c38.232,145.428-136.272,187.896-98.039,333.324
				c38.233,145.43,212.737,102.962,250.97,248.392c38.234,145.433-136.271,187.901-98.037,333.335s212.738,102.964,250.972,248.398
				s-136.27,187.901-98.037,333.334"/>
		</g>
		<g>
			<path fill="none" stroke="#2D376E" stroke-miterlimit="10" d="M702.766-69.716C739.299,75.711,564.337,116.399,600.87,261.827
				C637.404,407.257,812.366,366.569,848.9,512c36.534,145.433-138.428,186.12-101.893,331.553
				c36.534,145.433,211.496,104.746,248.031,250.179s-138.427,186.12-101.893,331.554"/>
		</g>
		<g>
			<path fill="none" stroke="#2D376E" stroke-miterlimit="10" d="M719.979-68.819c34.834,145.428-140.568,184.32-105.734,329.749
				c34.834,145.43,210.237,106.538,245.071,251.967c34.835,145.433-140.567,184.326-105.732,329.758
				c34.835,145.433,210.238,106.541,245.073,251.974s-140.567,184.326-105.732,329.759"/>
		</g>
		<g>
			<path fill="none" stroke="#2D376E" stroke-miterlimit="10" d="M737.183-67.915c33.135,145.428-142.69,182.512-109.555,327.941
				c33.135,145.43,208.96,108.346,242.095,253.775c33.136,145.433-142.689,182.517-109.553,327.95s208.961,108.349,242.097,253.782
				c33.136,145.433-142.689,182.518-109.553,327.951"/>
		</g>
		<g>
			<path fill="none" stroke="#2D376E" stroke-miterlimit="10" d="M754.377-67.004c31.435,145.428-144.794,180.692-113.358,326.119
				c31.436,145.429,207.665,110.166,239.101,255.596c31.437,145.433-144.792,180.697-113.356,326.129
				c31.437,145.433,207.666,110.17,239.102,255.603c31.437,145.433-144.792,180.697-113.356,326.13"/>
		</g>
		<g>
			<path fill="none" stroke="#2D376E" stroke-miterlimit="10" d="M771.563-66.088C801.299,79.339,624.685,112.77,654.421,258.198
				c29.737,145.43,206.351,112,236.088,257.429c29.737,145.433-146.877,178.863-117.14,324.296s206.352,112.003,236.089,257.436
				c29.737,145.433-146.877,178.864-117.14,324.297"/>
		</g>
		<g>
			<path fill="none" stroke="#2D376E" stroke-miterlimit="10" d="M788.739-65.165c28.037,145.428-148.944,177.014-120.907,322.441
				C695.869,402.706,872.85,371.12,900.888,516.55c28.038,145.433-148.943,177.018-120.905,322.451s205.019,113.848,233.057,259.281
				c28.038,145.433-148.943,177.018-120.905,322.452"/>
		</g>
		<g>
			<path fill="none" stroke="#2D376E" stroke-miterlimit="10" d="M805.905-64.237c26.338,145.428-150.99,175.158-124.652,320.585
				c26.338,145.43,203.666,115.7,230.005,261.131c26.339,145.433-150.989,175.162-124.651,320.595
				c26.339,145.433,203.667,115.704,230.006,261.137s-150.989,175.162-124.65,320.596"/>
		</g>
		<g>
			<path fill="none" stroke="#2D376E" stroke-miterlimit="10" d="M823.061-63.304C847.7,82.124,670.044,109.987,694.683,255.415
				c24.639,145.43,202.294,117.567,226.933,262.997C946.256,663.845,768.6,691.707,793.24,837.14s202.295,117.571,226.934,263.004
				c24.639,145.433-153.016,173.296-128.376,318.729"/>
		</g>
		<g>
			<path fill="none" stroke="#2D376E" stroke-miterlimit="10" d="M840.207-62.366c22.939,145.428-155.023,171.414-132.083,316.842
				c22.94,145.43,200.902,119.444,223.842,264.874c22.94,145.433-155.022,171.419-132.082,316.852
				c22.94,145.433,200.902,119.447,223.843,264.88s-155.022,171.419-132.082,316.852"/>
		</g>
		<g>
			<path fill="none" stroke="#2D376E" stroke-miterlimit="10" d="M857.343-61.423c21.24,145.428-157.008,169.528-135.768,314.956
				c21.241,145.43,199.489,121.33,220.73,266.76c21.241,145.433-157.008,169.533-135.767,314.965
				c21.241,145.433,199.49,121.334,220.731,266.767s-157.008,169.533-135.767,314.966"/>
		</g>
		<g>
			<path fill="none" stroke="#2D376E" stroke-miterlimit="10" d="M874.468-60.475c19.541,145.428-158.973,167.633-139.432,313.06
				c19.541,145.43,198.056,123.225,217.597,268.656c19.542,145.433-158.973,167.638-139.431,313.071
				c19.542,145.433,198.056,123.228,217.598,268.661s-158.973,167.638-139.431,313.072"/>
		</g>
		<g>
			<path fill="none" stroke="#2D376E" stroke-miterlimit="10" d="M891.583-59.523c17.842,145.428-160.917,165.73-143.075,311.157
				c17.842,145.43,196.601,125.128,214.443,270.559c17.842,145.432-160.917,165.735-143.075,311.168
				s196.601,125.131,214.444,270.565c17.842,145.433-160.917,165.735-143.074,311.168"/>
		</g>
		<g>
			<path fill="none" stroke="#2D376E" stroke-miterlimit="10" d="M908.687-58.568C924.83,86.859,745.848,105.251,761.99,250.678
				c16.143,145.43,195.125,127.039,211.268,272.47c16.143,145.433-162.839,163.824-146.696,309.257s195.125,127.042,211.268,272.475
				c16.143,145.433-162.839,163.825-146.696,309.258"/>
		</g>
		<g>
			<path fill="none" stroke="#2D376E" stroke-miterlimit="10" d="M925.781-57.61c14.443,145.428-164.74,161.901-150.297,307.33
				c14.444,145.43,193.627,128.957,208.071,274.386c14.444,145.433-164.74,161.907-150.296,307.339
				c14.444,145.433,193.628,128.96,208.072,274.393s-164.74,161.907-150.296,307.34"/>
		</g>
		<g>
			<path fill="none" stroke="#2D376E" stroke-miterlimit="10" d="M942.863-56.648C955.607,88.78,776.244,103.33,788.988,248.759
				c12.744,145.43,192.108,130.88,204.852,276.309c12.745,145.433-166.619,159.983-153.875,305.416
				c12.745,145.433,192.108,130.883,204.853,276.316s-166.619,159.984-153.874,305.417"/>
		</g>
		<g>
			<path fill="none" stroke="#2D376E" stroke-miterlimit="10" d="M959.935-55.684C970.98,89.744,791.458,102.365,802.503,247.794
				c11.045,145.43,190.566,132.809,201.612,278.239c11.045,145.433-168.476,158.055-157.431,303.487
				c11.045,145.433,190.567,132.812,201.612,278.245c11.045,145.433-168.476,158.055-157.431,303.488"/>
		</g>
		<g>
			<path fill="none" stroke="#2D376E" stroke-miterlimit="10" d="M976.995-54.717c9.346,145.428-170.311,156.116-160.966,301.543
				c9.346,145.43,189.003,134.742,198.349,280.172c9.346,145.433-170.311,156.121-160.965,301.553
				c9.346,145.433,189.003,134.746,198.349,280.179s-170.311,156.121-160.965,301.554"/>
		</g>
		<g>
			<path fill="none" stroke="#2D376E" stroke-miterlimit="10" d="M994.044-53.748C1001.69,91.68,821.92,100.43,829.567,245.858
				c7.647,145.43,187.417,136.68,195.063,282.11c7.647,145.433-172.123,154.183-164.477,299.615
				c7.647,145.433,187.417,136.684,195.064,282.117s-172.123,154.183-164.477,299.616"/>
		</g>
		<g>
			<path fill="none" stroke="#2D376E" stroke-miterlimit="10" d="M1011.082-52.777c5.947,145.428-173.914,152.237-167.966,297.665
				c5.947,145.43,185.808,138.621,191.755,284.051c5.948,145.433-173.913,152.241-167.966,297.675
				c5.948,145.433,185.808,138.624,191.756,284.057s-173.913,152.242-167.966,297.676"/>
		</g>
		<g>
			<path fill="none" stroke="#2D376E" stroke-miterlimit="10" d="M1028.109-51.805c4.248,145.428-175.681,150.293-171.433,295.722
				c4.248,145.43,184.177,140.565,188.425,285.994c4.248,145.433-175.681,150.298-171.433,295.731
				c4.248,145.433,184.177,140.568,188.425,286.001s-175.681,150.299-171.433,295.732"/>
		</g>
		<g>
			<path fill="none" stroke="#2D376E" stroke-miterlimit="10" d="M1045.124-50.832c2.549,145.428-177.426,148.348-174.877,293.776
				c2.549,145.43,182.523,142.51,185.072,287.94c2.549,145.433-177.425,148.352-174.877,293.786
				c2.549,145.433,182.523,142.513,185.072,287.947s-177.425,148.354-174.877,293.787"/>
		</g>
		<g>
			<path fill="none" stroke="#2D376E" stroke-miterlimit="10" d="M1062.128-49.86c0.85,145.428-179.148,146.401-178.298,291.83
				c0.85,145.43,180.847,144.457,181.696,289.886c0.85,145.433-179.147,146.406-178.298,291.839
				c0.85,145.433,180.847,144.46,181.696,289.893c0.85,145.433-179.147,146.407-178.298,291.84"/>
		</g>
		<g>
			<path fill="none" stroke="#2D376E" stroke-miterlimit="10" d="M1079.12-48.886c-0.85,145.428-180.847,144.455-181.696,289.882
				c-0.85,145.43,179.147,146.403,178.298,291.834c-0.85,145.433-180.847,144.46-181.696,289.892
				c-0.85,145.433,179.148,146.407,178.298,291.84s-180.847,144.46-181.696,289.893"/>
		</g>
		<g>
			<path fill="none" stroke="#2D376E" stroke-miterlimit="10" d="M1096.102-47.912C1093.553,97.515,913.579,94.596,911.03,240.024
				c-2.549,145.43,177.426,148.351,174.877,293.78c-2.549,145.433-182.523,142.513-185.072,287.946s177.425,148.353,174.877,293.787
				S893.189,1258.05,890.64,1403.484"/>
		</g>
		<g>
			<path fill="none" stroke="#2D376E" stroke-miterlimit="10" d="M1113.071-46.94c-4.248,145.428-184.177,140.563-188.425,285.99
				c-4.248,145.43,175.681,150.295,171.433,295.725c-4.248,145.433-184.177,140.568-188.425,286
				c-4.248,145.433,175.681,150.299,171.433,295.732S894.91,1257.076,890.662,1402.51"/>
		</g>
		<g>
			<path fill="none" stroke="#2D376E" stroke-miterlimit="10" d="M1130.03-45.968C1124.083,99.46,944.222,92.651,938.275,238.079
				c-5.947,145.43,173.913,152.24,167.966,297.669c-5.947,145.432-185.808,138.624-191.756,284.057s173.913,152.242,167.966,297.676
				s-185.808,138.624-191.756,284.058"/>
		</g>
		<g>
			<path fill="none" stroke="#2D376E" stroke-miterlimit="10" d="M1146.977-44.998C1139.331,100.429,959.56,91.68,951.914,237.107
				c-7.647,145.43,172.124,154.18,164.477,299.611c-7.647,145.433-187.417,136.683-195.064,282.116s172.123,154.183,164.477,299.616
				s-187.417,136.684-195.064,282.117"/>
		</g>
		<g>
			<path fill="none" stroke="#2D376E" stroke-miterlimit="10" d="M1163.913-44.029c-9.346,145.428-189.003,134.74-198.348,280.169
				c-9.346,145.43,170.311,156.118,160.965,301.548c-9.346,145.432-189.003,134.745-198.349,280.178
				s170.311,156.121,160.965,301.554c-9.346,145.433-189.003,134.746-198.349,280.179"/>
		</g>
		<g>
			<path fill="none" stroke="#2D376E" stroke-miterlimit="10" d="M1180.838-43.062c-11.045,145.428-190.566,132.806-201.611,278.235
				c-11.045,145.43,168.476,158.052,157.431,303.481c-11.045,145.433-190.567,132.812-201.612,278.244
				c-11.045,145.433,168.476,158.055,157.431,303.488s-190.567,132.812-201.612,278.245"/>
		</g>
		<g>
			<path fill="none" stroke="#2D376E" stroke-miterlimit="10" d="M1197.752-42.097C1185.008,103.33,1005.644,88.78,992.9,234.208
				c-12.744,145.43,166.619,159.98,153.875,305.41c-12.745,145.433-192.108,130.883-204.853,276.315
				c-12.745,145.433,166.619,159.984,153.874,305.417s-192.108,130.883-204.853,276.316"/>
		</g>
		<g>
			<path fill="none" stroke="#2D376E" stroke-miterlimit="10" d="M1214.654-41.136c-14.443,145.428-193.627,128.954-208.07,274.382
				c-14.444,145.43,164.74,161.904,150.297,307.334c-14.444,145.433-193.628,128.959-208.071,274.392
				c-14.444,145.433,164.74,161.907,150.296,307.34c-14.444,145.433-193.628,128.96-208.072,274.393"/>
		</g>
		<g>
			<path fill="none" stroke="#2D376E" stroke-miterlimit="10" d="M1231.546-40.177c-16.143,145.428-195.125,127.036-211.267,272.465
				c-16.143,145.43,162.839,163.822,146.697,309.251c-16.143,145.432-195.125,127.042-211.268,272.474
				c-16.143,145.433,162.839,163.825,146.696,309.258c-16.143,145.433-195.125,127.042-211.268,272.475"/>
		</g>
		<g>
			<path fill="none" stroke="#2D376E" stroke-miterlimit="10" d="M1248.427-39.221c-17.842,145.428-196.601,125.126-214.443,270.554
				c-17.842,145.43,160.917,165.732,143.075,311.162c-17.842,145.433-196.601,125.131-214.444,270.564
				c-17.842,145.433,160.917,165.735,143.074,311.168c-17.842,145.433-196.601,125.131-214.444,270.564"/>
		</g>
		<g>
			<path fill="none" stroke="#2D376E" stroke-miterlimit="10" d="M1265.297-38.27c-19.541,145.428-198.055,123.223-217.596,268.651
				c-19.541,145.43,158.973,167.635,139.432,313.065c-19.542,145.433-198.056,123.228-217.598,268.66
				c-19.542,145.433,158.973,167.639,139.431,313.072S910.91,1248.406,891.368,1393.84"/>
		</g>
		<g>
			<path fill="none" stroke="#2D376E" stroke-miterlimit="10" d="M1282.157-37.323c-21.24,145.428-199.489,121.328-220.729,266.756
				c-21.24,145.43,157.008,169.53,135.768,314.96c-21.241,145.433-199.49,121.333-220.731,266.766s157.008,169.533,135.767,314.966
				s-199.49,121.334-220.731,266.767"/>
		</g>
		<g>
			<path fill="none" stroke="#2D376E" stroke-miterlimit="10" d="M1299.006-36.38c-22.939,145.428-200.902,119.442-223.841,264.87
				c-22.94,145.43,155.022,171.416,132.083,316.846c-22.94,145.433-200.902,119.447-223.843,264.88
				c-22.94,145.433,155.022,171.419,132.082,316.852s-200.902,119.447-223.843,264.88"/>
		</g>
		<g>
			<path fill="none" stroke="#2D376E" stroke-miterlimit="10" d="M1315.845-35.441c-24.639,145.428-202.294,117.565-226.932,262.993
				c-24.639,145.43,153.016,173.293,128.377,318.723c-24.64,145.432-202.295,117.57-226.934,263.003
				c-24.64,145.433,153.016,173.296,128.376,318.729s-202.295,117.571-226.934,263.004"/>
		</g>
		<g>
			<path fill="none" stroke="#2D376E" stroke-miterlimit="10" d="M1332.675-34.508c-26.338,145.428-203.666,115.698-230.004,261.126
				c-26.338,145.43,150.99,175.16,124.651,320.59c-26.339,145.433-203.667,115.703-230.005,261.136
				c-26.339,145.433,150.989,175.162,124.65,320.596S918.3,1244.645,891.961,1390.077"/>
		</g>
		<g>
			<path fill="none" stroke="#2D376E" stroke-miterlimit="10" d="M1349.494-33.58c-28.037,145.428-205.018,113.842-233.055,259.27
				c-28.037,145.43,148.944,177.016,120.906,322.446c-28.038,145.433-205.019,113.847-233.057,259.28
				c-28.038,145.433,148.943,177.018,120.905,322.452s-205.019,113.848-233.057,259.281"/>
		</g>
		<g>
			<path fill="none" stroke="#2D376E" stroke-miterlimit="10" d="M1366.303-32.658c-29.736,145.428-206.351,111.997-236.087,257.426
				c-29.737,145.43,146.878,178.861,117.141,324.29c-29.737,145.433-206.352,112.003-236.089,257.435
				c-29.737,145.433,146.877,178.864,117.14,324.297c-29.737,145.433-206.352,112.003-236.089,257.436"/>
		</g>
		<g>
			<path fill="none" stroke="#2D376E" stroke-miterlimit="10" d="M1383.103-31.741c-31.436,145.428-207.665,110.164-239.1,255.593
				c-31.436,145.43,144.793,180.694,113.357,326.123c-31.437,145.433-207.666,110.169-239.102,255.602
				c-31.437,145.433,144.792,180.697,113.356,326.13s-207.666,110.17-239.102,255.603"/>
		</g>
		<g>
			<path fill="none" stroke="#2D376E" stroke-miterlimit="10" d="M1399.893-30.831c-33.135,145.428-208.96,108.344-242.094,253.771
				c-33.135,145.43,142.69,182.514,109.554,327.945c-33.136,145.433-208.961,108.349-242.097,253.781
				c-33.136,145.433,142.689,182.518,109.553,327.951S925.848,1240.966,892.712,1386.4"/>
		</g>
		<g>
			<path fill="none" stroke="#2D376E" stroke-miterlimit="10" d="M1416.675-29.926c-34.834,145.428-210.236,106.535-245.07,251.963
				c-34.834,145.43,140.568,184.323,105.733,329.753c-34.835,145.433-210.237,106.54-245.073,251.973
				c-34.835,145.433,140.567,184.326,105.732,329.759s-210.238,106.541-245.073,251.974"/>
		</g>
		<g>
			<path fill="none" stroke="#2D376E" stroke-miterlimit="10" d="M1433.447-29.029c-36.533,145.428-211.495,104.741-248.028,250.168
				c-36.534,145.43,138.428,186.117,101.895,331.548c-36.534,145.433-211.496,104.745-248.031,250.179
				c-36.534,145.433,138.427,186.12,101.893,331.554c-36.535,145.433-211.496,104.746-248.031,250.18"/>
		</g>
		<g>
			<path fill="none" stroke="#2D376E" stroke-miterlimit="10" d="M1450.211-28.138c-38.232,145.428-212.736,102.96-250.969,248.387
				c-38.233,145.43,136.271,187.898,98.038,333.329c-38.234,145.433-212.738,102.964-250.972,248.398
				s136.271,187.901,98.037,333.335s-212.738,102.964-250.972,248.398"/>
		</g>
		<g>
			<path fill="none" stroke="#2D376E" stroke-miterlimit="10" d="M1466.966-27.255c-39.932,145.428-213.961,101.193-253.893,246.621
				c-39.932,145.43,134.097,189.665,94.165,335.095c-39.933,145.433-213.962,101.198-253.895,246.63
				c-39.933,145.433,134.096,189.669,94.163,335.102s-213.962,101.198-253.896,246.631"/>
		</g>
		<g>
			<path fill="none" stroke="#2D376E" stroke-miterlimit="10" d="M1483.713-26.379c-41.631,145.428-215.169,99.44-256.8,244.869
				c-41.631,145.43,131.907,191.418,90.275,336.847c-41.632,145.433-215.17,99.446-256.802,244.878
				c-41.632,145.433,131.906,191.421,90.273,336.854s-215.17,99.446-256.803,244.879"/>
		</g>
		<g>
			<path fill="none" stroke="#2D376E" stroke-miterlimit="10" d="M1500.452-25.511c-43.33,145.428-216.361,97.703-259.691,243.131
				c-43.331,145.43,129.7,193.155,86.369,338.585c-43.332,145.433-216.362,97.708-259.694,243.142s129.699,193.157,86.367,338.591
				s-216.362,97.708-259.694,243.141"/>
		</g>
		<g>
			<path fill="none" stroke="#2D376E" stroke-miterlimit="10" d="M1517.183-24.65c-45.029,145.428-217.537,95.982-262.566,241.41
				c-45.03,145.43,127.478,194.876,82.448,340.306c-45.031,145.433-217.538,95.987-262.569,241.419
				c-45.031,145.433,127.477,194.88,82.446,340.313s-217.539,95.987-262.569,241.42"/>
		</g>
		<g>
			<path fill="none" stroke="#2D376E" stroke-miterlimit="10" d="M1533.906-23.796c-46.728,145.428-218.698,94.276-265.426,239.704
				c-46.729,145.43,125.24,196.582,78.511,342.012c-46.73,145.433-218.699,94.281-265.43,239.713
				c-46.73,145.433,125.239,196.586,78.509,342.019s-218.7,94.281-265.43,239.714"/>
		</g>
		<g>
			<path fill="none" stroke="#2D376E" stroke-miterlimit="10" d="M1550.622-22.952c-48.428,145.428-219.844,92.587-268.272,238.014
				c-48.428,145.43,122.988,198.271,74.56,343.702c-48.429,145.433-219.846,92.592-268.275,238.024
				c-48.429,145.433,122.987,198.275,74.558,343.708s-219.846,92.592-268.276,238.025"/>
		</g>
		<g>
			<path fill="none" stroke="#2D376E" stroke-miterlimit="10" d="M1567.331-22.115c-50.127,145.428-220.977,90.914-271.104,236.341
				c-50.128,145.43,120.722,199.945,70.595,345.375c-50.129,145.433-220.978,90.918-271.107,236.351
				c-50.129,145.433,120.721,199.948,70.592,345.381s-220.979,90.918-271.107,236.352"/>
		</g>
		<g>
			<path fill="none" stroke="#2D376E" stroke-miterlimit="10" d="M1584.034-21.287c-51.826,145.428-222.095,89.257-273.921,234.684
				c-51.827,145.43,118.442,201.601,66.615,347.032c-51.828,145.433-222.097,89.262-273.925,234.695s118.441,201.604,66.613,347.037
				s-222.097,89.262-273.925,234.695"/>
		</g>
		<g>
			<path fill="none" stroke="#2D376E" stroke-miterlimit="10" d="M1600.729-20.467c-53.525,145.428-223.201,87.617-276.726,233.045
				c-53.526,145.43,116.149,203.241,62.623,348.671c-53.527,145.433-223.203,87.622-276.73,233.055s116.148,203.243,62.621,348.677
				s-223.203,87.623-276.73,233.055"/>
		</g>
		<g>
			<path fill="none" stroke="#2D376E" stroke-miterlimit="10" d="M1617.419-19.656c-55.224,145.428-224.293,85.995-279.518,231.424
				c-55.225,145.43,113.844,204.863,58.618,350.293c-55.226,145.433-224.295,86-279.522,231.433
				c-55.227,145.433,113.842,204.866,58.616,350.299s-224.296,86.001-279.522,231.434"/>
		</g>
		<g>
			<path fill="none" stroke="#2D376E" stroke-miterlimit="10" d="M1634.102-18.854c-56.924,145.428-225.374,84.39-282.298,229.819
				c-56.925,145.43,111.526,206.468,54.601,351.897c-56.926,145.433-225.376,84.396-282.302,229.828
				c-56.926,145.433,111.524,206.471,54.599,351.904c-56.926,145.433-225.376,84.396-282.302,229.829"/>
		</g>
		<g>
			<path fill="none" stroke="#2D376E" stroke-miterlimit="10" d="M1650.779-18.061c-58.623,145.428-226.443,82.804-285.066,228.232
				c-58.624,145.43,109.196,208.054,50.572,353.484c-58.625,145.433-226.445,82.809-285.07,228.242s109.195,208.057,50.57,353.49
				s-226.445,82.81-285.07,228.243"/>
		</g>
		<g>
			<path fill="none" stroke="#2D376E" stroke-miterlimit="10" d="M1667.451-17.276c-60.322,145.428-227.5,81.235-287.823,226.663
				c-60.323,145.43,106.855,209.622,46.532,355.053c-60.324,145.433-227.503,81.24-287.827,226.673s106.854,209.626,46.53,355.06
				s-227.503,81.24-287.827,226.674"/>
		</g>
		<g>
			<path fill="none" stroke="#2D376E" stroke-miterlimit="10" d="M1684.118-16.501c-62.021,145.428-228.547,79.684-290.569,225.112
				c-62.022,145.43,104.504,211.173,42.482,356.604c-62.024,145.433-228.55,79.689-290.573,225.123
				c-62.024,145.433,104.502,211.176,42.479,356.61s-228.55,79.689-290.573,225.123"/>
		</g>
		<g>
			<path fill="none" stroke="#2D376E" stroke-miterlimit="10" d="M1700.779-15.735c-63.721,145.428-229.584,78.152-293.305,223.58
				c-63.722,145.43,102.142,212.706,38.421,358.137c-63.723,145.433-229.586,78.157-293.309,223.59
				c-63.723,145.433,102.141,212.709,38.418,358.142s-229.587,78.158-293.31,223.591"/>
		</g>
		<g>
			<path fill="none" stroke="#2D376E" stroke-miterlimit="10" d="M1717.435-14.977c-65.42,145.428-230.611,76.637-296.031,222.066
				c-65.421,145.43,99.771,214.221,34.35,359.65c-65.422,145.433-230.613,76.643-296.035,222.075
				c-65.422,145.433,99.769,214.223,34.347,359.657s-230.614,76.643-296.036,222.077"/>
		</g>
		<g>
			<path fill="none" stroke="#2D376E" stroke-miterlimit="10" d="M1734.087-14.23c-67.119,145.428-231.629,75.142-298.748,220.57
				c-67.12,145.43,97.39,215.716,30.27,361.146c-67.121,145.433-231.631,75.147-298.753,220.58
				c-67.121,145.433,97.388,215.719,30.267,361.152c-67.122,145.433-231.631,75.147-298.753,220.58"/>
		</g>
		<g>
			<path fill="none" stroke="#2D376E" stroke-miterlimit="10" d="M1750.735-13.492c-68.818,145.428-232.638,73.665-301.456,219.093
				c-68.819,145.43,95,217.193,26.181,362.623c-68.821,145.433-232.64,73.67-301.461,219.103s94.999,217.196,26.178,362.629
				s-232.64,73.67-301.461,219.103"/>
		</g>
	</g>
</g>
</svg>
