<?xml version="1.0" encoding="utf-8"?>
<!-- Generator: Adobe Illustrator 17.0.0, SVG Export Plug-In . SVG Version: 6.00 Build 0)  -->
<!DOCTYPE svg PUBLIC "-//W3C//DTD SVG 1.1//EN" "http://www.w3.org/Graphics/SVG/1.1/DTD/svg11.dtd">
<svg version="1.1" id="Layer_1" xmlns="http://www.w3.org/2000/svg" xmlns:xlink="http://www.w3.org/1999/xlink" x="0px" y="0px"
	 width="1827.445px" height="1331.53px" viewBox="0 0 1827.445 1331.53" enable-background="new 0 0 1827.445 1331.53"
	 xml:space="preserve">
<g opacity="0.75">
	<g>
		<g>
			<path fill="none" stroke="#6496C8" stroke-miterlimit="10" d="M552.952,1365.082c89.468-146.771,262.84-67.281,352.308-214.052
				c89.469-146.774-83.904-226.263,5.565-373.037c89.47-146.777,262.844-67.286,352.314-214.061
				c89.471-146.777-83.901-226.266,5.57-373.043s262.844-67.286,352.314-214.062"/>
		</g>
		<g>
			<path fill="none" stroke="#6496C8" stroke-miterlimit="10" d="M553.838,1355.867c87.502-145.689,261.437-67.127,348.936-212.815
				c87.503-145.691-86.432-224.252,1.071-369.943c87.504-145.694,261.439-67.132,348.943-212.825
				c87.504-145.694-86.43-224.255,1.075-369.949s261.439-67.132,348.944-212.826"/>
		</g>
		<g>
			<path fill="none" stroke="#6496C8" stroke-miterlimit="10" d="M554.72,1346.664c85.536-144.607,260.037-66.997,345.573-211.603
				c85.536-144.609-88.965-222.217-3.428-366.826c85.538-144.611,260.039-67.002,345.578-211.612
				c85.538-144.612-88.964-222.221-3.426-366.833s260.04-67.002,345.578-211.613"/>
		</g>
		<g>
			<path fill="none" stroke="#6496C8" stroke-miterlimit="10" d="M555.602,1337.473c83.57-143.525,258.644-66.89,342.212-210.415
				c83.57-143.527-91.504-220.16-7.934-363.687c83.571-143.529,258.646-66.894,342.218-210.423
				c83.572-143.53-91.502-220.163-7.931-363.692c83.571-143.529,258.647-66.896,342.219-210.425"/>
		</g>
		<g>
			<path fill="none" stroke="#6496C8" stroke-miterlimit="10" d="M556.48,1328.294c81.603-142.443,257.255-66.807,338.858-209.25
				c81.604-142.444-94.048-218.078-12.444-360.521c81.606-142.446,257.257-66.812,338.863-209.26
				c81.606-142.447-94.046-218.081-12.441-360.527s257.257-66.813,338.863-209.26"/>
		</g>
		<g>
			<path fill="none" stroke="#6496C8" stroke-miterlimit="10" d="M557.357,1319.128c79.636-141.359,255.871-66.75,335.507-208.111
				c79.638-141.361-96.598-215.969-16.959-357.332c79.638-141.362,255.874-66.754,335.513-208.12
				c79.64-141.364-96.596-215.972-16.955-357.338c79.639-141.364,255.874-66.756,335.512-208.122"/>
		</g>
		<g>
			<path fill="none" stroke="#6496C8" stroke-miterlimit="10" d="M558.23,1309.974c77.671-140.277,254.492-66.721,332.162-206.998
				c77.671-140.279-99.151-213.837-21.479-354.115c77.673-140.282,254.496-66.726,332.167-207.007
				c77.673-140.282-99.149-213.84-21.476-354.122s254.496-66.726,332.169-207.008"/>
		</g>
		<g>
			<path fill="none" stroke="#6496C8" stroke-miterlimit="10" d="M559.102,1300.835c75.704-139.195,253.118-66.716,328.821-205.911
				c75.705-139.197-101.709-211.674-26.004-350.872c75.707-139.2,253.121-66.721,328.828-205.921s-101.707-211.677-26-350.877
				s253.121-66.721,328.828-205.921"/>
		</g>
		<g>
			<path fill="none" stroke="#6496C8" stroke-miterlimit="10" d="M559.97,1291.709c73.738-138.113,251.748-66.741,325.486-204.853
				c73.739-138.115-104.271-209.487-30.532-347.601c73.74-138.117,251.75-66.745,325.49-204.863
				c73.741-138.118-104.269-209.49-30.529-347.607c73.74-138.117,251.75-66.746,325.49-204.864"/>
		</g>
		<g>
			<path fill="none" stroke="#6496C8" stroke-miterlimit="10" d="M560.838,1282.599c71.772-137.03,250.381-66.794,322.154-203.824
				c71.772-137.032-106.838-207.269-35.064-344.3c71.774-137.034,250.385-66.799,322.158-203.833
				c71.774-137.035-106.836-207.272-35.062-344.306s250.385-66.799,322.158-203.834"/>
		</g>
		<g>
			<path fill="none" stroke="#6496C8" stroke-miterlimit="10" d="M561.703,1273.501c69.806-135.948,249.02-66.876,318.824-202.824
				c69.807-135.95-109.407-205.022-39.602-340.972c69.808-135.952,249.022-66.88,318.83-202.833
				c69.808-135.953-109.406-205.025-39.599-340.977c69.808-135.953,249.022-66.881,318.831-202.835"/>
		</g>
		<g>
			<path fill="none" stroke="#6496C8" stroke-miterlimit="10" d="M562.567,1264.42c67.838-134.866,247.661-66.989,315.5-201.854
				c67.84-134.868-111.982-202.744-44.142-337.611c67.842-134.87,247.663-66.993,315.504-201.864s-111.98-202.747-44.138-337.617
				s247.663-66.994,315.504-201.864"/>
		</g>
		<g>
			<path fill="none" stroke="#6496C8" stroke-miterlimit="10" d="M563.428,1255.355c65.874-133.784,246.306-67.133,312.178-200.916
				c65.875-133.786-114.558-200.435-48.686-334.22c65.875-133.788,246.307-67.137,312.183-200.926
				c65.876-133.789-114.557-200.438-48.682-334.227c65.875-133.789,246.307-67.138,312.183-200.927"/>
		</g>
		<g>
			<path fill="none" stroke="#6496C8" stroke-miterlimit="10" d="M564.289,1246.306c63.906-132.701,244.952-67.312,308.859-200.013
				c63.908-132.703-117.138-198.093-53.231-330.796c63.909-132.705,244.955-67.316,308.863-200.021
				c63.91-132.706-117.136-198.096-53.229-330.802c63.909-132.705,244.955-67.316,308.864-200.022"/>
		</g>
		<g>
			<path fill="none" stroke="#6496C8" stroke-miterlimit="10" d="M565.148,1237.273c61.94-131.619,243.602-67.522,305.542-199.141
				c61.94-131.62-119.721-195.718-57.779-327.338c61.944-131.623,243.605-67.526,305.548-199.15
				c61.943-131.623-119.719-195.721-57.776-327.344c61.943-131.624,243.604-67.527,305.547-199.151"/>
		</g>
		<g>
			<path fill="none" stroke="#6496C8" stroke-miterlimit="10" d="M566.007,1228.258c59.974-130.536,242.252-67.768,302.227-198.304
				c59.976-130.538-122.304-193.307-62.329-323.846c59.977-130.54,242.255-67.772,302.232-198.313
				c59.976-130.541-122.302-193.31-62.327-323.851c59.975-130.541,242.255-67.773,302.232-198.313"/>
		</g>
		<g>
			<path fill="none" stroke="#6496C8" stroke-miterlimit="10" d="M566.864,1219.262c58.007-129.454,240.906-68.049,298.913-197.503
				c58.008-129.456-124.889-190.861-66.881-320.317c58.01-129.458,240.908-68.053,298.918-197.512
				c58.011-129.459-124.888-190.864-66.877-320.322s240.908-68.054,298.918-197.513"/>
		</g>
		<g>
			<path fill="none" stroke="#6496C8" stroke-miterlimit="10" d="M567.723,1210.284c56.041-128.371,239.56-68.368,295.601-196.739
				c56.042-128.373-127.475-188.378-71.432-316.751c56.043-128.375,239.561-68.372,295.605-196.748
				c56.043-128.376-127.474-188.381-71.43-316.757c56.044-128.376,239.561-68.372,295.605-196.748"/>
		</g>
		<g>
			<path fill="none" stroke="#6496C8" stroke-miterlimit="10" d="M568.579,1201.323c54.075-127.289,238.212-68.724,292.289-196.013
				c54.076-127.291-130.06-185.857-75.985-313.148c54.077-127.293,238.214-68.728,292.292-196.022
				c54.077-127.294-130.06-185.86-75.982-313.154c54.076-127.294,238.214-68.728,292.292-196.023"/>
		</g>
		<g>
			<path fill="none" stroke="#6496C8" stroke-miterlimit="10" d="M569.437,1192.384c52.109-126.207,236.865-69.12,288.975-195.327
				c52.11-126.209-132.646-183.296-80.536-309.505c52.111-126.212,236.867-69.124,288.978-195.336
				c52.111-126.212-132.645-183.299-80.535-309.511c52.111-126.212,236.867-69.124,288.978-195.336"/>
		</g>
		<g>
			<path fill="none" stroke="#6496C8" stroke-miterlimit="10" d="M570.296,1183.464c50.142-125.125,235.517-69.556,285.661-194.681
				c50.143-125.127-135.23-180.696-85.086-305.822c50.144-125.129,235.518-69.561,285.664-194.689
				c50.144-125.13-135.229-180.699-85.084-305.828c50.144-125.13,235.52-69.561,285.664-194.69"/>
		</g>
		<g>
			<path fill="none" stroke="#6496C8" stroke-miterlimit="10" d="M571.154,1174.565c48.177-124.043,234.167-70.034,282.344-194.077
				c48.177-124.044-137.812-178.053-89.635-302.097c48.178-124.046,234.168-70.038,282.346-194.085
				c48.178-124.047-137.811-178.056-89.633-302.102c48.179-124.047,234.168-70.038,282.347-194.086"/>
		</g>
		<g>
			<path fill="none" stroke="#6496C8" stroke-miterlimit="10" d="M572.016,1165.688c46.21-122.96,232.813-70.556,279.024-193.515
				c46.211-122.962-140.391-175.367-94.18-298.33c46.212-122.964,232.814-70.559,279.026-193.523
				c46.212-122.965-140.39-175.369-94.178-298.335c46.212-122.965,232.815-70.559,279.026-193.524"/>
		</g>
		<g>
			<path fill="none" stroke="#6496C8" stroke-miterlimit="10" d="M572.878,1156.834c44.245-121.878,231.455-71.12,275.698-192.999
				c44.245-121.88-142.966-172.637-98.721-294.517c44.246-121.882,231.457-71.125,275.704-193.007
				c44.245-121.883-142.965-172.64-98.72-294.522c44.245-121.883,231.458-71.125,275.703-193.008"/>
		</g>
		<g>
			<path fill="none" stroke="#6496C8" stroke-miterlimit="10" d="M573.744,1148.001c42.278-120.796,230.093-71.732,272.371-192.527
				c42.279-120.798-145.536-169.861-103.257-290.659c42.28-120.799,230.094-71.736,272.374-192.535
				c42.28-120.801-145.535-169.863-103.255-290.664s230.094-71.736,272.374-192.536"/>
		</g>
		<g>
			<path fill="none" stroke="#6496C8" stroke-miterlimit="10" d="M574.613,1139.192c40.312-119.714,228.723-72.39,269.037-192.103
				c40.312-119.714-148.1-167.038-107.787-286.754c40.313-119.717,228.726-72.394,269.039-192.111
				c40.313-119.717-148.098-167.041-107.785-286.759c40.313-119.717,228.726-72.394,269.039-192.112"/>
		</g>
		<g>
			<path fill="none" stroke="#6496C8" stroke-miterlimit="10" d="M575.484,1130.408c38.346-118.63,227.348-73.097,265.694-191.727
				c38.347-118.632-150.657-164.168-112.31-282.8c38.346-118.634,227.35-73.101,265.696-191.735
				c38.347-118.635-150.656-164.171-112.308-282.805c38.346-118.635,227.35-73.101,265.696-191.736"/>
		</g>
		<g>
			<path fill="none" stroke="#6496C8" stroke-miterlimit="10" d="M576.361,1121.648c36.379-117.548,225.963-73.852,262.342-191.401
				C875.083,812.696,685.5,769,721.879,651.45c36.381-117.552,225.964-73.857,262.345-191.409
				c36.381-117.553-153.204-161.25-116.823-278.802c36.381-117.552,225.964-73.857,262.345-191.41"/>
		</g>
		<g>
			<path fill="none" stroke="#6496C8" stroke-miterlimit="10" d="M577.243,1112.913c34.413-116.466,224.569-74.659,258.981-191.125
				c34.413-116.468-155.742-158.275-121.328-274.744c34.414-116.47,224.57-74.663,258.984-191.133
				c34.414-116.471-155.742-158.278-121.326-274.748c34.414-116.471,224.57-74.663,258.984-191.134"/>
		</g>
		<g>
			<path fill="none" stroke="#6496C8" stroke-miterlimit="10" d="M578.13,1104.205c32.447-115.384,223.163-75.519,255.61-190.902
				c32.448-115.386-158.269-155.251-125.821-270.637c32.447-115.387,223.163-75.522,255.609-190.91
				c32.448-115.388-158.268-155.254-125.819-270.642c32.448-115.387,223.164-75.522,255.612-190.911"/>
		</g>
		<g>
			<path fill="none" stroke="#6496C8" stroke-miterlimit="10" d="M579.024,1095.524c30.481-114.301,221.742-76.431,252.223-190.732
				c30.481-114.303-160.781-152.174-130.299-266.477c30.481-114.302,221.742-76.432,252.223-190.734
				c30.482-114.308-160.779-152.178-130.297-266.485C853.355,66.787,1044.618,104.657,1075.1-9.65"/>
		</g>
		<g>
			<path fill="none" stroke="#6496C8" stroke-miterlimit="10" d="M579.926,1086.871c28.514-113.219,220.307-77.4,248.822-190.62
				c28.515-113.221-163.279-149.04-134.764-262.262c28.514-113.22,220.307-77.4,248.823-190.62
				C971.324,330.145,779.53,294.325,808.046,181.1c28.516-113.225,220.31-77.406,248.826-190.631"/>
		</g>
		<g>
			<path fill="none" stroke="#6496C8" stroke-miterlimit="10" d="M580.835,1078.246c26.549-112.138,218.856-78.425,245.404-190.562
				c26.549-112.139-165.76-145.852-139.211-257.991c26.549-112.138,218.857-78.425,245.404-190.563
				c26.549-112.144-165.759-145.856-139.209-257.998c26.549-112.144,218.857-78.431,245.407-190.572"/>
		</g>
		<g>
			<path fill="none" stroke="#6496C8" stroke-miterlimit="10" d="M581.755,1069.648c24.582-111.056,217.386-79.506,241.967-190.562
				C848.304,768.03,655.5,736.481,680.083,625.425c24.582-111.056,217.386-79.507,241.969-190.563
				c24.584-111.06-168.221-142.608-143.637-253.669c24.584-111.06,217.387-79.512,241.97-190.572"/>
		</g>
		<g>
			<path fill="none" stroke="#6496C8" stroke-miterlimit="10" d="M582.684,1061.082c22.615-109.973,215.894-80.648,238.51-190.62
				c22.616-109.974-170.663-139.299-148.047-249.273c22.616-109.973,215.894-80.648,238.51-190.621
				c22.617-109.978-170.662-139.303-148.045-249.282c22.617-109.978,215.896-80.654,238.512-190.631"/>
		</g>
		<g>
			<path fill="none" stroke="#6496C8" stroke-miterlimit="10" d="M583.626,1052.545c20.65-108.891,214.38-81.849,235.03-190.739
				c20.65-108.891-173.079-135.933-152.431-244.826c20.65-108.891,214.38-81.85,235.03-190.74
				c20.65-108.895-173.078-135.937-152.429-244.833c20.65-108.895,214.38-81.854,235.031-190.75"/>
		</g>
		<g>
			<path fill="none" stroke="#6496C8" stroke-miterlimit="10" d="M584.58,1044.038c18.683-107.808,212.838-83.112,231.521-190.92
				c18.684-107.809-175.472-132.506-156.788-240.316c18.684-107.808,212.838-83.112,231.522-190.921
				c18.685-107.813-175.471-132.51-156.787-240.323C752.733,73.745,946.887,98.44,965.572-9.372"/>
		</g>
		<g>
			<path fill="none" stroke="#6496C8" stroke-miterlimit="10" d="M585.549,1035.563c16.717-106.726,211.269-84.436,227.987-191.162
				c16.718-106.727-177.835-129.016-161.119-235.745c16.717-106.726,211.269-84.436,227.987-191.163
				c16.718-106.73-177.835-129.02-161.116-235.752C736.006,75.01,930.559,97.301,947.277-9.43"/>
		</g>
		<g>
			<path fill="none" stroke="#6496C8" stroke-miterlimit="10" d="M586.534,1027.119c14.751-105.643,209.669-85.824,224.421-191.468
				S630.788,710.187,645.538,604.542c14.751-105.643,209.669-85.825,224.421-191.469
				c14.752-105.648-180.168-125.468-165.415-231.117C719.294,76.308,914.212,96.127,928.965-9.521"/>
		</g>
		<g>
			<path fill="none" stroke="#6496C8" stroke-miterlimit="10" d="M587.535,1018.708c12.785-104.561,208.035-87.276,220.819-191.837
				c12.785-104.562-182.466-121.847-169.681-226.409c12.785-104.561,208.035-87.277,220.819-191.838
				c12.786-104.566-182.465-121.851-169.68-226.417C702.598,77.64,897.848,94.924,910.633-9.642"/>
		</g>
		<g>
			<path fill="none" stroke="#6496C8" stroke-miterlimit="10" d="M588.555,1010.329c10.819-103.479,206.363-88.793,217.182-192.272
				c10.817-103.48-184.726-118.165-173.909-221.645c10.819-103.48,206.364-88.795,217.182-192.274
				c10.819-103.484-184.727-118.169-173.907-221.653C685.921,79.001,881.466,93.686,892.285-9.798"/>
		</g>
		<g>
			<path fill="none" stroke="#6496C8" stroke-miterlimit="10" d="M589.595,1001.981c8.853-102.397,204.651-90.377,213.504-192.773
				c8.853-102.398-186.947-114.417-178.096-216.816c8.853-102.397,204.651-90.377,213.504-192.774
				c8.853-102.401-186.947-114.421-178.095-216.824C669.264,80.393,865.064,92.413,873.916-9.989"/>
		</g>
		<g>
			<path fill="none" stroke="#6496C8" stroke-miterlimit="10" d="M590.656,993.668c6.885-101.314,202.896-92.026,209.781-193.341
				s-189.125-110.604-182.238-211.92c6.885-101.314,202.896-92.026,209.781-193.341c6.887-101.319-189.124-110.607-182.238-211.927
				C652.628,81.821,848.639,91.109,855.525-10.21"/>
		</g>
		<g>
			<path fill="none" stroke="#6496C8" stroke-miterlimit="10" d="M591.742,985.388c4.921-100.232,201.095-93.741,206.013-193.973
				c4.921-100.233-191.255-106.724-186.335-206.957c4.921-100.232,201.094-93.742,206.013-193.974
				c4.919-100.237-191.254-106.728-186.334-206.965S832.192,89.774,837.112-10.463"/>
		</g>
		<g>
			<path fill="none" stroke="#6496C8" stroke-miterlimit="10" d="M592.853,977.142c2.953-99.15,199.241-95.522,202.194-194.672
				C798,683.32,601.714,679.693,604.667,580.542c2.953-99.15,199.241-95.523,202.194-194.673
				c2.953-99.155-193.333-102.781-190.381-201.935c2.953-99.155,199.241-95.527,202.194-194.683"/>
		</g>
		<g>
			<path fill="none" stroke="#6496C8" stroke-miterlimit="10" d="M593.99,968.927c0.986-98.068,197.333-97.37,198.319-195.438
				c0.987-98.069-195.358-98.765-194.372-196.834c0.986-98.068,197.333-97.371,198.319-195.439
				c0.987-98.072-195.359-98.769-194.371-196.84c0.987-98.072,197.332-97.375,198.319-195.449"/>
		</g>
		<g>
			<path fill="none" stroke="#6496C8" stroke-miterlimit="10" d="M595.158,960.748c-0.979-96.984,195.367-99.285,194.388-196.271
				c-0.979-96.985-197.325-94.686-198.304-191.672c-0.979-96.986,195.367-99.285,194.387-196.271
				c-0.98-96.989-197.325-94.69-198.304-191.68c-0.98-96.989,195.366-99.29,194.387-196.279"/>
		</g>
		<g>
			<path fill="none" stroke="#6496C8" stroke-miterlimit="10" d="M596.357,952.599c-2.946-95.902,193.337-101.265,190.392-197.167
				c-2.946-95.904-199.228-90.542-202.174-186.445c-2.946-95.902,193.337-101.265,190.392-197.168
				c-2.946-95.907-199.228-90.546-202.175-186.453c-2.946-95.907,193.337-101.27,190.392-197.177"/>
		</g>
		<g>
			<path fill="none" stroke="#6496C8" stroke-miterlimit="10" d="M597.589,944.484c-4.912-94.82,191.243-103.308,186.331-198.128
				c-4.912-94.822-201.065-86.333-205.977-181.155s191.243-103.31,186.331-198.13c-4.912-94.825-201.065-86.336-205.977-181.161
				C553.385,91.084,749.539,82.596,744.627-12.229"/>
		</g>
		<g>
			<path fill="none" stroke="#6496C8" stroke-miterlimit="10" d="M598.856,936.399c-6.878-93.738,189.077-105.416,182.199-199.155
				c-6.878-93.74-202.833-82.061-209.71-175.801c-6.878-93.739,189.077-105.416,182.199-199.156
				c-6.879-93.742-202.833-82.065-209.711-175.808C536.954,92.737,732.91,81.059,726.031-12.683"/>
		</g>
		<g>
			<path fill="none" stroke="#6496C8" stroke-miterlimit="10" d="M600.16,928.346c-8.844-92.655,186.836-107.586,177.992-200.241
				c-8.844-92.657-204.525-77.728-213.368-170.384S751.62,450.136,742.776,357.481c-8.844-92.66-204.525-77.731-213.368-170.391
				C520.564,94.43,716.242,79.5,707.399-13.16"/>
		</g>
		<g>
			<path fill="none" stroke="#6496C8" stroke-miterlimit="10" d="M601.503,920.323C590.692,828.75,786.02,810.509,775.209,718.935
				c-10.811-91.575-206.137-73.333-216.947-164.908c-10.811-91.574,184.516-109.815,173.706-201.39
				c-10.811-91.578-206.137-73.337-216.948-164.915C504.208,96.144,699.536,77.902,688.725-13.676"/>
		</g>
		<g>
			<path fill="none" stroke="#6496C8" stroke-miterlimit="10" d="M602.89,912.328c-12.776-90.491,182.113-112.101,169.337-202.593
				c-12.776-90.493-207.666-68.881-220.444-159.374c-12.776-90.492,182.113-112.102,169.337-202.593
				c-12.777-90.496-207.667-68.885-220.444-159.381C487.898,97.89,682.79,76.28,670.012-14.215"/>
		</g>
		<g>
			<path fill="none" stroke="#6496C8" stroke-miterlimit="10" d="M604.319,904.363c-14.743-89.409,179.623-114.444,164.88-203.852
				C754.456,611.1,560.09,636.135,545.347,546.725c-14.743-89.41,179.623-114.444,164.88-203.853
				c-14.743-89.414-209.109-64.378-223.852-153.792C471.633,99.668,665.998,74.632,651.255-14.781"/>
		</g>
		<g>
			<path fill="none" stroke="#6496C8" stroke-miterlimit="10" d="M605.793,896.422c-16.708-88.327,177.041-116.838,160.333-205.164
				c-16.71-88.328-210.459-59.816-227.169-148.144c-16.708-88.328,177.041-116.839,160.333-205.165
				c-16.71-88.331-210.46-59.819-227.17-148.15C455.41,101.469,649.161,72.956,632.451-15.375"/>
		</g>
		<g>
			<path fill="none" stroke="#6496C8" stroke-miterlimit="10" d="M607.316,888.505c-18.675-87.244,174.365-119.281,155.69-206.525
				c-18.675-87.246-211.715-55.208-230.391-142.453c-18.675-87.245,174.365-119.281,155.69-206.526
				c-18.676-87.249-211.716-55.211-230.393-142.459C439.236,103.293,632.274,71.255,613.599-15.993"/>
		</g>
		<g>
			<path fill="none" stroke="#6496C8" stroke-miterlimit="10" d="M608.888,880.611c-20.642-86.162,171.588-121.77,150.947-207.932
				c-20.642-86.163-212.871-50.554-233.514-136.718c-20.642-86.162,171.588-121.77,150.947-207.932
				c-20.642-86.166-212.872-50.558-233.515-136.725c-20.642-86.166,171.588-121.774,150.946-207.94"/>
		</g>
		<g>
			<path fill="none" stroke="#6496C8" stroke-miterlimit="10" d="M610.512,872.738c-22.607-85.079,168.71-124.299,146.103-209.379
				c-22.607-85.081-213.926-45.861-236.534-130.942c-22.607-85.08,168.71-124.299,146.103-209.38
				c-22.609-85.083-213.926-45.864-236.535-130.949c-22.609-85.083,168.709-124.303,146.1-209.386"/>
		</g>
		<g>
			<path fill="none" stroke="#6496C8" stroke-miterlimit="10" d="M612.188,864.884c-24.574-83.997,165.726-126.864,141.152-210.861
				c-24.574-83.998-214.874-41.132-239.448-125.13c-24.574-83.997,165.725-126.864,141.151-210.862
				c-24.574-84.001-214.874-41.135-239.449-125.136c-24.576-84.001,165.724-126.869,141.15-210.87"/>
		</g>
		<g>
			<path fill="none" stroke="#6496C8" stroke-miterlimit="10" d="M613.918,857.045c-26.54-82.914,162.632-129.46,136.093-212.376
				c-26.541-82.916-215.713-36.37-242.254-119.286c-26.54-82.915,162.632-129.461,136.093-212.376
				c-26.541-82.919-215.714-36.373-242.255-119.292S564.224,64.248,537.683-18.671"/>
		</g>
		<g>
			<path fill="none" stroke="#6496C8" stroke-miterlimit="10" d="M615.705,849.218c-28.506-81.832,159.427-132.084,130.922-213.916
				c-28.506-81.834-216.441-31.583-244.949-113.416c-28.506-81.833,159.427-132.084,130.921-213.917
				c-28.508-81.837-216.442-31.586-244.95-113.423C359.141,112.708,547.075,62.458,518.567-19.379"/>
		</g>
		<g>
			<path fill="none" stroke="#6496C8" stroke-miterlimit="10" d="M617.549,841.401c-30.472-80.75,156.111-134.726,125.639-215.476
				c-30.473-80.752-217.056-26.776-247.53-107.527c-30.472-80.751,156.111-134.726,125.639-215.476
				c-30.474-80.755-217.057-26.78-247.532-107.533C343.29,114.635,529.873,60.66,499.399-20.095"/>
		</g>
		<g>
			<path fill="none" stroke="#6496C8" stroke-miterlimit="10" d="M619.448,833.592c-32.439-79.668,152.678-137.383,120.239-217.05
				c-32.439-79.669-217.556-21.954-249.995-101.624c-32.439-79.668,152.678-137.384,120.239-217.051
				c-32.44-79.672-217.557-21.957-249.997-101.629C327.494,116.565,512.61,58.849,480.169-20.822"/>
		</g>
		<g>
			<path fill="none" stroke="#6496C8" stroke-miterlimit="10" d="M621.407,825.787c-34.404-78.586,149.129-140.047,114.724-218.632
				c-34.405-78.587-217.94-17.125-252.345-95.712c-34.405-78.586,149.128-140.048,114.724-218.633
				c-34.407-78.59-217.941-17.128-252.347-95.718C311.754,118.501,495.289,57.04,460.883-21.55"/>
		</g>
		<g>
			<path fill="none" stroke="#6496C8" stroke-miterlimit="10" d="M623.424,817.982c-36.371-77.504,145.464-142.714,109.092-220.217
				c-36.371-77.505-218.206-12.294-254.578-89.799c-36.371-77.504,145.463-142.714,109.091-220.217
				c-36.372-77.508-218.207-12.298-254.581-89.805C296.074,120.437,477.908,55.227,441.536-22.28"/>
		</g>
		<g>
			<path fill="none" stroke="#6496C8" stroke-miterlimit="10" d="M625.5,810.175c-38.338-76.422,141.68-145.374,103.342-221.795
				c-38.338-76.423-218.356-7.469-256.694-83.891c-38.338-76.422,141.68-145.374,103.341-221.796
				c-38.34-76.426-218.357-7.472-256.696-83.897c-38.34-76.426,141.679-145.378,103.339-221.802"/>
		</g>
		<g>
			<path fill="none" stroke="#6496C8" stroke-miterlimit="10" d="M627.633,802.359c-40.303-75.339,137.781-148.022,97.477-223.36
				c-40.305-75.339-218.388-2.657-258.693-77.997c-40.303-75.339,137.781-148.022,97.476-223.361
				c-40.307-75.342-218.391-2.66-258.696-78.003S442.976,51.612,402.67-23.73"/>
		</g>
		<g>
			<path fill="none" stroke="#6496C8" stroke-miterlimit="10" d="M629.825,794.537c-42.271-74.256,133.766-150.65,91.496-224.907
				c-42.27-74.257-218.307,2.137-260.577-72.121c-42.27-74.256,133.766-150.651,91.495-224.908
				c-42.273-74.26-218.308,2.134-260.58-72.127c-42.272-74.26,133.764-150.655,91.492-224.914"/>
		</g>
		<g>
			<path fill="none" stroke="#6496C8" stroke-miterlimit="10" d="M632.073,786.7c-44.237-73.174,129.637-153.253,85.402-226.426
				c-44.238-73.175-218.111,6.903-262.348-66.272c-44.237-73.174,129.637-153.253,85.402-226.427
				c-44.239-73.178-218.112,6.9-262.352-66.277C233.938,128.12,407.811,48.041,363.573-25.136"/>
		</g>
		<g>
			<path fill="none" stroke="#6496C8" stroke-miterlimit="10" d="M634.378,778.847c-46.203-72.092,125.398-155.821,79.196-227.913
				c-46.203-72.093-217.803,11.636-264.008-60.457c-46.203-72.092,125.399-155.821,79.196-227.913
				c-46.205-72.096-217.807,11.633-264.01-60.462c-46.205-72.096,125.396-155.824,79.191-227.921"/>
		</g>
		<g>
			<path fill="none" stroke="#6496C8" stroke-miterlimit="10" d="M636.735,770.974c-48.169-71.01,121.051-158.35,72.882-229.358
				c-48.17-71.01-217.39,16.33-265.56-54.681c-48.17-71.009,121.051-158.35,72.882-229.359
				c-48.171-71.013-217.391,16.327-265.563-54.687c-48.171-71.013,121.05-158.353,72.878-229.366"/>
		</g>
		<g>
			<path fill="none" stroke="#6496C8" stroke-miterlimit="10" d="M639.144,763.076c-50.135-69.927,116.599-160.83,66.465-230.758
				c-50.136-69.928-216.87,20.975-267.005-48.954c-50.136-69.927,116.599-160.83,66.465-230.758
				c-50.138-69.931-216.872,20.972-267.01-48.959s116.597-160.834,66.46-230.764"/>
		</g>
		<g>
			<path fill="none" stroke="#6496C8" stroke-miterlimit="10" d="M641.605,755.152c-52.101-68.845,112.048-163.258,59.946-232.103
				c-52.102-68.846-216.251,25.567-268.353-43.279c-52.102-68.845,112.048-163.258,59.945-232.104
				c-52.104-68.849-216.252,25.565-268.357-43.284C172.682,135.533,336.83,41.12,284.727-27.728"/>
		</g>
		<g>
			<path fill="none" stroke="#6496C8" stroke-miterlimit="10" d="M644.113,747.198c-54.068-67.763,107.4-165.626,53.332-233.389
				c-54.069-67.764-215.536,30.099-269.604-37.664c-54.068-67.763,107.4-165.626,53.331-233.389
				c-54.07-67.767-215.538,30.097-269.607-37.669S318.962,39.458,264.892-28.309"/>
		</g>
		<g>
			<path fill="none" stroke="#6496C8" stroke-miterlimit="10" d="M646.666,739.211c-56.034-66.681,102.662-167.928,46.629-234.608
				c-56.034-66.682-214.73,34.566-270.765-32.115c-56.034-66.681,102.662-167.928,46.628-234.609
				c-56.037-66.684-214.732,34.564-270.769-32.12c-56.037-66.684,102.659-167.931,46.623-234.615"/>
		</g>
		<g>
			<path fill="none" stroke="#6496C8" stroke-miterlimit="10" d="M649.262,731.189c-58-65.598,97.84-170.158,39.84-235.756
				c-58.001-65.599-213.84,38.962-271.841-26.638c-58-65.598,97.839-170.158,39.84-235.757
				c-58.003-65.602-213.842,38.959-271.846-26.642c-58.003-65.602,97.837-170.162,39.833-235.762"/>
		</g>
		<g>
			<path fill="none" stroke="#6496C8" stroke-miterlimit="10" d="M651.896,723.128c-59.967-64.516,92.94-172.313,32.973-236.829
				c-59.967-64.517-212.872,43.281-272.839-21.236c-59.967-64.516,92.938-172.313,32.973-236.83
				c-59.969-64.52-212.875,43.278-272.844-21.24c-59.969-64.52,92.936-172.316,32.967-236.835"/>
		</g>
		<g>
			<path fill="none" stroke="#6496C8" stroke-miterlimit="10" d="M654.566,715.027c-61.932-63.433,87.966-174.387,26.034-237.821
				c-61.933-63.434-211.832,47.518-273.766-15.915c-61.932-63.433,87.966-174.387,26.034-237.82
				c-61.936-63.437-211.833,47.516-273.769-15.92c-61.936-63.437,87.963-174.39,26.027-237.826"/>
		</g>
		<g>
			<path fill="none" stroke="#6496C8" stroke-miterlimit="10" d="M657.27,706.884c-63.899-62.351,82.928-176.376,19.03-238.726
				c-63.9-62.352-210.727,51.672-274.626-10.68s82.928-176.375,19.029-238.727c-63.902-62.354-210.729,51.67-274.63-10.685
				c-63.902-62.354,82.924-176.378,19.023-238.733"/>
		</g>
		<g>
			<path fill="none" stroke="#6496C8" stroke-miterlimit="10" d="M660.003,698.697c-65.865-61.268,77.832-178.275,11.966-239.544
				s-209.562,55.737-275.428-5.533c-65.866-61.268,77.831-178.276,11.966-239.545c-65.868-61.272-209.564,55.735-275.432-5.537
				c-65.868-61.272,77.829-178.279,11.96-239.55"/>
		</g>
		<g>
			<path fill="none" stroke="#6496C8" stroke-miterlimit="10" d="M662.76,690.463c-67.831-60.186,72.684-180.083,4.852-240.269
				c-67.832-60.187-208.347,59.71-276.179-0.477c-67.831-60.186,72.683-180.084,4.852-240.27
				c-67.835-60.19-208.349,59.708-276.184-0.482s72.679-180.087,4.846-240.275"/>
		</g>
		<g>
			<path fill="none" stroke="#6496C8" stroke-miterlimit="10" d="M665.541,682.182c-69.797-59.104,67.49-181.799-2.306-240.903
				c-69.798-59.105-207.088,63.589-276.884,4.484c-69.798-59.105,67.49-181.799-2.307-240.903
				c-69.8-59.107-207.09,63.587-276.89,4.48s67.487-181.801-2.314-240.908"/>
		</g>
	</g>
</g>
</svg>
