<?xml version="1.0" encoding="utf-8"?>
<!-- Generator: Adobe Illustrator 17.0.0, SVG Export Plug-In . SVG Version: 6.00 Build 0)  -->
<!DOCTYPE svg PUBLIC "-//W3C//DTD SVG 1.1//EN" "http://www.w3.org/Graphics/SVG/1.1/DTD/svg11.dtd">
<svg version="1.1" id="Layer_1" xmlns="http://www.w3.org/2000/svg" xmlns:xlink="http://www.w3.org/1999/xlink" x="0px" y="0px"
	 width="1827.445px" height="1331.53px" viewBox="0 0 1827.445 1331.53" enable-background="new 0 0 1827.445 1331.53"
	 xml:space="preserve">
<g opacity="0.75">
	<g>
		<g>
			<path fill="none" stroke="#6496C8" stroke-miterlimit="10" d="M599.402-5.619c-48.714,92.248-170.849,19.64-219.563,111.887
				c-48.713,92.247,73.422,164.854,24.709,257.101c-48.715,92.251-170.851,19.644-219.566,111.895s3.272,98.619,30.895,200.22
				c35.28,129.768-14.88,164.352,82.547,251.271c97.426,86.919,187.526-26.774,284.952,60.146
				c97.431,86.923,7.331,200.615,104.761,287.539s187.531-26.769,284.962,60.154"/>
		</g>
		<g>
			<path fill="none" stroke="#6496C8" stroke-miterlimit="10" d="M611.69-5.822C563.158,86.76,440.809,14.559,392.277,107.14
				c-48.531,92.581,73.818,164.782,25.287,257.363c-48.533,92.585-170.883,20.384-219.416,112.97s4.07,99.033,31.429,200.921
				c34.658,129.072-15.839,163.682,80.805,250.268c96.643,86.584,186.966-26.909,283.609,59.677
				c96.647,86.589,6.325,200.082,102.972,286.671s186.97-26.904,283.617,59.684"/>
		</g>
		<g>
			<path fill="none" stroke="#6496C8" stroke-miterlimit="10" d="M623.977-6.024c-48.35,92.916-170.911,21.121-219.26,114.036
				s74.212,164.711,25.862,257.627c-48.352,92.92-170.912,21.124-219.264,114.043s4.869,99.448,31.961,201.623
				c34.04,128.373-16.797,163.011,79.063,249.263c95.86,86.25,186.407-27.04,282.267,59.21
				c95.864,86.254,5.316,199.545,101.18,285.801c95.864,86.255,186.412-27.037,282.276,59.217"/>
		</g>
		<g>
			<path fill="none" stroke="#6496C8" stroke-miterlimit="10" d="M636.263-6.227c-48.168,93.251-170.938,21.859-219.106,115.11
				c-48.167,93.25,74.603,164.641,26.436,257.891c-48.17,93.254-170.94,21.862-219.11,115.116s5.667,99.864,32.492,202.325
				c33.425,127.673-17.757,162.339,77.321,248.256c95.076,85.916,185.852-27.169,280.928,58.746
				c95.081,85.92,4.305,199.006,99.386,284.926s185.856-27.165,280.937,58.755"/>
		</g>
		<g>
			<path fill="none" stroke="#6496C8" stroke-miterlimit="10" d="M648.549-6.429c-47.986,93.585-170.964,22.596-218.95,116.181
				c-47.986,93.584,74.993,164.571,27.007,258.155c-47.988,93.588-170.966,22.601-218.954,116.189s6.467,100.28,33.022,203.029
				c32.815,126.971-18.717,161.663,75.577,247.247c94.293,85.582,185.298-27.296,279.591,58.287
				c94.297,85.586,3.292,198.464,97.589,284.05s185.303-27.292,279.6,58.294"/>
		</g>
		<g>
			<path fill="none" stroke="#6496C8" stroke-miterlimit="10" d="M660.833-6.63c-47.804,93.919-170.988,23.334-218.792,117.253
				c-47.804,93.918,75.381,164.503,27.577,258.42c-47.806,93.922-170.99,23.337-218.796,117.259s7.266,100.697,33.549,203.733
				c32.209,126.267-19.677,160.986,73.833,246.234c93.51,85.247,184.748-27.418,278.257,57.83
				c93.514,85.252,2.276,197.918,95.79,283.17s184.752-27.415,278.266,57.838"/>
		</g>
		<g>
			<path fill="none" stroke="#6496C8" stroke-miterlimit="10" d="M673.116-6.831c-47.622,94.253-171.01,24.07-218.632,118.324
				c-47.622,94.252,75.766,164.435,28.145,258.688c-47.624,94.256-171.012,24.073-218.636,118.33s8.065,101.115,34.075,204.439
				c31.608,125.561-20.638,160.306,72.089,245.22c92.726,84.913,184.2-27.538,276.926,57.377
				c92.731,84.917,1.258,197.369,93.988,282.287s184.204-27.533,276.935,57.384"/>
		</g>
		<g>
			<path fill="none" stroke="#6496C8" stroke-miterlimit="10" d="M685.398-7.031c-47.44,94.588-171.03,24.806-218.47,119.393
				c-47.44,94.586,76.15,164.368,28.71,258.954c-47.442,94.591-171.032,24.809-218.474,119.399s8.865,101.533,34.6,205.146
				c31.01,124.852-21.6,159.624,70.344,244.204c91.943,84.58,183.654-27.653,275.597,56.926
				c91.947,84.583,0.236,196.817,92.184,281.4c91.947,84.583,183.658-27.649,275.606,56.934"/>
		</g>
		<g>
			<path fill="none" stroke="#6496C8" stroke-miterlimit="10" d="M697.679-7.232C650.421,87.69,526.631,18.308,479.372,113.23
				c-47.258,94.921,76.532,164.302,29.274,259.222c-47.26,94.925-171.05,25.543-218.31,120.468s9.665,101.952,35.123,205.853
				c30.417,124.142-22.563,158.939,68.598,243.185c91.16,84.246,183.111-27.766,274.271,56.479
				c91.164,84.249-0.787,196.26,90.377,280.51s183.115-27.762,274.28,56.487"/>
		</g>
		<g>
			<path fill="none" stroke="#6496C8" stroke-miterlimit="10" d="M709.96-7.431c-47.076,95.256-171.064,26.274-218.141,121.529
				c-47.076,95.255,76.912,164.237,29.836,259.492c-47.078,95.259-171.066,26.277-218.144,121.536s10.465,102.372,35.644,206.562
				c29.829,123.429-23.526,158.252,66.851,242.163s182.571-27.875,272.948,56.037c90.381,83.915-1.814,195.7,88.567,279.616
				c90.381,83.915,182.575-27.871,272.956,56.044"/>
		</g>
		<g>
			<path fill="none" stroke="#6496C8" stroke-miterlimit="10" d="M722.239-7.631c-46.895,95.59-171.079,27.006-217.973,122.596
				c-46.894,95.589,77.29,164.173,30.396,259.761c-46.896,95.593-171.08,27.009-217.977,122.603s11.265,102.792,36.164,207.272
				c29.244,122.715-24.49,157.562,65.104,241.141c89.593,83.577,182.034-27.98,271.627,55.596
				c89.597,83.581-2.843,195.138,86.754,278.719s182.038-27.976,271.635,55.605"/>
		</g>
		<g>
			<path fill="none" stroke="#6496C8" stroke-miterlimit="10" d="M734.518-7.829c-46.713,95.924-171.091,27.738-217.804,123.662
				c-46.712,95.923,77.666,164.11,30.954,260.033c-46.714,95.928-171.093,27.741-217.807,123.669s12.066,103.214,36.682,207.984
				c28.664,121.999-25.455,156.87,63.356,240.115c88.81,83.243,181.499-28.082,270.309,55.161
				c88.814,83.246-3.875,194.57,84.939,277.818s181.503-28.078,270.317,55.169"/>
		</g>
		<g>
			<path fill="none" stroke="#6496C8" stroke-miterlimit="10" d="M746.795-8.028c-46.531,96.259-171.102,28.469-217.632,124.727
				s78.041,164.047,31.51,260.305c-46.532,96.262-171.103,28.472-217.636,124.734s12.867,103.636,37.198,208.696
				c28.088,121.281-26.421,156.176,61.607,239.085c88.027,82.909,180.968-28.18,268.994,54.728
				c88.031,82.912-4.91,194,83.121,276.913c88.031,82.912,180.972-28.175,269.002,54.737"/>
		</g>
		<g>
			<path fill="none" stroke="#6496C8" stroke-miterlimit="10" d="M759.072-8.226c-46.349,96.593-171.11,29.199-217.459,125.791
				c-46.348,96.592,78.413,163.985,32.065,260.577c-46.35,96.596-171.112,29.202-217.463,125.798S369.884,608,393.928,713.349
				c27.517,120.561-27.387,155.479,59.857,238.054c87.243,82.575,180.439-28.274,267.682,54.301
				c87.247,82.578-5.948,193.426,81.299,276.003c87.247,82.578,180.443-28.27,267.69,54.308"/>
		</g>
		<g>
			<path fill="none" stroke="#6496C8" stroke-miterlimit="10" d="M771.347-8.423C725.18,88.504,600.23,21.505,554.063,118.432
				c-46.166,96.926,78.784,163.925,32.617,260.851c-46.169,96.93-171.119,29.931-217.288,126.862s14.47,104.483,38.227,210.123
				c26.95,119.84-28.354,154.78,58.107,237.021c86.46,82.239,179.913-28.363,266.373,53.876
				c86.464,82.244-6.989,192.847,79.475,275.091s179.917-28.36,266.381,53.884"/>
		</g>
		<g>
			<path fill="none" stroke="#6496C8" stroke-miterlimit="10" d="M783.622-8.62C737.637,88.642,612.5,22.036,566.515,119.296
				s79.153,163.866,33.168,261.126c-45.987,97.264-171.124,30.659-217.111,127.924s15.272,104.908,38.738,210.838
				c26.387,119.116-29.322,154.078,56.356,235.985c85.677,81.905,179.39-28.449,265.066,53.456
				c85.681,81.909-8.032,192.265,77.648,274.174s179.394-28.446,265.074,53.464"/>
		</g>
		<g>
			<path fill="none" stroke="#6496C8" stroke-miterlimit="10" d="M795.896-8.816C750.093,88.78,624.771,22.567,578.968,120.162
				c-45.803,97.594,79.52,163.806,33.717,261.401c-45.805,97.599-171.127,31.386-216.932,128.986s16.074,105.333,39.248,211.554
				c25.829,118.39-30.291,153.373,54.604,234.945c84.893,81.571,178.87-28.532,263.763,53.04
				c84.897,81.575-9.079,191.678,75.818,273.253s178.874-28.527,263.771,53.048"/>
		</g>
		<g>
			<path fill="none" stroke="#6496C8" stroke-miterlimit="10" d="M808.169-9.012c-45.621,97.93-171.127,32.108-216.748,130.038
				c-45.621,97.929,79.885,163.749,34.264,261.678c-45.623,97.933-171.128,32.113-216.751,130.046s16.877,105.76,39.757,212.271
				c25.276,117.664-31.26,152.665,52.851,233.904c84.11,81.237,178.353-28.609,262.463,52.629
				c84.114,81.241-10.129,191.087,73.985,272.328s178.357-28.605,262.471,52.636"/>
		</g>
		<g>
			<path fill="none" stroke="#6496C8" stroke-miterlimit="10" d="M820.441-9.208C775.002,89.056,649.315,23.626,603.875,121.89
				c-45.439,98.263,80.248,163.693,34.809,261.954c-45.441,98.267-171.128,32.837-216.569,131.105s17.68,106.188,40.264,212.991
				c24.727,116.935-32.231,151.956,51.097,232.859c83.327,80.902,177.839-28.682,261.166,52.221
				c83.331,80.907-11.182,190.492,72.149,271.398c83.331,80.907,177.843-28.678,261.174,52.229"/>
		</g>
		<g>
			<path fill="none" stroke="#6496C8" stroke-miterlimit="10" d="M832.712-9.403c-45.257,98.598-171.124,33.559-216.381,132.156
				s80.61,163.636,35.353,262.233c-45.259,98.601-171.126,33.562-216.385,132.163s18.483,106.615,40.769,213.71
				c24.182,116.205-33.202,151.243,49.343,231.812c82.544,80.569,177.328-28.751,259.872,51.818
				c82.547,80.573-12.237,189.892,70.31,270.465s177.332-28.747,259.88,51.825"/>
		</g>
		<g>
			<path fill="none" stroke="#6496C8" stroke-miterlimit="10" d="M844.982-9.597c-45.076,98.932-171.12,34.281-216.195,133.214
				c-45.075,98.931,80.969,163.581,35.894,262.513c-45.077,98.936-171.122,34.286-216.199,133.221s19.286,107.045,41.273,214.43
				c23.642,115.473-34.174,150.526,47.587,230.763c81.76,80.234,176.821-28.815,258.581,51.419
				c81.764,80.238-13.297,189.289,68.467,269.527s176.825-28.812,258.589,51.427"/>
		</g>
		<g>
			<path fill="none" stroke="#6496C8" stroke-miterlimit="10" d="M857.251-9.791c-44.893,99.267-171.114,35.004-216.007,134.27
				s81.328,163.528,36.434,262.793c-44.895,99.27-171.116,35.007-216.011,134.277s20.09,107.476,41.775,215.152
				c23.107,114.739-35.147,149.808,45.831,229.709c80.977,79.901,176.317-28.875,257.294,51.025
				c80.981,79.904-14.359,188.68,66.622,268.584s176.32-28.871,257.301,51.033"/>
		</g>
		<g>
			<path fill="none" stroke="#6496C8" stroke-miterlimit="10" d="M869.52-9.985C824.808,89.616,698.413,25.74,653.702,125.34
				s81.684,163.475,36.973,263.075c-44.713,99.604-171.108,35.729-215.822,135.333s20.894,107.906,42.275,215.875
				c22.576,114.004-36.121,149.087,44.074,228.653c80.194,79.566,175.816-28.93,256.009,50.636
				c80.197,79.57-15.425,188.066,64.773,267.636s175.819-28.927,256.017,50.643"/>
		</g>
		<g>
			<path fill="none" stroke="#6496C8" stroke-miterlimit="10" d="M881.788-10.177c-44.53,99.935-171.097,36.445-215.627,136.38
				c-44.529,99.934,82.038,163.423,37.509,263.357c-44.531,99.938-171.099,36.449-215.631,136.387s21.699,108.338,42.774,216.598
				c22.05,113.268-37.096,148.362,42.315,227.596c79.41,79.232,175.318-28.98,254.728,50.252
				c79.414,79.236-16.494,187.448,62.92,266.683c79.414,79.236,175.322-28.976,254.736,50.259"/>
		</g>
		<g>
			<path fill="none" stroke="#6496C8" stroke-miterlimit="10" d="M894.054-10.37C849.706,89.899,722.968,26.794,678.62,127.063
				c-44.347,100.268,82.391,163.372,38.044,263.64c-44.35,100.272-171.088,37.168-215.438,137.441s22.504,108.771,43.271,217.323
				c21.529,112.53-38.072,147.635,40.556,226.533c78.627,78.898,174.824-29.025,253.451,49.873
				c78.631,78.901-17.566,186.824,61.065,265.725s174.827-29.021,253.458,49.88"/>
		</g>
		<g>
			<path fill="none" stroke="#6496C8" stroke-miterlimit="10" d="M906.32-10.562C862.154,90.041,735.246,27.32,691.08,127.924
				c-44.166,100.602,82.742,163.322,38.577,263.925c-44.168,100.607-171.075,37.887-215.243,138.493s23.309,109.206,43.767,218.049
				c21.012,111.791-39.048,146.904,38.796,225.468s174.333-29.064,252.177,49.499c77.847,78.567-18.642,186.196,59.205,264.763
				s174.337-29.061,252.184,49.506"/>
		</g>
		<g>
			<path fill="none" stroke="#6496C8" stroke-miterlimit="10" d="M918.585-10.753c-43.984,100.938-171.059,38.6-215.043,139.538
				c-43.984,100.937,83.092,163.274,39.108,264.21c-43.986,100.941-171.061,38.604-215.047,139.545s24.115,109.641,44.261,218.775
				c20.5,111.05-40.026,146.17,37.035,224.401c77.06,78.23,173.846-29.099,250.906,49.13
				c77.064,78.233-19.721,185.561,57.343,263.794s173.849-29.095,250.913,49.138"/>
		</g>
		<g>
			<path fill="none" stroke="#6496C8" stroke-miterlimit="10" d="M930.849-10.944C887.047,90.328,759.806,28.372,716.003,129.644
				c-43.802,101.271,83.439,163.226,39.638,264.497c-43.804,101.275-171.045,39.32-214.849,140.595s24.921,110.077,44.753,219.503
				c19.993,110.308-41.005,145.434,35.273,223.329c76.277,77.896,173.362-29.128,249.639,48.766
				c76.281,77.899-20.804,184.922,55.477,262.821s173.365-29.125,249.646,48.774"/>
		</g>
		<g>
			<path fill="none" stroke="#6496C8" stroke-miterlimit="10" d="M943.113-11.135c-43.62,101.606-171.026,40.031-214.646,141.637
				c-43.62,101.605,83.785,163.179,40.166,264.784c-43.622,101.609-171.027,40.035-214.649,141.645s25.727,110.514,45.244,220.231
				c19.49,109.565-41.985,144.693,33.51,222.255c75.494,77.56,172.882-29.152,248.376,48.409
				c75.497,77.565-21.891,184.277,53.607,261.842c75.497,77.565,172.885-29.148,248.383,48.415"/>
		</g>
		<g>
			<path fill="none" stroke="#6496C8" stroke-miterlimit="10" d="M955.375-11.325C911.937,90.615,784.369,29.42,740.93,131.36
				c-43.438,101.939,84.13,163.133,40.692,265.073c-43.44,101.944-171.008,40.749-214.448,142.693s26.534,110.953,45.734,220.961
				c18.993,108.82-42.966,143.95,31.745,221.177s172.405-29.171,247.116,48.057c74.714,77.23-22.981,183.627,51.733,260.857
				c74.714,77.23,172.409-29.167,247.123,48.063"/>
		</g>
		<g>
			<path fill="none" stroke="#6496C8" stroke-miterlimit="10" d="M967.637-11.514C924.381,90.76,796.652,29.944,753.396,132.219
				c-43.256,102.274,84.473,163.089,41.217,265.362c-43.258,102.278-170.987,41.462-214.245,143.74s27.341,111.392,46.221,221.692
				c18.5,108.074-43.948,143.203,29.98,220.096c73.927,76.893,171.932-29.183,245.86,47.71
				c73.931,76.896-24.074,182.971,49.856,259.868c73.93,76.896,171.936-29.179,245.866,47.717"/>
		</g>
		<g>
			<path fill="none" stroke="#6496C8" stroke-miterlimit="10" d="M979.898-11.703c-43.075,102.609-170.962,42.17-214.037,144.779
				c-43.074,102.608,84.814,163.045,41.74,265.653c-43.076,102.612-170.964,42.174-214.04,144.786s28.148,111.832,46.708,222.424
				c18.012,107.327-44.931,142.452,28.214,219.012c73.144,76.559,171.463-29.189,244.607,47.369
				c73.147,76.562-25.172,182.309,47.975,258.871s171.467-29.185,244.614,47.376"/>
		</g>
		<g>
			<path fill="none" stroke="#6496C8" stroke-miterlimit="10" d="M992.158-11.892C949.265,91.051,821.22,30.989,778.327,133.932
				c-42.892,102.942,85.153,163.003,42.261,265.945c-42.894,102.946-170.94,42.885-213.834,145.831s28.956,112.274,47.192,223.156
				c17.528,106.578-45.915,141.699,26.446,217.923s170.998-29.19,243.359,47.035c72.364,76.228-26.273,181.641,46.091,257.869
				s171.001-29.185,243.365,47.041"/>
		</g>
		<g>
			<path fill="none" stroke="#6496C8" stroke-miterlimit="10" d="M1004.417-12.08C961.706,91.198,833.505,31.511,790.794,134.788
				c-42.71,103.276,85.491,162.962,42.781,266.238c-42.712,103.28-170.914,43.595-213.626,146.876
				c-42.712,103.28,29.764,112.717,47.675,223.89c17.05,105.829-46.901,140.941,24.677,216.832
				c71.577,75.89,170.536-29.183,242.114,46.706c71.581,75.894-27.378,180.967,44.202,256.861s170.54-29.18,242.12,46.713"/>
		</g>
		<g>
			<path fill="none" stroke="#6496C8" stroke-miterlimit="10" d="M1016.676-12.267c-42.529,103.611-170.884,44.3-213.413,147.911
				c-42.528,103.61,85.827,162.921,43.299,266.532c-42.53,103.615-170.886,44.304-213.416,147.918s30.573,113.161,48.157,224.625
				c16.576,105.079-47.887,140.181,22.907,215.737s170.079-29.172,240.873,46.384c70.797,75.559-28.488,180.286,42.31,255.845
				c70.797,75.559,170.082-29.167,240.88,46.392"/>
		</g>
		<g>
			<path fill="none" stroke="#6496C8" stroke-miterlimit="10" d="M1028.933-12.454C986.586,91.491,858.078,32.554,815.731,136.499
				s86.162,162.882,43.815,266.827c-42.348,103.949-170.857,45.012-213.205,148.96c-42.349,103.949,31.382,113.605,48.636,225.361
				c16.108,104.328-48.875,139.416,21.136,214.637s169.625-29.153,239.636,46.069c70.014,75.225-29.601,179.598,40.413,254.823
				s169.629-29.149,239.643,46.076"/>
		</g>
		<g>
			<path fill="none" stroke="#6496C8" stroke-miterlimit="10" d="M1041.19-12.64C999.025,91.64,870.365,33.075,828.2,137.354
				s86.495,162.844,44.33,267.123c-42.167,104.283-170.826,45.718-212.993,150.001s32.192,114.052,49.115,226.097
				c15.644,103.575-49.864,138.647,19.364,213.535c69.227,74.888,169.176-29.127,238.403,45.761
				c69.231,74.891-30.718,178.904,38.513,253.795s169.179-29.123,238.41,45.767"/>
		</g>
		<g>
			<path fill="none" stroke="#6496C8" stroke-miterlimit="10" d="M1053.446-12.826c-41.983,104.614-170.792,46.421-212.775,151.034
				s86.826,162.807,44.844,267.42C843.53,510.245,714.721,452.052,672.737,556.67c-41.985,104.617,33.002,114.499,49.591,226.835
				c15.185,102.822-50.854,137.875,17.59,212.428s168.73-29.094,237.174,45.458c68.447,74.557-31.839,178.203,36.608,252.76
				s168.734-29.091,237.181,45.466"/>
		</g>
		<g>
			<path fill="none" stroke="#6496C8" stroke-miterlimit="10" d="M1065.702-13.011c-41.801,104.948-170.758,47.125-212.56,152.072
				c-41.801,104.947,87.156,162.771,45.356,267.718c-41.803,104.952-170.76,47.128-212.563,152.081s33.812,114.947,50.067,227.573
				c14.731,102.069-51.846,137.098,15.815,211.317s168.289-29.055,235.95,45.164c67.664,74.222-32.964,177.495,34.7,251.718
				c67.664,74.222,168.292-29.051,235.956,45.171"/>
		</g>
		<g>
			<path fill="none" stroke="#6496C8" stroke-miterlimit="10" d="M1077.956-13.196c-41.619,105.283-170.723,47.829-212.342,153.11
				c-41.619,105.282,87.485,162.736,45.866,268.017c-41.621,105.286-170.724,47.832-212.345,153.117s34.622,115.397,50.54,228.313
				c14.282,101.314-52.839,136.318,14.039,210.203s167.852-29.008,234.729,44.877c66.881,73.888-34.094,176.78,32.787,250.669
				c66.881,73.888,167.855-29.004,234.736,44.883"/>
		</g>
		<g>
			<path fill="none" stroke="#6496C8" stroke-miterlimit="10" d="M1090.21-13.379c-41.437,105.617-170.686,48.53-212.123,154.147
				c-41.437,105.616,87.812,162.702,46.375,268.317c-41.439,105.62-170.688,48.534-212.126,154.155
				c-41.439,105.62,35.434,115.847,51.012,229.053c13.838,100.559-53.833,135.533,12.262,209.084
				c66.094,73.551,167.419-28.953,233.513,44.597c66.097,73.554-35.227,176.058,30.87,249.611
				c66.097,73.554,167.422-28.95,233.519,44.604"/>
		</g>
		<g>
			<path fill="none" stroke="#6496C8" stroke-miterlimit="10" d="M1102.463-13.563C1061.208,92.388,931.815,35.668,890.56,141.619
				c-41.255,105.95,88.137,162.669,46.882,268.619c-41.257,105.954-170.649,49.235-211.906,155.19s36.245,116.299,51.482,229.795
				c13.399,99.802-54.829,134.745,10.483,207.961c65.311,73.216,166.99-28.891,232.301,44.325
				c65.314,73.22-36.366,175.327,28.948,248.546s166.994-28.888,232.307,44.331"/>
		</g>
		<g>
			<path fill="none" stroke="#6496C8" stroke-miterlimit="10" d="M1114.715-13.745C1073.641,92.54,944.107,36.186,903.034,142.471
				c-41.073,106.284,88.461,162.637,47.388,268.921c-41.075,106.288-170.609,49.936-211.684,156.224s37.057,116.753,51.951,230.538
				c12.965,99.046-55.826,133.951,8.703,206.833c64.528,72.882,166.566-28.821,231.094,44.06
				c64.531,72.885-37.508,174.588,27.023,247.474s166.569-28.818,231.1,44.067"/>
		</g>
		<g>
			<path fill="none" stroke="#6496C8" stroke-miterlimit="10" d="M1126.967-13.928C1086.075,92.69,956.4,36.703,915.509,143.322
				c-40.891,106.618,88.783,162.606,47.892,269.225C922.508,519.17,792.833,463.182,751.94,569.805s37.87,117.207,52.419,231.28
				c12.536,98.289-56.824,133.153,6.921,205.703c63.744,72.548,166.146-28.744,229.891,43.804
				c63.747,72.551-38.655,173.842,25.092,246.394c63.747,72.551,166.15-28.741,229.897,43.81"/>
		</g>
		<g>
			<path fill="none" stroke="#6496C8" stroke-miterlimit="10" d="M1139.217-14.11c-40.71,106.954-170.523,51.329-211.233,158.282
				c-40.709,106.953,89.104,162.578,48.395,269.529c-40.711,106.957-170.525,51.333-211.236,158.29
				c-40.711,106.957,38.682,117.662,52.884,232.025c12.112,97.532-57.824,132.352,5.138,204.566
				c62.961,72.214,165.731-28.657,228.692,43.556c62.964,72.217-39.806,173.088,23.158,245.304s165.734-28.654,228.698,43.562"/>
		</g>
		<g>
			<path fill="none" stroke="#6496C8" stroke-miterlimit="10" d="M1151.467-14.292C1110.939,92.996,980.988,37.734,940.46,145.021
				c-40.527,107.287,89.423,162.549,48.896,269.836c-40.529,107.291-170.48,52.029-211.01,159.321
				c-40.529,107.291,39.496,118.12,53.349,232.77c11.693,96.773-58.825,131.545,3.354,203.426
				c62.178,71.88,165.32-28.563,227.498,43.316c62.181,71.883-40.962,172.324,21.219,244.207s165.323-28.559,227.504,43.323"/>
		</g>
		<g>
			<path fill="none" stroke="#6496C8" stroke-miterlimit="10" d="M1163.717-14.472C1123.371,93.15,993.284,38.249,952.938,145.871
				c-40.346,107.621,89.741,162.521,49.396,270.142c-40.347,107.625-170.434,52.725-210.782,160.35
				c-40.347,107.625,40.309,118.578,53.811,233.516c11.279,96.016-59.827,130.734,1.568,202.28
				c61.394,71.545,164.914-28.46,226.309,43.086c61.397,71.549-42.122,171.553,19.275,243.1
				c61.397,71.548,164.917-28.455,226.314,43.092"/>
		</g>
		<g>
			<path fill="none" stroke="#6496C8" stroke-miterlimit="10" d="M1175.965-14.653c-40.164,107.956-170.386,53.416-210.55,161.372
				c-40.164,107.955,90.058,162.496,49.894,270.45c-40.166,107.96-170.387,53.42-210.553,161.38s41.123,119.038,54.272,234.263
				c10.87,95.257-60.831,129.917-0.22,201.128s164.513-28.346,225.124,42.864c60.614,71.214-43.288,170.772,17.326,241.985
				c60.614,71.214,164.516-28.343,225.13,42.87"/>
		</g>
		<g>
			<path fill="none" stroke="#6496C8" stroke-miterlimit="10" d="M1188.213-14.832c-39.982,108.291-170.337,54.11-210.319,162.399
				c-39.982,108.29,90.373,162.47,50.391,270.76c-39.984,108.294-170.338,54.113-210.322,162.408
				c-39.984,108.294,41.938,119.498,54.732,235.011c10.466,94.497-61.837,129.096-2.009,199.974
				c59.828,70.877,164.116-28.225,223.944,42.652c59.831,70.88-44.457,169.981,15.373,240.861
				c59.831,70.88,164.119-28.222,223.949,42.658"/>
		</g>
		<g>
			<path fill="none" stroke="#6496C8" stroke-miterlimit="10" d="M1200.46-15.011c-39.8,108.625-170.287,54.802-210.087,163.426
				c-39.8,108.624,90.687,162.446,50.887,271.07c-39.802,108.629-170.288,54.806-210.09,163.434s42.753,119.961,55.19,235.759
				c10.068,93.739-62.844,128.271-3.799,198.813s163.724-28.094,222.768,42.448c59.047,70.546-45.632,169.181,13.415,239.727
				s163.727-28.09,222.774,42.456"/>
		</g>
		<g>
			<path fill="none" stroke="#6496C8" stroke-miterlimit="10" d="M1212.707-15.19c-39.618,108.959-170.235,55.493-209.853,164.451
				c-39.618,108.958,90.999,162.424,51.381,271.382c-39.62,108.963-170.237,55.496-209.856,164.46
				c-39.62,108.962,43.568,120.423,55.646,236.509c9.674,92.98-63.853,127.439-5.591,197.647
				c58.261,70.209,163.337-27.952,221.598,42.255c58.264,70.212-46.811,168.372,11.453,238.583
				c58.264,70.212,163.339-27.949,221.603,42.262"/>
		</g>
		<g>
			<path fill="none" stroke="#6496C8" stroke-miterlimit="10" d="M1224.952-15.368c-39.436,109.293-170.182,56.183-209.619,165.476
				c-39.436,109.292,91.31,162.402,51.874,271.693c-39.438,109.297-170.184,56.187-209.621,165.484
				c-39.438,109.297,44.384,120.888,56.101,237.259c9.286,92.22-64.864,126.602-7.385,196.477
				c57.478,69.874,162.954-27.802,220.432,42.072c57.481,69.877-47.996,167.553,9.485,237.43
				c57.481,69.878,162.957-27.799,220.438,42.079"/>
		</g>
		<g>
			<path fill="none" stroke="#6496C8" stroke-miterlimit="10" d="M1237.197-15.545c-39.255,109.627-170.128,56.872-209.382,166.499
				c-39.254,109.626,91.619,162.381,52.365,272.008c-39.256,109.632-170.129,56.876-209.385,166.508s45.2,121.354,56.554,238.01
				c8.902,91.462-65.876,125.76-9.18,195.3c56.695,69.54,162.577-27.641,219.271,41.9c56.697,69.543-49.185,166.723,7.512,236.266
				s162.579-27.637,219.277,41.906"/>
		</g>
		<g>
			<path fill="none" stroke="#6496C8" stroke-miterlimit="10" d="M1249.442-15.722c-39.073,109.962-170.072,57.56-209.145,167.521
				c-39.072,109.961,91.927,162.362,52.855,272.323c-39.074,109.966-170.073,57.563-209.147,167.529s46.016,121.822,57.006,238.763
				c8.524,90.703-66.889,124.912-10.977,194.118c55.911,69.206,162.204-27.469,218.116,41.737
				c55.914,69.209-50.379,165.883,5.535,235.091c55.914,69.209,162.207-27.465,218.121,41.744"/>
		</g>
		<g>
			<path fill="none" stroke="#6496C8" stroke-miterlimit="10" d="M1261.685-15.898c-38.891,110.296-170.015,58.247-208.906,168.543
				c-38.89,110.295,92.234,162.344,53.343,272.639c-38.892,110.3-170.016,58.251-208.908,168.55
				c-38.892,110.3,46.833,122.291,57.456,239.516c8.151,89.943-67.904,124.058-12.776,192.93
				c55.128,68.872,161.837-27.285,216.965,41.585c55.131,68.875-51.578,165.032,3.552,233.905s161.839-27.282,216.97,41.592"/>
		</g>
		<g>
			<path fill="none" stroke="#6496C8" stroke-miterlimit="10" d="M1273.928-16.073c-38.709,110.63-169.956,58.932-208.665,169.562
				c-38.708,110.629,92.539,162.327,53.831,272.955c-38.71,110.634-169.958,58.936-208.668,169.57
				c-38.71,110.634,47.651,122.761,57.905,240.269c7.783,89.186-68.921,123.199-14.576,191.737
				c54.345,68.537,161.474-27.091,215.819,41.445c54.347,68.541-52.782,164.169,1.565,232.709
				c54.347,68.54,161.477-27.088,215.824,41.452"/>
		</g>
		<g>
			<path fill="none" stroke="#6496C8" stroke-miterlimit="10" d="M1286.171-16.248c-38.527,110.964-169.896,59.616-208.423,170.581
				c-38.527,110.963,92.843,162.311,54.316,273.273c-38.528,110.969-169.898,59.621-208.426,170.588s48.469,123.232,58.352,241.024
				c7.42,88.427-69.94,122.334-16.378,190.537c53.561,68.203,161.117-26.886,214.679,41.317
				c53.564,68.207-53.992,163.295-0.428,231.5s161.12-26.883,214.683,41.323"/>
		</g>
		<g>
			<path fill="none" stroke="#6496C8" stroke-miterlimit="10" d="M1298.412-16.424c-38.345,111.299-169.835,60.3-208.18,171.598
				c-38.345,111.297,93.146,162.296,54.801,273.593c-38.346,111.303-169.837,60.304-208.183,171.606s49.287,123.704,58.798,241.779
				c7.062,87.67-70.961,121.462-18.182,189.331c52.778,67.869,160.765-26.669,213.543,41.2
				c52.781,67.872-55.206,162.409-2.426,230.28c52.781,67.872,160.767-26.665,213.548,41.207"/>
		</g>
		<g>
			<path fill="none" stroke="#6496C8" stroke-miterlimit="10" d="M1310.653-16.598c-38.163,111.633-169.773,60.982-207.936,172.615
				c-38.163,111.632,93.447,162.283,55.284,273.913c-38.165,111.637-169.774,60.986-207.939,172.622s50.106,124.178,59.242,242.536
				c6.709,86.912-71.983,120.585-19.987,188.119c51.995,67.535,160.418-26.438,212.413,41.095
				c51.997,67.538-56.426,161.51-4.429,229.048c51.997,67.538,160.42-26.435,212.418,41.102"/>
		</g>
		<g>
			<path fill="none" stroke="#6496C8" stroke-miterlimit="10" d="M1322.894-16.77c-37.981,111.967-169.709,61.663-207.69,173.63
				c-37.981,111.966,93.747,162.27,55.766,274.235c-37.983,111.971-169.71,61.667-207.693,173.637s50.925,124.654,59.685,243.293
				c6.362,86.156-73.006,119.7-21.794,186.9c51.212,67.201,160.076-26.197,211.288,41.004c51.214,67.204-57.651,160.6-6.437,227.802
				c51.214,67.204,160.079-26.193,211.293,41.01"/>
		</g>
		<g>
			<path fill="none" stroke="#6496C8" stroke-miterlimit="10" d="M1335.133-16.943C1297.334,95.358,1165.489,45.4,1127.69,157.7
				s94.046,162.258,56.247,274.558c-37.801,112.305-169.645,62.346-207.446,174.652c-37.801,112.305,51.745,125.131,60.126,244.051
				c6.019,85.4-74.032,118.808-23.603,185.675c50.428,66.866,159.74-25.941,210.168,40.924
				c50.431,66.87-58.881,159.676-8.45,226.545c50.431,66.868,159.742-25.938,210.173,40.931"/>
		</g>
		<g>
			<path fill="none" stroke="#6496C8" stroke-miterlimit="10" d="M1347.372-17.115c-37.617,112.635-169.578,63.021-207.195,175.657
				c-37.617,112.634,94.343,162.248,56.726,274.882c-37.619,112.64-169.579,63.025-207.198,175.665s52.564,125.61,60.566,244.81
				c5.682,84.646-75.06,117.911-25.414,184.443c49.645,66.532,159.409-25.672,209.054,40.859
				c49.647,66.534-60.117,158.739-10.469,225.274c49.647,66.534,159.411-25.669,209.058,40.865"/>
		</g>
		<g>
			<path fill="none" stroke="#6496C8" stroke-miterlimit="10" d="M1359.611-17.287c-37.436,112.97-169.51,63.699-206.945,176.669
				c-37.435,112.969,94.639,162.239,57.204,275.207c-37.437,112.974-169.511,63.703-206.948,176.676
				c-37.437,112.974,53.385,126.089,61.004,245.569c5.349,83.891-76.089,117.006-27.227,183.204
				c48.862,66.198,159.083-25.39,207.945,40.807c48.864,66.201-61.357,157.788-12.493,223.989s159.085-25.387,207.949,40.813"/>
		</g>
		<g>
			<path fill="none" stroke="#6496C8" stroke-miterlimit="10" d="M1371.849-17.458c-37.254,113.304-169.441,64.375-206.694,177.679
				c-37.253,113.303,94.934,162.231,57.681,275.533c-37.255,113.308-169.442,64.379-206.697,177.687s54.206,126.57,61.44,246.329
				c5.022,83.138-77.12,116.093-29.041,181.957c48.078,65.864,158.763-25.094,206.841,40.77
				c48.081,65.866-62.604,156.823-14.523,222.689s158.765-25.091,206.845,40.776"/>
		</g>
		<g>
			<path fill="none" stroke="#6496C8" stroke-miterlimit="10" d="M1384.086-17.629c-37.072,113.638-169.371,65.051-206.442,178.689
				c-37.071,113.637,95.228,162.224,58.156,275.86c-37.073,113.642-169.372,65.055-206.445,178.698
				c-37.073,113.642,55.027,127.052,61.875,247.09c4.7,82.386-78.153,115.173-30.857,180.703
				c47.295,65.529,158.448-24.783,205.743,40.746c47.297,65.532-63.855,155.844-16.558,221.376s158.45-24.78,205.747,40.753"/>
		</g>
		<g>
			<path fill="none" stroke="#6496C8" stroke-miterlimit="10" d="M1396.322-17.799c-36.89,113.972-169.299,65.725-206.189,179.697
				c-36.89,113.971,95.52,162.218,58.63,276.189c-36.891,113.977-169.301,65.729-206.192,179.706s55.849,127.536,62.309,247.851
				c4.384,81.635-79.188,114.246-32.675,179.441c46.512,65.195,158.138-24.458,204.65,40.738
				c46.514,65.197-65.112,154.85-18.598,220.047s158.14-24.454,204.654,40.744"/>
		</g>
		<g>
			<path fill="none" stroke="#6496C8" stroke-miterlimit="10" d="M1408.558-17.968c-36.708,114.307-169.227,66.398-205.934,180.704
				c-36.707,114.305,95.811,162.214,59.104,276.519c-36.709,114.311-169.228,66.403-205.937,180.712s56.671,128.021,62.741,248.613
				c4.072,80.886-80.224,113.311-34.495,178.172s157.834-24.116,203.562,40.745c45.731,64.863-66.375,153.84-20.644,218.704
				s157.836-24.113,203.566,40.75"/>
		</g>
		<g>
			<path fill="none" stroke="#6496C8" stroke-miterlimit="10" d="M1420.793-18.137c-36.526,114.641-169.153,67.07-205.679,181.711
				c-36.526,114.64,96.101,162.21,59.575,276.849c-36.527,114.645-169.154,67.074-205.681,181.719s57.493,128.508,63.172,249.377
				c3.765,80.136-81.262,112.368-36.317,176.895s157.535-23.759,202.48,40.767c44.947,64.529-67.642,152.815-22.695,217.344
				s157.537-23.756,202.484,40.774"/>
		</g>
		<g>
			<path fill="none" stroke="#6496C8" stroke-miterlimit="10" d="M1433.028-18.306c-36.344,114.975-169.078,67.741-205.422,182.716
				c-36.344,114.974,96.39,162.208,60.046,277.181c-36.345,114.979-169.079,67.745-205.424,182.724s58.316,128.996,63.601,250.141
				c3.464,79.391-82.302,111.416-38.14,175.609s157.241-23.386,201.403,40.807c44.164,64.195-68.915,151.773-24.751,215.968
				c44.164,64.195,157.243-23.383,201.407,40.813"/>
		</g>
		<g>
			<path fill="none" stroke="#6496C8" stroke-miterlimit="10" d="M1445.262-18.473c-36.162,115.309-169.001,68.41-205.163,183.719
				c-36.162,115.308,96.677,162.206,60.516,277.514c-36.164,115.313-169.003,68.414-205.166,183.728s59.139,129.487,64.029,250.905
				c3.167,78.645-83.344,110.456-39.965,174.314s156.953-22.995,200.332,40.863c43.381,63.86-70.194,150.714-26.813,214.575
				c43.38,63.86,156.955-22.992,200.336,40.868"/>
		</g>
		<g>
			<path fill="none" stroke="#6496C8" stroke-miterlimit="10" d="M1457.496-18.64c-35.98,115.643-168.924,69.079-204.904,184.722
				c-35.98,115.642,96.964,162.206,60.984,277.848c-35.982,115.648-168.925,69.083-204.907,184.73s59.963,129.978,64.455,251.67
				c2.876,77.901-84.388,109.486-41.793,173.012c42.595,63.524,156.671-22.588,199.266,40.936
				c42.597,63.526-71.478,149.638-28.881,213.165c42.597,63.526,156.672-22.585,199.27,40.942"/>
		</g>
		<g>
			<path fill="none" stroke="#6496C8" stroke-miterlimit="10" d="M1469.729-18.807c-35.798,115.978-168.845,69.746-204.643,185.724
				c-35.798,115.977,97.249,162.208,61.451,278.184c-35.8,115.982-168.846,69.75-204.646,185.732s60.787,130.47,64.88,252.436
				c2.589,77.159-85.434,108.509-43.621,171.699c41.812,63.19,156.393-22.162,198.205,41.027
				c41.814,63.192-72.767,148.544-30.953,211.736s156.395-22.159,198.209,41.033"/>
		</g>
		<g>
			<path fill="none" stroke="#6496C8" stroke-miterlimit="10" d="M1481.961-18.973c-35.616,116.312-168.765,70.412-204.382,186.724
				c-35.616,116.311,97.533,162.21,61.917,278.52c-35.618,116.316-168.766,70.416-204.384,186.733s61.611,130.964,65.303,253.203
				c2.308,76.42-86.481,107.521-45.452,170.378c41.029,62.856,156.121-21.719,197.15,41.137
				c41.031,62.858-74.062,147.432-33.031,210.29s156.123-21.716,197.154,41.142"/>
		</g>
		<g>
			<path fill="none" stroke="#6496C8" stroke-miterlimit="10" d="M1494.193-19.139c-35.434,116.646-168.684,71.078-204.119,187.723
				c-35.434,116.645,97.815,162.214,62.381,278.859c-35.436,116.65-168.685,71.082-204.121,187.731
				c-35.436,116.65,62.436,131.46,65.725,253.97c2.032,75.681-87.53,106.525-47.285,169.047s155.854-21.256,196.1,41.265
				c40.247,62.524-75.362,146.302-35.115,208.825s155.856-21.253,196.103,41.27"/>
		</g>
		<g>
			<path fill="none" stroke="#6496C8" stroke-miterlimit="10" d="M1506.424-19.303c-35.253,116.98-168.602,71.741-203.855,188.721
				c-35.252,116.979,98.097,162.218,62.845,279.197c-35.254,116.985-168.603,71.745-203.857,188.729s63.261,131.958,66.145,254.737
				c1.76,74.946-88.581,105.518-49.119,167.705s155.593-20.774,195.055,41.412c39.464,62.189-76.667,145.15-37.203,207.341
				c39.464,62.189,155.595-20.772,195.058,41.419"/>
		</g>
		<g>
			<path fill="none" stroke="#6496C8" stroke-miterlimit="10" d="M1518.654-19.468c-35.071,117.315-168.519,72.404-203.589,189.718
				c-35.07,117.313,98.377,162.224,63.307,279.537c-35.072,117.319-168.52,72.408-203.592,189.727s64.087,132.455,66.564,255.507
				c1.494,74.213-89.634,104.502-50.954,166.355c38.679,61.853,155.336-20.272,194.015,41.581
				c38.681,61.855-77.977,143.98-39.297,205.835s155.338-20.269,194.019,41.587"/>
		</g>
		<g>
			<path fill="none" stroke="#6496C8" stroke-miterlimit="10" d="M1530.884-19.631c-34.889,117.649-168.434,73.065-203.323,190.714
				c-34.888,117.648,98.657,162.231,63.768,279.878c-34.89,117.653-168.436,73.069-203.326,190.722s64.913,132.956,66.981,256.276
				c1.233,73.482-90.688,103.475-52.792,164.993c37.895,61.519,155.085-19.749,192.98,41.77
				c37.897,61.521-79.292,142.788-41.395,204.309s155.087-19.745,192.984,41.776"/>
		</g>
		<g>
			<path fill="none" stroke="#6496C8" stroke-miterlimit="10" d="M1543.114-19.794c-34.707,117.983-168.349,73.726-203.056,191.709
				c-34.707,117.982,98.935,162.239,64.229,280.22c-34.708,117.987-168.35,73.73-203.058,191.717s65.74,133.458,67.397,257.046
				c0.976,72.752-91.745,102.435-54.633,163.617c37.113,61.185,154.839-19.204,191.952,41.98
				c37.114,61.188-80.612,141.577-43.498,202.765c37.114,61.188,154.841-19.201,191.955,41.987"/>
		</g>
		<g>
			<path fill="none" stroke="#6496C8" stroke-miterlimit="10" d="M1555.343-19.957c-34.525,118.317-168.262,74.385-202.787,192.702
				c-34.525,118.316,99.212,162.248,64.688,280.564c-34.526,118.321-168.263,74.389-202.79,192.71s66.566,133.961,67.812,257.816
				c0.724,72.026-92.802,101.385-56.474,162.234c36.329,60.85,154.598-18.638,190.927,42.213
				c36.331,60.854-81.938,140.342-45.607,201.195c36.331,60.854,154.599-18.635,190.93,42.218"/>
		</g>
		<g>
			<path fill="none" stroke="#6496C8" stroke-miterlimit="10" d="M1567.571-20.118c-34.343,118.651-168.174,75.043-202.517,193.694
				c-34.343,118.65,99.488,162.258,65.146,280.908c-34.344,118.656-168.175,75.047-202.52,193.702
				c-34.344,118.656,67.393,134.466,68.225,258.587c0.478,71.302-93.861,100.326-58.316,160.84
				c35.546,60.516,154.361-18.049,189.907,42.467c35.547,60.519-83.267,139.084-47.72,199.604s154.362-18.047,189.91,42.473"/>
		</g>
		<g>
			<path fill="none" stroke="#6496C8" stroke-miterlimit="10" d="M1579.799-20.279c-34.161,118.986-168.085,75.7-202.247,194.685
				c-34.161,118.985,99.763,162.27,65.602,281.254c-34.162,118.99-168.087,75.705-202.249,194.694s68.221,134.971,68.637,259.359
				c0.236,70.583-94.921,99.254-60.159,159.434c34.763,60.182,154.129-17.437,188.891,42.745
				c34.764,60.185-84.602,137.805-49.838,197.989c34.764,60.185,154.13-17.435,188.895,42.75"/>
		</g>
		<g>
			<path fill="none" stroke="#6496C8" stroke-miterlimit="10" d="M1592.026-20.441c-33.979,119.32-167.995,76.356-201.975,195.675
				c-33.979,119.319,100.037,162.283,66.058,281.601c-33.981,119.324-167.997,76.36-201.977,195.684s69.048,135.479,69.047,260.131
				c-0.001,69.866-95.983,98.17-62.004,158.016c33.979,59.848,153.901-16.801,187.88,43.047
				c33.981,59.851-85.941,136.5-51.96,196.351c33.981,59.851,153.902-16.798,187.883,43.052"/>
		</g>
	</g>
</g>
</svg>
