<?xml version="1.0" encoding="utf-8"?>
<!-- Generator: Adobe Illustrator 17.0.0, SVG Export Plug-In . SVG Version: 6.00 Build 0)  -->
<!DOCTYPE svg PUBLIC "-//W3C//DTD SVG 1.1//EN" "http://www.w3.org/Graphics/SVG/1.1/DTD/svg11.dtd">
<svg version="1.1" id="Layer_1" xmlns="http://www.w3.org/2000/svg" xmlns:xlink="http://www.w3.org/1999/xlink" x="0px" y="0px"
	 width="1827.445px" height="1331.53px" viewBox="0 0 1827.445 1331.53" enable-background="new 0 0 1827.445 1331.53"
	 xml:space="preserve">
<g opacity="0.5">
	<g>
		<g>
			<path fill="none" stroke="#6496C8" stroke-miterlimit="10" d="M255.937-80c57.498,79.911-70.052,181.582-12.554,261.493
				c57.501,79.915,185.051-21.756,242.552,58.159s-28.774,110.42-28.773,210.665c0.001,168.324,97.15,187.342,39.65,344.411
				s-206.801,96.52-264.301,253.588s91.8,217.617,34.3,374.687"/>
		</g>
		<g>
			<path fill="none" stroke="#6496C8" stroke-miterlimit="10" d="M273.815-78.744c56.065,81.002-73.257,180.162-17.192,261.164
				c56.068,81.007,185.39-18.153,241.458,62.853s-32.526,111.37-32.525,211.593c0.001,166.766,98.757,185.772,42.69,341.749
				S302.531,895,246.464,1050.977s93.581,215.569,37.514,371.546"/>
		</g>
		<g>
			<path fill="none" stroke="#6496C8" stroke-miterlimit="10" d="M291.672-77.472c54.632,82.094-76.417,178.708-21.785,260.802
				c54.635,82.098,185.685-14.516,240.32,67.582s-36.255,112.269-36.255,212.503c0.001,165.215,100.364,184.192,45.73,339.077
				c-54.634,154.886-204.63,96.273-259.264,251.158s95.362,213.5,40.728,368.385"/>
		</g>
		<g>
			<path fill="none" stroke="#6496C8" stroke-miterlimit="10" d="M309.505-76.184c53.2,83.185-79.532,177.222-26.332,260.409
				c53.202,83.19,185.933-10.848,239.135,72.341s-39.962,113.118-39.962,213.398c0.001,163.671,101.971,182.601,48.77,336.395
				s-203.546,96.179-256.747,249.973s97.143,211.409,43.942,365.203"/>
		</g>
		<g>
			<path fill="none" stroke="#6496C8" stroke-miterlimit="10" d="M327.314-74.881c51.767,84.277-82.598,175.708-30.831,259.985
				c51.769,84.281,186.134-7.15,237.903,77.131s-43.645,113.917-43.644,214.278c0.001,162.132,103.579,181,51.811,333.701
				c-51.769,152.704-202.463,96.108-254.231,248.811s98.926,209.298,47.157,362.001"/>
		</g>
		<g>
			<path fill="none" stroke="#6496C8" stroke-miterlimit="10" d="M345.099-73.564c50.334,85.368-85.615,174.167-35.282,259.535
				c50.336,85.373,186.285-3.426,236.622,81.947s-47.303,114.669-47.302,215.145c0.001,160.601,105.186,179.387,54.851,330.997
				c-50.335,151.611-201.379,96.058-251.715,247.669s100.708,207.165,50.373,358.776"/>
		</g>
		<g>
			<path fill="none" stroke="#6496C8" stroke-miterlimit="10" d="M362.859-72.236c48.901,86.46-88.582,172.603-39.681,259.063
				c48.903,86.464,186.386,0.321,235.29,86.785s-50.935,115.375-50.935,215.999c0.001,159.077,106.794,177.763,57.892,328.283
				c-48.903,150.52-200.296,96.03-249.198,246.55s102.491,205.009,53.588,355.529"/>
		</g>
		<g>
			<path fill="none" stroke="#6496C8" stroke-miterlimit="10" d="M380.592-70.898c47.468,87.551-91.497,171.018-44.029,258.569
				c47.47,87.555,186.436,4.089,233.906,91.645s-54.542,116.036-54.542,216.845c0,157.559,108.402,176.129,60.932,325.556
				c-47.47,149.428-199.212,96.026-246.682,245.454s104.273,202.83,56.803,352.259"/>
		</g>
		<g>
			<path fill="none" stroke="#6496C8" stroke-miterlimit="10" d="M398.3-69.551c46.035,88.643-94.36,169.416-48.324,258.058
				c46.037,88.647,186.432,7.875,232.47,96.522s-58.123,116.655-58.123,217.68c0.001,156.05,110.009,174.482,63.973,322.817
				c-46.037,148.337-198.128,96.046-244.165,244.383s106.055,200.627,60.018,348.964"/>
		</g>
		<g>
			<path fill="none" stroke="#6496C8" stroke-miterlimit="10" d="M415.98-68.197c44.602,89.734-97.169,167.799-52.566,257.533
				c44.604,89.738,186.375,11.675,230.98,101.413s-61.677,117.233-61.677,218.51c0,154.548,111.616,172.823,67.012,320.067
				c-44.604,147.245-197.043,96.089-241.647,243.335c-44.604,147.245,107.836,198.401,63.232,345.646"/>
		</g>
		<g>
			<path fill="none" stroke="#6496C8" stroke-miterlimit="10" d="M433.634-66.837c43.169,90.826-99.924,166.171-56.754,256.996
				c43.171,90.83,186.265,15.486,229.436,106.316s-65.204,117.77-65.204,219.333c0,153.053,113.222,171.15,70.052,317.304
				c-43.171,146.154-195.957,96.158-239.128,242.312s109.616,196.149,66.445,342.303"/>
		</g>
		<g>
			<path fill="none" stroke="#6496C8" stroke-miterlimit="10" d="M451.26-65.473c41.737,91.917-102.624,164.534-60.888,256.451
				c41.739,91.921,186.099,19.305,227.838,111.227s-68.704,118.271-68.703,220.152c0,151.568,114.828,169.466,73.09,314.529
				s-194.87,96.253-236.608,241.314s111.394,193.872,69.656,338.935"/>
		</g>
		<g>
			<path fill="none" stroke="#6496C8" stroke-miterlimit="10" d="M468.859-64.106c40.304,93.009-105.27,162.891-64.966,255.901
				c40.306,93.013,185.879,23.13,226.185,116.143s-72.176,118.738-72.176,220.967c0,150.09,116.433,167.77,76.128,311.739
				c-40.305,143.971-193.781,96.372-234.086,240.343s113.171,191.569,72.866,335.539"/>
		</g>
		<g>
			<path fill="none" stroke="#6496C8" stroke-miterlimit="10" d="M486.431-62.738c38.871,94.1-107.861,161.247-68.99,255.347
				c38.873,94.104,185.604,26.958,224.477,121.063s-75.621,119.168-75.62,221.783c0,148.621,118.037,166.058,79.165,308.938
				s-192.69,96.52-231.562,239.398s114.946,189.239,76.074,332.118"/>
		</g>
		<g>
			<path fill="none" stroke="#6496C8" stroke-miterlimit="10" d="M503.975-61.37c37.438,95.192-110.397,159.602-72.959,254.793
				c37.44,95.196,185.274,30.786,222.714,125.982s-79.038,119.568-79.038,222.598c0,147.161,119.64,164.334,82.201,306.121
				c-37.439,141.788-191.596,96.693-229.036,238.481s116.718,186.881,79.279,328.669"/>
		</g>
		<g>
			<path fill="none" stroke="#6496C8" stroke-miterlimit="10" d="M521.492-60.003c36.005,96.283-112.878,157.96-76.873,254.244
				c36.007,96.287,184.89,34.61,220.896,130.898c36.007,96.287-82.428,119.936-82.428,223.415
				c0,145.711,121.241,162.595,85.234,303.291c-36.006,140.696-190.5,96.897-226.506,237.592s118.487,184.496,82.481,325.192"/>
		</g>
		<g>
			<path fill="none" stroke="#6496C8" stroke-miterlimit="10" d="M538.981-58.64c34.572,97.374-115.305,156.324-80.733,253.699
				c34.574,97.379,184.451,38.43,219.025,135.809s-85.791,120.277-85.791,224.233c0,144.269,122.84,160.843,88.267,300.447
				c-34.573,139.605-189.4,97.127-223.973,236.732s120.253,182.082,85.68,321.686"/>
		</g>
		<g>
			<path fill="none" stroke="#6496C8" stroke-miterlimit="10" d="M556.444-57.28c33.139,98.466-117.678,154.697-84.538,253.163
				c33.141,98.471,183.958,42.24,217.099,140.711s-89.127,120.591-89.127,225.057c0,142.837,124.438,159.075,91.297,297.587
				c-33.14,138.513-188.296,97.388-221.437,235.902s122.016,179.638,88.875,318.15"/>
		</g>
		<g>
			<path fill="none" stroke="#6496C8" stroke-miterlimit="10" d="M573.88-55.926c31.706,99.557-119.998,153.08-88.291,252.638
				c31.708,99.563,183.412,46.04,215.12,145.602S608.273,463.193,608.273,568.2c0,141.415,126.033,157.292,94.326,294.713
				c-31.708,137.422-187.188,97.68-218.896,235.101s123.773,177.163,92.066,314.585"/>
		</g>
		<g>
			<path fill="none" stroke="#6496C8" stroke-miterlimit="10" d="M591.29-54.578c30.274,100.649-122.265,151.476-91.991,252.125
				c30.275,100.654,182.813,49.827,213.088,150.48c30.275,100.654-95.719,121.145-95.719,226.721
				c0,140.004,127.626,155.494,97.351,291.823c-30.275,136.33-186.075,98.002-216.35,234.331s125.526,174.658,95.252,310.989"/>
		</g>
		<g>
			<path fill="none" stroke="#6496C8" stroke-miterlimit="10" d="M608.674-53.238c28.841,101.74-124.48,149.889-95.64,251.63
				c28.842,101.746,182.163,53.597,211.005,155.342s-98.977,121.388-98.976,227.565c0,138.603,129.216,153.679,100.375,288.917
				c-28.842,135.238-184.957,98.355-213.799,233.594c-28.842,135.239,127.274,172.122,98.432,307.361"/>
		</g>
		<g>
			<path fill="none" stroke="#6496C8" stroke-miterlimit="10" d="M626.032-51.908C653.44,50.924,499.387,96.411,526.795,199.243
				c27.409,102.837,181.462,57.35,208.871,160.187S633.458,481.041,633.458,587.847c0,137.214,130.803,151.849,103.395,285.997
				c-27.409,134.147-183.833,98.741-211.241,232.888c-27.409,134.147,129.015,169.552,101.606,303.7"/>
		</g>
		<g>
			<path fill="none" stroke="#6496C8" stroke-miterlimit="10" d="M643.366-50.587c25.975,103.923-128.76,146.768-102.785,250.692
				c25.976,103.929,180.711,61.083,206.688,165.012S641.853,486.932,641.853,594.396c0,135.835,132.387,150.003,106.411,283.058
				c-25.976,133.055-182.701,99.16-208.677,232.216s130.75,166.951,104.774,300.007"/>
		</g>
		<g>
			<path fill="none" stroke="#6496C8" stroke-miterlimit="10" d="M660.675-49.277C685.217,55.738,529.848,95.962,554.39,200.978
				c24.543,105.02,179.912,64.796,204.455,169.816S650.247,492.795,650.247,600.946c0,134.469,133.967,148.139,109.424,280.103
				s-181.563,99.613-206.106,231.577s132.477,164.315,107.934,296.279"/>
		</g>
		<g>
			<path fill="none" stroke="#6496C8" stroke-miterlimit="10" d="M677.961-47.979C701.07,58.128,545.115,95.756,568.224,201.862
				c23.11,106.112,179.065,68.484,202.176,174.595S658.643,498.631,658.643,607.494c0,133.113,135.543,146.258,112.433,277.13
				c-23.11,130.872-180.416,100.101-203.526,230.973s134.196,161.645,111.086,292.517"/>
		</g>
		<g>
			<path fill="none" stroke="#6496C8" stroke-miterlimit="10" d="M695.223-46.693C716.9,60.505,560.405,95.561,582.081,202.759
				c21.677,107.203,178.172,72.146,199.85,179.349c21.677,107.203-114.893,122.331-114.893,231.935
				c0,131.771,137.115,144.359,115.438,274.14s-179.26,100.623-200.938,230.403c-21.677,129.781,135.906,158.94,114.229,288.721"/>
		</g>
		<g>
			<path fill="none" stroke="#6496C8" stroke-miterlimit="10" d="M712.464-45.42c20.243,108.289-136.747,140.8-116.503,249.091
				c20.244,108.294,177.234,75.783,197.479,184.077c20.244,108.294-118.006,122.474-118.006,232.845
				c0,130.441,138.681,142.444,118.437,271.133c-20.244,128.689-178.095,101.18-198.339,229.871
				c-20.244,128.689,137.607,156.198,117.363,284.887"/>
		</g>
		<g>
			<path fill="none" stroke="#6496C8" stroke-miterlimit="10" d="M729.682-44.163c18.811,109.381-138.631,139.376-119.82,248.756
				c18.811,109.386,176.253,79.391,195.065,188.777c18.811,109.386-121.098,122.606-121.098,233.769
				c0,129.125,140.243,140.509,121.432,268.106c-18.811,127.598-176.919,101.776-195.73,229.374s139.297,153.421,120.486,281.018"/>
		</g>
		<g>
			<path fill="none" stroke="#6496C8" stroke-miterlimit="10" d="M746.879-42.918c17.378,110.472-140.473,137.98-123.095,248.452
				c17.379,110.477,175.23,82.97,192.608,193.447C833.77,509.459,692.223,521.708,692.223,633.69
				c0,127.822,141.798,138.556,124.42,265.061c-17.378,126.506-175.732,102.408-193.11,228.915
				c-17.378,126.506,140.975,150.605,123.597,277.111"/>
		</g>
		<g>
			<path fill="none" stroke="#6496C8" stroke-miterlimit="10" d="M764.056-41.69c15.945,111.564-142.275,136.615-126.33,248.178
				c15.946,111.569,174.165,86.518,190.111,198.088c15.946,111.569-127.219,122.839-127.219,235.664
				c0,126.528,143.348,136.579,127.403,261.99c-15.946,125.417-174.532,103.08-190.478,228.497s142.641,147.754,126.695,273.171"/>
		</g>
		<g>
			<path fill="none" stroke="#6496C8" stroke-miterlimit="10" d="M781.214-40.478C795.726,72.177,637.177,94.804,651.689,207.459
				c14.513,112.66,173.062,90.035,187.575,202.696S709.013,533.097,709.013,646.788c0,125.254,144.891,134.588,130.379,258.907
				c-14.513,124.325-173.319,103.789-187.831,228.114c-14.513,124.325,144.293,144.861,129.781,269.187"/>
		</g>
		<g>
			<path fill="none" stroke="#6496C8" stroke-miterlimit="10" d="M798.352-39.281C811.431,74.466,652.59,94.698,665.669,208.446
				c13.08,113.752,171.921,93.519,185,207.271s-133.261,123.038-133.261,237.62c0,123.995,146.426,132.576,133.347,255.804
				c-13.08,123.234-172.091,104.537-185.17,227.771s145.931,141.93,132.851,265.164"/>
		</g>
		<g>
			<path fill="none" stroke="#6496C8" stroke-miterlimit="10" d="M815.472-38.102C827.118,76.736,668.022,94.61,679.668,209.449
				c11.647,114.843,170.743,96.969,182.39,211.814c11.647,114.843-136.255,123.129-136.255,238.625
				c0,122.75,147.954,130.545,136.308,252.681c-11.647,122.143-170.847,105.325-182.494,227.468
				c-11.647,122.143,147.553,138.959,135.907,261.101"/>
		</g>
		<g>
			<path fill="none" stroke="#6496C8" stroke-miterlimit="10" d="M832.575-36.939C842.788,78.99,683.472,94.539,693.685,210.469
				c10.214,115.935,169.53,100.386,179.744,216.322s-139.231,123.213-139.23,239.646c0,121.522,149.473,128.493,139.26,249.538
				c-10.214,121.051-169.587,106.154-179.8,227.205c-10.214,121.051,149.159,135.947,138.945,256.999"/>
		</g>
		<g>
			<path fill="none" stroke="#6496C8" stroke-miterlimit="10" d="M849.661-35.794c8.78,117.021-150.723,130.28-141.942,247.301
				c8.781,117.026,168.284,103.769,177.065,220.795s-142.19,123.292-142.19,240.682c0,120.309,150.983,126.421,142.203,246.375
				c-8.781,119.96-168.308,107.023-177.089,226.983s150.746,132.895,141.965,252.855"/>
		</g>
		<g>
			<path fill="none" stroke="#6496C8" stroke-miterlimit="10" d="M866.731-34.667C874.079,83.446,714.42,94.449,721.768,212.561
				c7.348,118.119,167.006,107.116,174.354,225.233S750.989,561.161,750.989,679.533c0,119.113,152.484,124.329,145.136,243.191
				c-7.348,118.868-167.01,107.933-174.358,226.802s152.314,129.802,144.966,248.669"/>
		</g>
		<g>
			<path fill="none" stroke="#6496C8" stroke-miterlimit="10" d="M883.785-33.556C889.7,85.648,729.918,94.431,735.832,213.635
				c5.915,119.21,165.697,110.427,171.612,229.637s-148.061,123.439-148.061,242.81c0,117.935,153.974,122.215,148.059,239.985
				c-5.915,117.776-165.692,108.887-171.607,226.663s153.862,126.665,147.947,244.442"/>
		</g>
		<g>
			<path fill="none" stroke="#6496C8" stroke-miterlimit="10" d="M900.825-32.464c4.482,120.295-155.395,126.895-150.913,247.19
				c4.482,120.302,164.359,113.702,168.841,234.004S767.779,572.239,767.779,692.632c0,116.775,155.453,120.081,150.971,236.759
				c-4.482,116.684-164.351,109.882-168.833,226.566c-4.482,116.684,155.387,123.488,150.905,240.172"/>
		</g>
		<g>
			<path fill="none" stroke="#6496C8" stroke-miterlimit="10" d="M917.852-31.39c3.049,121.387-156.895,125.838-153.846,247.225
				c3.049,121.393,162.993,116.942,166.042,238.335S776.174,577.746,776.174,699.181c0,115.633,156.92,117.924,153.871,233.513
				c-3.049,115.593-162.987,110.919-166.037,226.512s156.889,120.267,153.84,235.86"/>
		</g>
		<g>
			<path fill="none" stroke="#6496C8" stroke-miterlimit="10" d="M934.864-30.334C936.48,92.144,776.496,94.483,778.112,216.961
				c1.616,122.485,161.601,120.146,163.217,242.63c1.616,122.485-156.76,123.641-156.76,246.137
				c0,114.509,158.375,115.747,156.759,230.243c-1.616,114.501-161.599,112-163.215,226.502
				c-1.616,114.501,158.366,117.003,156.75,231.504"/>
		</g>
		<g>
			<path fill="none" stroke="#6496C8" stroke-miterlimit="10" d="M951.865-29.296c0.183,123.57-159.817,123.833-159.633,247.403
				c0.183,123.576,160.183,123.313,160.366,246.889S792.964,588.703,792.964,712.279c0,113.404,159.817,113.548,159.633,226.953
				c-0.183,113.41-160.183,113.123-160.366,226.533c-0.183,113.41,159.817,113.696,159.633,227.107"/>
		</g>
		<g>
			<path fill="none" stroke="#6496C8" stroke-miterlimit="10" d="M968.853-28.277c-1.25,124.661-161.241,122.885-162.49,247.547
				c-1.25,124.668,158.741,126.444,157.492,251.112S801.359,594.154,801.359,718.828c0,112.321,161.244,111.327,162.494,223.641
				c1.25,112.318-158.739,114.291-157.49,226.609c1.25,112.318,161.239,110.347,162.488,222.665"/>
		</g>
		<g>
			<path fill="none" stroke="#6496C8" stroke-miterlimit="10" d="M985.83-27.275C983.147,98.482,823.188,94.701,820.505,220.458
				s157.277,129.538,154.594,255.295S809.754,599.588,809.754,725.376c0,111.257,162.657,109.085,165.339,220.306
				c2.683,111.227-157.266,115.501-154.583,226.728s162.631,106.953,165.314,218.18"/>
		</g>
		<g>
			<path fill="none" stroke="#6496C8" stroke-miterlimit="10" d="M1002.796-26.291C998.681,100.558,838.774,94.81,834.658,221.658
				s155.791,132.596,151.676,259.445C982.219,607.951,818.15,605.004,818.15,731.926c0,110.215,164.054,106.821,168.169,216.951
				c4.116,110.135-155.761,116.754-151.645,226.889c4.116,110.135,163.992,103.517,168.108,213.652"/>
		</g>
		<g>
			<path fill="none" stroke="#6496C8" stroke-miterlimit="10" d="M1019.752-25.325c-5.548,127.94-165.382,120.261-170.93,248.2
				s154.285,135.619,148.737,263.559c-5.548,127.94-171.014,123.968-171.014,252.041c0,109.195,165.434,104.536,170.982,213.574
				c5.549,109.044-154.222,118.05-148.674,227.094s165.32,100.037,170.868,209.081"/>
		</g>
		<g>
			<path fill="none" stroke="#6496C8" stroke-miterlimit="10" d="M1036.698-24.377c-6.981,129.031-166.723,119.456-173.704,248.488
				c-6.981,129.031,152.76,138.606,145.778,267.638S834.939,615.783,834.939,745.024c0,108.198,166.796,102.229,173.778,210.177
				c6.981,107.952-152.649,119.389-145.668,227.342c6.981,107.952,166.612,96.516,173.594,204.468"/>
		</g>
		<g>
			<path fill="none" stroke="#6496C8" stroke-miterlimit="10" d="M1053.635-23.447c-8.414,130.123-168.045,118.687-176.459,248.81
				s151.216,141.558,142.802,271.681c-8.414,130.123-176.644,124.104-176.644,254.528c0,107.222,168.141,99.902,176.555,206.757
				c8.414,106.861-151.039,120.77-142.625,227.631s167.868,92.952,176.282,199.813"/>
		</g>
		<g>
			<path fill="none" stroke="#6496C8" stroke-miterlimit="10" d="M1070.564-22.534c-9.847,131.214-169.35,117.953-179.198,249.168
				c-9.847,131.214,149.656,144.475,139.809,275.69c-9.847,131.214-179.446,124.175-179.446,255.799
				c0,106.271,169.466,97.552,179.312,203.318c9.847,105.769-149.39,122.193-139.543,227.962
				c9.847,105.769,169.085,89.346,178.932,195.115"/>
		</g>
		<g>
			<path fill="none" stroke="#6496C8" stroke-miterlimit="10" d="M1087.485-21.638c-11.28,132.306-170.64,117.255-181.92,249.56
				c-11.28,132.306,148.08,147.358,136.799,279.664s-182.24,124.249-182.24,257.086c0,105.344,170.77,95.183,182.05,199.857
				c11.28,104.678-147.7,123.657-136.42,228.335s170.261,85.699,181.541,190.377"/>
		</g>
		<g>
			<path fill="none" stroke="#6496C8" stroke-miterlimit="10" d="M1104.398-20.761c-12.713,133.397-171.914,116.589-184.627,249.987
				s146.488,150.206,133.775,283.603S868.52,637.154,868.519,771.22c0,104.442,172.053,92.794,184.766,196.376
				c12.713,103.586-145.968,125.161-133.255,228.748s171.395,82.012,184.108,185.598"/>
		</g>
		<g>
			<path fill="none" stroke="#6496C8" stroke-miterlimit="10" d="M1121.305-19.9c-14.146,134.489-173.174,115.958-187.32,250.447
				s144.882,153.019,130.737,287.509c-14.146,134.489-187.806,124.402-187.806,259.713c0,103.565,173.315,90.386,187.46,192.875
				c14.146,102.495-144.192,126.704-130.046,229.199s172.484,78.285,186.63,180.78"/>
		</g>
		<g>
			<path fill="none" stroke="#6496C8" stroke-miterlimit="10" d="M1138.204-19.055c-15.579,135.58-174.421,115.361-190,250.941
				s143.264,155.8,127.685,291.38C1060.31,658.847,885.31,647.749,885.31,784.318c0,102.716,174.552,87.958,190.131,189.356
				c15.579,101.403-142.369,128.286-126.79,229.689c15.579,101.404,173.527,74.521,189.107,175.924"/>
		</g>
		<g>
			<path fill="none" stroke="#6496C8" stroke-miterlimit="10" d="M1155.098-18.227C1138.086,118.444,979.442,96.569,962.43,233.24
				c-17.012,136.672,141.633,158.547,124.621,295.22S893.706,653.027,893.705,790.867c0,101.893,175.766,85.511,192.778,185.818
				c17.012,100.312-140.498,129.904-123.486,230.216c17.012,100.312,174.522,70.719,191.534,171.031"/>
		</g>
		<g>
			<path fill="none" stroke="#6496C8" stroke-miterlimit="10" d="M1171.985-17.415C1153.54,120.348,995.106,96.85,976.661,234.613
				c-18.445,137.764,139.99,161.263,121.545,299.027C1079.762,671.403,902.1,658.292,902.1,797.417
				c0,101.097,176.955,83.047,195.399,182.263c18.445,99.221-138.577,131.557-120.132,230.778s175.467,66.883,193.912,166.102"/>
		</g>
		<g>
			<path fill="none" stroke="#6496C8" stroke-miterlimit="10" d="M1188.868-16.619C1168.99,122.236,1010.776,97.145,990.899,236
				c-19.878,138.856,138.336,163.946,118.459,302.801c-19.878,138.856-198.862,124.742-198.862,265.165
				c0,100.33,178.118,80.567,197.995,178.691c19.878,98.129-136.605,133.245-116.727,231.374
				c19.878,98.129,176.361,63.013,196.239,161.141"/>
		</g>
		<g>
			<path fill="none" stroke="#6496C8" stroke-miterlimit="10" d="M1205.745-15.839c-21.311,139.946-179.294,113.295-200.605,253.242
				C983.829,377.35,1141.813,404,1120.503,543.947S918.89,668.782,918.89,810.514c0,99.591,179.255,78.069,200.565,175.103
				c21.311,97.038-134.579,134.964-113.268,232.001s177.2,59.11,198.511,156.148"/>
		</g>
		<g>
			<path fill="none" stroke="#6496C8" stroke-miterlimit="10" d="M1222.618-15.075c-22.743,141.037-180.487,112.858-203.231,253.896
				c-22.744,141.039,135,169.218,112.257,310.256C1108.9,690.116,927.285,674.008,927.285,817.063
				c0,98.883,180.363,75.558,203.106,171.499c22.744,95.945-132.497,136.713-109.753,232.659
				c22.744,95.945,177.985,55.179,200.729,151.124"/>
		</g>
		<g>
			<path fill="none" stroke="#6496C8" stroke-miterlimit="10" d="M1239.486-14.326c-24.176,142.129-181.672,112.451-205.848,254.58
				c-24.176,142.13,133.319,171.808,109.143,313.938s-207.1,125.031-207.101,269.419c0,98.204,181.443,73.033,205.619,167.882
				c24.177,94.854-130.359,138.489-106.182,233.343s178.712,51.219,202.889,146.073"/>
		</g>
		<g>
			<path fill="none" stroke="#6496C8" stroke-miterlimit="10" d="M1256.351-13.591c-25.609,143.22-182.849,112.074-208.458,255.294
				c-25.609,143.221,131.63,174.369,106.021,317.589c-25.609,143.221-209.838,125.133-209.838,270.869
				c0,97.556,182.494,70.494,208.103,164.252c25.61,93.762-128.162,140.291-102.552,234.053s179.382,47.234,204.991,140.996"/>
		</g>
		<g>
			<path fill="none" stroke="#6496C8" stroke-miterlimit="10" d="M1273.212-12.872c-27.042,144.312-184.018,111.726-211.06,256.039
				s129.934,176.899,102.891,321.212C1138,708.692,952.471,689.618,952.47,836.711c0,96.939,183.516,67.945,210.557,160.611
				c27.043,92.671-125.906,142.115-98.863,234.786s179.991,43.226,207.034,135.898"/>
		</g>
		<g>
			<path fill="none" stroke="#6496C8" stroke-miterlimit="10" d="M1290.069-12.166c-28.475,145.403-185.181,111.407-213.656,256.811
				s128.231,179.401,99.755,324.805S960.866,694.798,960.865,843.259c0,96.355,184.506,65.385,212.98,156.961
				c28.476,91.579-123.588,143.959-95.112,235.539s180.539,39.199,209.015,130.778"/>
		</g>
		<g>
			<path fill="none" stroke="#6496C8" stroke-miterlimit="10" d="M1306.923-11.475c-29.908,146.495-186.337,111.116-216.245,257.611
				c-29.908,146.496,126.521,181.874,96.613,328.37S969.261,699.968,969.26,849.808c0,95.803,185.466,62.818,215.373,153.302
				c29.909,90.488-121.208,145.821-91.3,236.309c29.909,90.488,181.025,35.155,210.934,125.643"/>
		</g>
		<g>
			<path fill="none" stroke="#6496C8" stroke-miterlimit="10" d="M1323.775-10.797c-31.341,147.586-187.488,110.853-218.829,258.44
				s124.806,184.321,93.465,331.908c-31.341,147.587-220.755,125.578-220.756,276.807c0,95.284,186.393,60.243,217.733,149.636
				c31.341,89.396-118.765,147.696-87.424,237.092c31.341,89.396,181.448,31.097,212.789,120.493"/>
		</g>
		<g>
			<path fill="none" stroke="#6496C8" stroke-miterlimit="10" d="M1340.624-10.134c-32.774,148.679-188.634,110.617-221.408,259.296
				c-32.774,148.679,123.086,186.74,90.312,335.418S986.051,710.279,986.05,862.907c0,94.799,187.289,57.663,220.062,145.963
				c32.774,88.305-116.258,149.582-83.483,237.887s181.807,27.028,214.581,115.333"/>
		</g>
		<g>
			<path fill="none" stroke="#6496C8" stroke-miterlimit="10" d="M1357.47-9.484c-34.207,149.77-189.775,110.408-223.982,260.178
				c-34.207,149.77,121.361,189.132,87.154,338.902c-34.207,149.77-226.197,125.822-226.198,279.859
				c0,94.349,188.152,55.079,222.358,142.289c34.207,87.213-113.686,151.474-79.478,238.688
				c34.208,87.213,182.1,22.952,216.308,110.166"/>
		</g>
		<g>
			<path fill="none" stroke="#6496C8" stroke-miterlimit="10" d="M1374.315-8.846c-35.64,150.862-190.912,110.225-226.551,261.087
				c-35.64,150.862,119.632,191.498,83.992,342.359s-228.915,125.95-228.916,281.404c0,93.933,188.983,52.494,224.622,138.611
				c35.64,86.122-111.049,153.372-75.408,239.494c35.64,86.122,182.329,18.872,217.969,104.994"/>
		</g>
		<g>
			<path fill="none" stroke="#6496C8" stroke-miterlimit="10" d="M1391.158-8.222c-37.073,151.953-192.045,110.067-229.117,262.02
				c-37.073,151.953,117.899,193.839,80.827,345.792c-37.073,151.953-231.631,126.08-231.631,282.963
				c0,93.552,189.781,49.908,226.853,134.934c37.073,85.031-108.346,155.269-71.273,240.299s182.492,14.792,219.566,99.823"/>
		</g>
		<g>
			<path fill="none" stroke="#6496C8" stroke-miterlimit="10" d="M1407.999-7.61c-38.505,153.045-193.174,109.934-231.68,262.979
				s116.163,196.154,77.658,349.199s-234.345,126.215-234.346,284.535c0,93.206,190.546,47.324,229.051,131.258
				c38.506,83.939-105.578,157.162-67.072,241.101s182.59,10.716,221.096,94.655"/>
		</g>
		<g>
			<path fill="none" stroke="#6496C8" stroke-miterlimit="10" d="M1424.838-7.01c-39.938,154.136-194.301,109.827-234.239,263.962
				c-39.938,154.136,114.424,198.445,74.485,352.582c-39.938,154.136-237.057,126.352-237.058,286.118
				c0,92.898,191.279,44.744,231.216,127.587c39.939,82.847-102.744,159.048-62.805,241.896s182.623,6.647,222.562,89.494"/>
		</g>
		<g>
			<path fill="none" stroke="#6496C8" stroke-miterlimit="10" d="M1441.676-6.422c-41.371,155.228-195.425,109.743-236.796,264.969
				c-41.371,155.228,112.682,200.713,71.311,355.94S1036.422,740.98,1036.421,902.2c0,92.625,191.979,42.168,233.349,123.921
				c41.372,81.756-99.846,160.923-58.474,242.679s182.59,2.588,223.962,84.344"/>
		</g>
		<g>
			<path fill="none" stroke="#6496C8" stroke-miterlimit="10" d="M1458.513-5.846c-42.804,156.319-196.546,109.682-239.351,266.001
				c-42.804,156.319,110.938,202.957,68.133,359.276s-242.479,126.637-242.48,289.32c-0.001,92.389,192.647,39.601,235.45,120.263
				c42.805,80.665-96.883,162.783-54.078,243.446c42.805,80.665,182.493-1.453,225.298,79.21"/>
		</g>
		<g>
			<path fill="none" stroke="#6496C8" stroke-miterlimit="10" d="M1475.349-5.281c-44.237,157.411-197.666,109.644-241.903,267.054
				c-44.237,157.411,109.192,205.177,64.954,362.589s-245.188,126.785-245.189,290.937c-0.001,92.19,193.284,37.045,237.52,116.614
				c44.238,79.573-93.858,164.624-49.62,244.196c44.238,79.573,182.334-5.477,226.572,74.095"/>
		</g>
		<g>
			<path fill="none" stroke="#6496C8" stroke-miterlimit="10" d="M1492.184-4.728c-45.67,158.502-198.784,109.628-244.454,268.13
				c-45.67,158.502,107.443,207.376,61.773,365.878s-247.896,126.936-247.897,292.568c0,92.029,193.889,34.499,239.558,112.976
				c45.671,78.482-90.77,166.441-45.099,244.922c45.671,78.48,182.112-9.478,227.782,69.002"/>
		</g>
		<g>
			<path fill="none" stroke="#6496C8" stroke-miterlimit="10" d="M1509.018-4.185c-47.103,159.594-199.9,109.634-247.003,269.228
				s105.694,209.553,58.591,369.147s-250.604,127.09-250.605,294.208c-0.001,91.904,194.464,31.965,241.566,109.351
				c47.104,77.389-87.621,168.232-40.517,245.622s181.829-13.452,228.933,63.937"/>
		</g>
		<g>
			<path fill="none" stroke="#6496C8" stroke-miterlimit="10" d="M1525.852-3.653c-48.536,160.685-201.015,109.662-249.551,270.347
				s103.943,211.708,55.407,372.393s-253.311,127.248-253.312,295.859c-0.001,91.817,195.01,29.449,243.544,105.743
				c48.537,76.298-84.413,169.993-35.877,246.29c48.537,76.298,181.487-17.396,230.024,58.902"/>
		</g>
		<g>
			<path fill="none" stroke="#6496C8" stroke-miterlimit="10" d="M1542.685-3.132c-49.969,161.776-202.13,109.71-252.099,271.487
				s102.192,213.843,52.223,375.619s-256.017,127.409-256.018,297.52c-0.001,91.769,195.526,26.948,245.494,102.151
				c49.97,75.206-81.148,171.719-31.179,246.925c49.97,75.206,181.088-21.305,231.058,53.902"/>
		</g>
		<g>
			<path fill="none" stroke="#6496C8" stroke-miterlimit="10" d="M1559.518-2.62c-51.402,162.868-203.244,109.78-254.645,272.647
				c-51.402,162.868,100.44,215.956,49.038,378.825s-258.724,127.573-258.725,299.192c-0.001,91.757,196.016,24.466,247.416,98.579
				c51.403,74.115-77.828,173.407-26.426,247.522c51.403,74.115,180.634-25.177,232.036,48.938"/>
		</g>
		<g>
			<path fill="none" stroke="#6496C8" stroke-miterlimit="10" d="M1576.351-2.119c-52.835,163.959-204.357,109.869-257.191,273.828
				c-52.835,163.959,98.687,218.051,45.852,382.01s-261.429,127.74-261.431,300.874c-0.001,91.783,196.479,22.006,249.312,95.026
				c52.836,73.023-74.455,175.053-21.62,248.077c52.836,73.023,180.127-29.006,232.962,44.017"/>
		</g>
		<g>
			<path fill="none" stroke="#6496C8" stroke-miterlimit="10" d="M1593.183-1.628c-54.268,165.051-205.47,109.977-259.737,275.028
				c-54.268,165.052,96.934,220.125,42.667,385.176c-54.268,165.051-264.135,127.91-264.136,302.566
				c-0.001,91.848,196.916,19.568,251.182,91.496c54.269,71.932-71.032,176.656-16.764,248.588s179.569-32.792,233.838,39.14"/>
		</g>
		<g>
			<path fill="none" stroke="#6496C8" stroke-miterlimit="10" d="M1610.016-1.146c-55.7,166.142-206.582,110.105-262.283,276.247
				c-55.701,166.143,95.181,222.181,39.481,388.323s-266.841,128.083-266.842,304.266c-0.001,91.95,197.33,17.153,253.029,87.99
				c55.702,70.84-67.561,178.211-11.859,249.051c55.701,70.84,178.964-36.529,234.665,34.311"/>
		</g>
		<g>
			<path fill="none" stroke="#6496C8" stroke-miterlimit="10" d="M1626.849-0.673c-57.133,167.234-207.695,110.251-264.829,277.485
				c-57.134,167.235,93.428,224.218,36.295,391.452c-57.134,167.235-269.547,128.259-269.548,305.977
				c-0.001,92.089,197.722,14.764,254.853,84.509c57.134,69.749-64.045,179.714-6.911,249.464
				c57.134,69.749,178.314-40.216,235.448,29.533"/>
		</g>
		<g>
			<path fill="none" stroke="#6496C8" stroke-miterlimit="10" d="M1643.681-0.209c-58.566,168.325-208.809,110.415-267.375,278.741
				c-58.567,168.326,91.676,226.236,33.109,394.563c-58.566,168.326-272.253,128.438-272.254,307.695
				c-0.001,92.266,198.092,12.401,256.657,81.056c58.567,68.657-60.487,181.165-1.92,249.822s177.622-43.849,236.189,24.808"/>
		</g>
	</g>
</g>
</svg>
