<?xml version="1.0" encoding="utf-8"?>
<!-- Generator: Adobe Illustrator 17.0.0, SVG Export Plug-In . SVG Version: 6.00 Build 0)  -->
<!DOCTYPE svg PUBLIC "-//W3C//DTD SVG 1.1//EN" "http://www.w3.org/Graphics/SVG/1.1/DTD/svg11.dtd">
<svg version="1.1" id="Layer_1" xmlns="http://www.w3.org/2000/svg" xmlns:xlink="http://www.w3.org/1999/xlink" x="0px" y="0px"
	 width="1827.445px" height="1331.53px" viewBox="0 0 1827.445 1331.53" enable-background="new 0 0 1827.445 1331.53"
	 xml:space="preserve">
<g opacity="0.5">
	<g>
		<g>
			<path fill="none" stroke="#2D376E" stroke-miterlimit="10" d="M1719.862,1345.369c-81.777-141.687-206.174-61.789-287.95-203.475
				s42.621-221.584-39.156-363.271c-81.776-141.685-206.173-61.787-287.949-203.473c-81.776-141.684,42.621-221.581-39.153-363.265
				C983.881,70.204,859.484,150.101,777.711,8.42"/>
		</g>
		<g>
			<path fill="none" stroke="#2D376E" stroke-miterlimit="10" d="M1704.602,1345.733c-80.768-141.687-205.576-62.51-286.344-204.198
				c-80.768-141.687,44.045-220.862-36.723-362.549c-80.768-141.687-205.579-62.512-286.345-204.198
				c-80.765-141.683,44.046-220.858-36.719-362.541C977.706,70.566,852.895,149.74,772.132,8.059"/>
		</g>
		<g>
			<path fill="none" stroke="#2D376E" stroke-miterlimit="10" d="M1689.34,1346.098c-79.757-141.687-204.982-63.242-284.739-204.929
				s45.468-220.131-34.289-361.818c-79.757-141.686-204.982-63.242-284.739-204.928c-79.755-141.684,45.47-220.128-34.286-361.812
				C971.533,70.93,846.308,149.375,766.554,7.694"/>
		</g>
		<g>
			<path fill="none" stroke="#2D376E" stroke-miterlimit="10" d="M1674.08,1346.467c-78.747-141.686-204.382-63.979-283.131-205.666
				s46.889-219.393-31.859-361.08c-78.747-141.687-204.385-63.98-283.132-205.666c-78.746-141.683,46.892-219.39-31.854-361.074
				C965.358,71.3,839.72,149.006,760.975,7.325"/>
		</g>
		<g>
			<path fill="none" stroke="#2D376E" stroke-miterlimit="10" d="M1658.819,1346.839
				c-77.738-141.686-203.787-64.724-281.525-206.411s48.311-218.648-29.427-360.335s-203.787-64.725-281.525-206.411
				c-77.737-141.683,48.314-218.644-29.423-360.328C959.184,71.672,833.134,148.633,755.399,6.952"/>
		</g>
		<g>
			<path fill="none" stroke="#2D376E" stroke-miterlimit="10" d="M1643.556,1347.215
				c-76.729-141.687-203.189-65.477-279.916-207.162c-76.727-141.686,49.732-217.896-26.997-359.583
				c-76.73-141.686-203.189-65.477-279.917-207.163c-76.727-141.684,49.733-217.893-26.994-359.577
				C953.005,72.049,826.546,148.257,749.82,6.576"/>
		</g>
		<g>
			<path fill="none" stroke="#2D376E" stroke-miterlimit="10" d="M1628.293,1347.593
				c-75.719-141.687-202.586-66.237-278.305-207.924s51.15-217.135-24.569-358.822c-75.718-141.685-202.586-66.236-278.305-207.922
				c-75.718-141.684,51.151-217.133-24.567-358.816C946.83,72.428,819.961,147.877,744.245,6.196"/>
		</g>
		<g>
			<path fill="none" stroke="#2D376E" stroke-miterlimit="10" d="M1613.029,1347.977c-74.71-141.686-201.984-67.006-276.693-208.691
				s52.566-216.368-22.143-358.055c-74.71-141.685-201.985-67.003-276.693-208.689c-74.708-141.684,52.567-216.365-22.141-358.049
				C940.651,72.812,813.376,147.494,738.67,5.813"/>
		</g>
		<g>
			<path fill="none" stroke="#2D376E" stroke-miterlimit="10" d="M1597.764,1348.364c-73.699-141.686-201.38-67.778-275.08-209.465
				s53.98-215.595-19.719-357.281c-73.7-141.687-201.381-67.778-275.08-209.464c-73.699-141.682,53.984-215.59-19.715-357.274
				C934.474,73.198,806.793,147.107,733.096,5.426"/>
		</g>
		<g>
			<path fill="none" stroke="#2D376E" stroke-miterlimit="10" d="M1582.5,1348.757c-72.692-141.687-200.776-68.562-273.467-210.248
				s55.394-214.812-17.296-356.499c-72.689-141.687-200.775-68.56-273.464-210.246c-72.688-141.683,55.398-214.809-17.291-356.493
				C928.294,73.589,800.208,146.716,727.522,5.035"/>
		</g>
		<g>
			<path fill="none" stroke="#2D376E" stroke-miterlimit="10" d="M1567.232,1349.151c-71.68-141.686-200.168-69.349-271.848-211.036
				s56.807-214.025-14.874-355.711s-200.168-69.349-271.848-211.035c-71.678-141.683,56.807-214.02-14.871-355.704
				C922.112,73.984,793.625,146.321,721.948,4.64"/>
		</g>
		<g>
			<path fill="none" stroke="#2D376E" stroke-miterlimit="10" d="M1551.965,1349.549c-70.672-141.687-199.559-70.145-270.23-211.833
				c-70.67-141.687,58.216-213.227-12.455-354.914c-70.67-141.685-199.558-70.145-270.228-211.831
				c-70.669-141.684,58.217-213.224-12.452-354.907C915.933,74.383,787.044,145.923,716.376,4.242"/>
		</g>
		<g>
			<path fill="none" stroke="#2D376E" stroke-miterlimit="10" d="M1536.696,1349.953
				c-69.661-141.687-198.949-70.951-268.609-212.637s59.624-212.423-10.037-354.11c-69.659-141.687-198.946-70.95-268.607-212.636
				c-69.66-141.683,59.625-212.42-10.034-354.103C909.751,74.784,780.465,145.52,710.806,3.839"/>
		</g>
		<g>
			<path fill="none" stroke="#2D376E" stroke-miterlimit="10" d="M1521.428,1350.357
				c-68.651-141.687-198.334-71.763-266.985-213.449s61.03-211.611-7.622-353.297c-68.653-141.686-198.334-71.761-266.985-213.449
				c-68.65-141.684,61.031-211.608-7.619-353.292C903.568,75.19,773.885,145.114,705.237,3.433"/>
		</g>
		<g>
			<path fill="none" stroke="#2D376E" stroke-miterlimit="10" d="M1506.157,1350.766c-67.642-141.687-197.716-72.582-265.36-214.268
				c-67.643-141.686,62.432-210.791-5.21-352.478c-67.642-141.685-197.716-72.581-265.36-214.267
				c-67.641-141.683,62.435-210.788-5.205-352.472C897.382,75.599,767.306,144.704,699.667,3.024"/>
		</g>
		<g>
			<path fill="none" stroke="#2D376E" stroke-miterlimit="10" d="M1490.884,1351.18c-66.631-141.686-197.099-73.406-263.731-215.094
				s63.834-209.966-2.799-351.653c-66.633-141.686-197.099-73.407-263.731-215.093c-66.631-141.683,63.835-209.962-2.796-351.646
				C891.197,76.013,760.729,144.292,694.099,2.611"/>
		</g>
		<g>
			<path fill="none" stroke="#2D376E" stroke-miterlimit="10" d="M1475.61,1351.596c-65.622-141.687-196.481-74.241-262.103-215.928
				s65.234-209.132-0.389-350.818s-196.479-74.241-262.102-215.927c-65.622-141.684,65.235-209.129-0.386-350.813
				C885.008,76.43,754.153,143.874,688.532,2.193"/>
		</g>
		<g>
			<path fill="none" stroke="#2D376E" stroke-miterlimit="10" d="M1460.338,1352.018
				c-64.614-141.687-195.857-75.082-260.471-216.769s66.63-208.291,2.016-349.978s-195.856-75.083-260.469-216.769
				c-64.612-141.684,66.631-208.287,2.019-349.971C878.822,76.851,747.579,143.454,682.968,1.773"/>
		</g>
		<g>
			<path fill="none" stroke="#2D376E" stroke-miterlimit="10" d="M1445.062,1352.442c-63.604-141.687-195.23-75.932-258.834-217.619
				s68.023-207.441,4.419-349.128c-63.604-141.685-195.231-75.931-258.834-217.617c-63.603-141.684,68.024-207.438,4.422-349.122
				C872.633,77.275,741.006,143.029,677.405,1.348"/>
		</g>
		<g>
			<path fill="none" stroke="#2D376E" stroke-miterlimit="10" d="M1429.783,1352.868
				c-62.593-141.687-194.603-76.788-257.196-218.474s69.415-206.584,6.82-348.271c-62.593-141.686-194.601-76.788-257.196-218.474
				c-62.593-141.684,69.416-206.582,6.823-348.266C866.442,77.702,734.434,142.601,671.842,0.92"/>
		</g>
		<g>
			<path fill="none" stroke="#2D376E" stroke-miterlimit="10" d="M1414.508,1353.301c-61.585-141.685-193.971-77.65-255.557-219.337
				s70.802-205.722,9.217-347.408c-61.585-141.685-193.971-77.65-255.555-219.336c-61.584-141.683,70.802-205.718,9.22-347.402
				C860.252,78.136,727.864,142.17,666.282,0.489"/>
		</g>
		<g>
			<path fill="none" stroke="#2D376E" stroke-miterlimit="10" d="M1399.227,1353.739
				c-60.576-141.687-193.336-78.524-253.912-220.211s72.186-204.85,11.612-346.538s-193.336-78.523-253.912-220.209
				c-60.574-141.683,72.187-204.847,11.614-346.53C854.056,78.57,721.294,141.734,660.721,0.053"/>
		</g>
		<g>
			<path fill="none" stroke="#2D376E" stroke-miterlimit="10" d="M1383.946,1354.178c-59.565-141.685-192.701-79.4-252.266-221.087
				s73.568-203.972,14.003-345.659s-192.7-79.402-252.264-221.088c-59.565-141.683,73.57-203.968,14.006-345.652
				C847.862,79.011,714.727,141.296,655.164-0.385"/>
		</g>
		<g>
			<path fill="none" stroke="#2D376E" stroke-miterlimit="10" d="M1368.664,1354.618
				c-58.555-141.687-192.061-80.286-250.617-221.974s74.949-203.086,16.392-344.772c-58.556-141.686-192.06-80.286-250.615-221.972
				c-58.554-141.684,74.949-203.082,16.395-344.766C841.666,79.453,708.162,140.851,649.608-0.83"/>
		</g>
		<g>
			<path fill="none" stroke="#2D376E" stroke-miterlimit="10" d="M1353.379,1355.066
				c-57.546-141.687-191.416-81.181-248.962-222.867s76.324-202.193,18.778-343.879s-191.416-81.18-248.962-222.866
				c-57.545-141.684,76.324-202.19,18.78-343.874C835.466,79.899,701.597,140.405,644.053-1.276"/>
		</g>
		<g>
			<path fill="none" stroke="#2D376E" stroke-miterlimit="10" d="M1338.093,1355.516
				c-56.537-141.687-190.767-82.081-247.305-223.768s77.695-201.292,21.159-342.979c-56.537-141.686-190.77-82.08-247.306-223.766
				c-56.535-141.684,77.697-201.29,21.162-342.973C829.266,80.349,695.035,139.955,638.499-1.726"/>
		</g>
		<g>
			<path fill="none" stroke="#2D376E" stroke-miterlimit="10" d="M1322.804,1355.971
				c-55.527-141.686-190.119-82.988-245.645-224.675c-55.527-141.686,79.064-200.384,23.537-342.071S910.576,706.236,855.05,564.55
				c-55.526-141.683,79.065-200.381,23.539-342.065C823.064,80.803,688.473,139.502,632.947-2.179"/>
		</g>
		<g>
			<path fill="none" stroke="#2D376E" stroke-miterlimit="10" d="M1307.515,1356.428
				c-54.518-141.685-189.466-83.903-243.984-225.589c-54.518-141.687,80.429-199.469,25.912-341.157
				c-54.518-141.687-189.463-83.904-243.981-225.59c-54.516-141.682,80.431-199.466,25.915-341.15
				C816.86,81.261,681.914,139.043,627.398-2.637"/>
		</g>
		<g>
			<path fill="none" stroke="#2D376E" stroke-miterlimit="10" d="M1292.223,1356.889
				c-53.508-141.687-188.807-84.825-242.317-226.513c-53.508-141.685,81.791-198.547,28.283-340.233
				c-53.507-141.686-188.806-84.826-242.314-226.512c-53.505-141.684,81.792-198.544,28.286-340.228
				C810.655,81.723,675.357,138.582,621.85-3.098"/>
		</g>
		<g>
			<path fill="none" stroke="#2D376E" stroke-miterlimit="10" d="M1276.93,1357.352c-52.499-141.687-188.144-85.755-240.643-227.442
				c-52.499-141.686,83.148-197.617,30.65-339.303c-52.499-141.686-188.144-85.755-240.645-227.44
				c-52.496-141.685,83.15-197.615,30.652-339.299C804.447,82.187,668.802,138.117,616.305-3.564"/>
		</g>
		<g>
			<path fill="none" stroke="#2D376E" stroke-miterlimit="10" d="M1261.634,1357.823c-51.489-141.687-187.48-86.692-238.969-228.379
				s84.502-196.682,33.012-338.367c-51.489-141.685-187.479-86.691-238.967-228.378c-51.487-141.683,84.503-196.677,33.015-338.361
				C798.239,82.656,662.249,137.65,610.761-4.031"/>
		</g>
		<g>
			<path fill="none" stroke="#2D376E" stroke-miterlimit="10" d="M1246.335,1358.294
				c-50.479-141.687-186.808-87.635-237.287-229.323c-50.48-141.687,85.849-195.737,35.371-337.424
				C993.94,649.862,857.61,703.912,807.13,562.227c-50.477-141.684,85.852-195.734,35.374-337.418
				C792.027,83.127,655.697,137.178,605.22-4.503"/>
		</g>
		<g>
			<path fill="none" stroke="#2D376E" stroke-miterlimit="10" d="M1231.036,1358.769c-49.47-141.686-186.135-88.586-235.604-230.273
				s87.194-194.786,37.725-336.473c-49.47-141.685-186.135-88.585-235.604-230.271c-49.468-141.684,87.197-194.783,37.728-336.467
				c-49.468-141.681-186.133-88.582-235.6-230.263"/>
		</g>
		<g>
			<path fill="none" stroke="#2D376E" stroke-miterlimit="10" d="M1215.735,1359.25c-48.46-141.687-185.456-89.544-233.917-231.231
				c-48.459-141.687,88.535-193.829,40.076-335.516c-48.46-141.687-185.456-89.545-233.915-231.23
				c-48.46-141.683,88.537-193.826,40.077-335.51C779.598,84.081,642.602,136.224,594.144-5.457"/>
		</g>
		<g>
			<path fill="none" stroke="#2D376E" stroke-miterlimit="10" d="M1200.43,1359.731c-47.45-141.687-184.772-90.509-232.222-232.196
				c-47.452-141.687,89.871-192.864,42.421-334.551c-47.451-141.686-184.773-90.509-232.224-232.195
				c-47.449-141.684,89.873-192.861,42.423-334.545C773.379,84.564,636.057,135.741,588.608-5.94"/>
		</g>
		<g>
			<path fill="none" stroke="#2D376E" stroke-miterlimit="10" d="M1185.123,1360.217c-46.441-141.687-184.085-91.48-230.527-233.167
				c-46.441-141.686,91.203-191.893,44.763-333.579c-46.439-141.685-184.085-91.48-230.525-233.166
				c-46.441-141.684,91.205-191.89,44.764-333.574C767.159,85.05,629.515,135.256,583.076-6.425"/>
		</g>
		<g>
			<path fill="none" stroke="#2D376E" stroke-miterlimit="10" d="M1169.814,1360.707
				c-45.431-141.687-183.393-92.458-228.824-234.146c-45.431-141.687,92.529-190.915,47.098-332.602
				s-183.393-92.458-228.824-234.144c-45.43-141.683,92.532-190.911,47.101-332.595c-45.428-141.682-183.39-92.454-228.82-234.135"
				/>
		</g>
		<g>
			<path fill="none" stroke="#2D376E" stroke-miterlimit="10" d="M1154.5,1361.2c-44.422-141.686-182.695-93.443-227.117-235.13
				s93.852-189.93,49.431-331.617c-44.42-141.687-182.694-93.444-227.116-235.13c-44.422-141.682,93.854-189.926,49.432-331.609
				C754.711,86.032,616.437,134.274,572.017-7.407"/>
		</g>
		<g>
			<path fill="none" stroke="#2D376E" stroke-miterlimit="10" d="M1139.19,1361.692c-43.412-141.686-181.994-94.434-225.406-236.121
				c-43.411-141.687,95.17-188.938,51.757-330.624c-43.412-141.686-181.993-94.435-225.405-236.121
				c-43.411-141.684,95.171-188.935,51.759-330.619c-43.411-141.68-181.992-94.43-225.403-236.111"/>
		</g>
		<g>
			<path fill="none" stroke="#2D376E" stroke-miterlimit="10" d="M1123.874,1362.194c-42.403-141.687-181.286-95.434-223.689-237.12
				c-42.404-141.686,96.48-187.94,54.078-329.626c-42.403-141.687-181.286-95.434-223.689-237.12
				c-42.401-141.682,96.482-187.936,54.08-329.62c-42.4-141.683-181.283-95.429-223.685-237.11"/>
		</g>
		<g>
			<path fill="none" stroke="#2D376E" stroke-miterlimit="10" d="M1108.554,1362.694
				c-41.392-141.687-180.573-96.437-221.967-238.124c-41.392-141.687,97.788-186.935,56.395-328.621
				c-41.392-141.686-180.573-96.437-221.965-238.123c-41.392-141.684,97.788-186.932,56.396-328.615
				C736.021,87.528,596.841,132.776,555.449-8.905"/>
		</g>
		<g>
			<path fill="none" stroke="#2D376E" stroke-miterlimit="10" d="M1093.23,1363.2c-40.383-141.686-179.854-97.448-220.238-239.135
				c-40.384-141.686,99.089-185.923,58.705-327.61C891.315,654.769,751.843,699.006,711.46,557.32
				c-40.382-141.684,99.089-185.921,58.707-327.604C729.785,88.034,590.314,132.271,549.931-9.41"/>
		</g>
		<g>
			<path fill="none" stroke="#2D376E" stroke-miterlimit="10" d="M1077.908,1363.709
				c-39.373-141.686-179.132-98.465-218.506-240.153c-39.374-141.687,100.385-184.907,61.01-326.593
				c-39.373-141.686-179.131-98.466-218.505-240.152c-39.373-141.682,100.385-184.902,61.012-326.586
				C723.547,88.543,583.788,131.762,544.416-9.919"/>
		</g>
		<g>
			<path fill="none" stroke="#2D376E" stroke-miterlimit="10" d="M1062.582,1364.22c-38.365-141.686-178.403-99.489-216.768-241.176
				c-38.364-141.687,101.676-183.883,63.311-325.57s-178.403-99.49-216.768-241.176c-38.363-141.683,101.676-183.88,63.313-325.564
				C717.306,89.053,577.266,131.25,538.904-10.431"/>
		</g>
		<g>
			<path fill="none" stroke="#2D376E" stroke-miterlimit="10" d="M1047.252,1364.736
				c-37.355-141.687-177.669-100.52-215.023-242.207c-37.355-141.685,102.959-182.853,65.605-324.539
				c-37.355-141.686-177.67-100.52-215.024-242.206C645.456,414.1,785.77,372.934,748.416,231.25
				C711.062,89.569,570.747,130.735,533.395-10.946"/>
		</g>
		<g>
			<path fill="none" stroke="#2D376E" stroke-miterlimit="10" d="M1031.919,1365.254
				c-36.346-141.686-176.929-101.555-213.274-243.241c-36.345-141.687,104.24-181.817,67.894-323.504
				C850.194,656.823,709.61,696.954,673.265,555.268c-36.345-141.682,104.24-181.813,67.895-323.497
				C704.816,90.087,564.231,130.218,527.888-11.462"/>
		</g>
		<g>
			<path fill="none" stroke="#2D376E" stroke-miterlimit="10" d="M1016.584,1365.773
				c-35.337-141.686-176.182-102.596-211.519-244.283c-35.335-141.687,105.513-180.776,70.177-322.462
				c-35.337-141.686-176.184-102.597-211.519-244.283c-35.335-141.684,105.513-180.773,70.178-322.456
				C698.568,90.608,557.719,129.697,522.386-11.984"/>
		</g>
		<g>
			<path fill="none" stroke="#2D376E" stroke-miterlimit="10" d="M1001.244,1366.3c-34.326-141.687-175.431-103.645-209.757-245.332
				S898.265,941.24,863.94,799.553c-34.324-141.685-175.43-103.644-209.756-245.33c-34.326-141.684,106.78-179.725,72.454-321.409
				c-34.324-141.681-175.43-103.64-209.754-245.321"/>
		</g>
		<g>
			<path fill="none" stroke="#2D376E" stroke-miterlimit="10" d="M985.902,1366.826
				c-33.316-141.687-174.672-104.698-207.988-246.385c-33.316-141.687,108.04-178.675,74.723-320.362
				C819.32,658.393,677.965,695.381,644.648,553.695c-33.316-141.684,108.04-178.672,74.725-320.356
				C686.058,91.658,544.701,128.647,511.386-13.034"/>
		</g>
		<g>
			<path fill="none" stroke="#2D376E" stroke-miterlimit="10" d="M970.556,1367.353
				c-32.307-141.687-173.907-105.755-206.214-247.441c-32.307-141.687,109.295-177.617,76.988-319.303
				S667.423,694.854,635.116,553.168c-32.307-141.685,109.294-177.614,76.988-319.297
				C679.799,92.188,538.197,128.118,505.892-13.563"/>
		</g>
		<g>
			<path fill="none" stroke="#2D376E" stroke-miterlimit="10" d="M955.208,1367.887c-31.296-141.687-173.136-106.82-204.432-248.507
				c-31.297-141.687,110.543-176.553,79.245-318.24c-31.297-141.687-173.137-106.821-204.435-248.507
				C594.29,410.95,736.13,376.084,704.834,234.4C673.538,92.719,531.698,127.585,500.402-14.096"/>
		</g>
		<g>
			<path fill="none" stroke="#2D376E" stroke-miterlimit="10" d="M939.859,1368.419c-30.288-141.686-172.36-107.89-202.648-249.575
				c-30.287-141.687,111.786-175.483,81.498-317.17C788.422,659.99,646.35,693.785,616.062,552.099
				c-30.287-141.684,111.784-175.48,81.498-317.164C667.273,93.254,525.201,127.05,494.914-14.631"/>
		</g>
		<g>
			<path fill="none" stroke="#2D376E" stroke-miterlimit="10" d="M924.504,1368.959
				c-29.278-141.687-171.576-108.964-200.855-250.651s113.019-174.409,83.742-316.096
				c-29.278-141.686-171.576-108.964-200.855-250.65c-29.277-141.684,113.021-174.405,83.744-316.089
				C661.005,93.792,518.705,126.514,489.428-15.167"/>
		</g>
		<g>
			<path fill="none" stroke="#2D376E" stroke-miterlimit="10" d="M909.146,1369.498
				c-28.269-141.686-170.786-110.045-199.055-251.731s114.249-173.329,85.98-315.015
				c-28.269-141.687-170.786-110.044-199.055-251.73c-28.268-141.683,114.25-173.326,85.983-315.009
				C654.731,94.331,512.213,125.974,483.946-15.707"/>
		</g>
		<g>
			<path fill="none" stroke="#2D376E" stroke-miterlimit="10" d="M893.784,1370.04c-27.26-141.687-169.989-111.129-197.249-252.815
				c-27.26-141.686,115.472-172.244,88.212-313.93C757.489,661.609,614.758,692.166,587.5,550.48
				c-27.257-141.684,115.473-172.242,88.215-313.925C648.456,94.874,505.725,125.432,478.469-16.249"/>
		</g>
		<g>
			<path fill="none" stroke="#2D376E" stroke-miterlimit="10" d="M878.421,1370.587
				c-26.249-141.687-169.185-112.218-195.435-253.905s116.686-171.156,90.437-312.843
				c-26.249-141.687-169.186-112.218-195.435-253.904C551.74,408.252,694.676,378.784,668.427,237.1
				C642.18,95.418,499.244,124.887,472.995-16.794"/>
		</g>
		<g>
			<path fill="none" stroke="#2D376E" stroke-miterlimit="10" d="M863.052,1371.133
				c-25.239-141.687-168.375-113.312-193.614-254.999s117.895-170.061,92.656-311.748
				C736.853,662.701,593.719,691.075,568.48,549.389c-25.239-141.685,117.895-170.058,92.656-311.742
				C635.896,95.966,492.762,124.34,467.523-17.341"/>
		</g>
		<g>
			<path fill="none" stroke="#2D376E" stroke-miterlimit="10" d="M847.682,1371.68c-24.23-141.686-167.558-114.41-191.788-256.099
				c-24.23-141.685,119.095-168.962,94.866-310.648c-24.23-141.685-167.556-114.41-191.786-256.096
				c-24.23-141.684,119.097-168.959,94.867-310.643C629.611,96.515,486.284,123.79,462.056-17.891"/>
		</g>
		<g>
			<path fill="none" stroke="#2D376E" stroke-miterlimit="10" d="M832.304,1372.233c-23.22-141.685-166.731-115.513-189.951-257.199
				c-23.22-141.687,120.291-167.86,97.07-309.547c-23.22-141.687-166.731-115.514-189.951-257.2
				c-23.222-141.682,120.289-167.856,97.07-309.54C623.323,97.066,479.811,123.239,456.592-18.442"/>
		</g>
		<g>
			<path fill="none" stroke="#2D376E" stroke-miterlimit="10" d="M816.926,1372.786c-22.211-141.687-165.899-116.62-188.11-258.307
				s121.478-166.752,99.267-308.439c-22.211-141.686-165.899-116.62-188.11-258.306C517.762,406.05,661.45,380.984,639.241,239.3
				C617.031,97.619,473.342,122.685,451.132-18.996"/>
		</g>
		<g>
			<path fill="none" stroke="#2D376E" stroke-miterlimit="10" d="M801.544,1373.343c-21.201-141.686-165.06-117.731-186.262-259.418
				C594.081,972.237,737.94,948.283,716.738,806.596c-21.2-141.687-165.059-117.732-186.26-259.418
				c-21.2-141.683,122.657-165.638,101.457-307.321C610.734,98.176,466.875,122.13,445.675-19.551"/>
		</g>
		<g>
			<path fill="none" stroke="#2D376E" stroke-miterlimit="10" d="M786.157,1373.9c-20.19-141.685-164.212-118.845-184.404-260.533
				C581.561,971.68,725.584,948.84,705.392,807.154C685.2,665.467,541.177,688.307,520.987,546.621
				c-20.192-141.683,123.829-164.523,103.639-306.207C604.435,98.732,460.413,121.572,440.222-20.109"/>
		</g>
		<g>
			<path fill="none" stroke="#2D376E" stroke-miterlimit="10" d="M770.767,1374.458
				c-19.182-141.687-163.361-119.965-182.542-261.652S713.22,949.398,694.039,807.711
				c-19.182-141.686-163.36-119.964-182.541-261.65c-19.181-141.682,124.995-163.404,105.814-305.088
				C598.13,99.292,453.953,121.013,434.772-20.668"/>
		</g>
		<g>
			<path fill="none" stroke="#2D376E" stroke-miterlimit="10" d="M755.374,1375.02c-18.172-141.687-162.498-121.087-180.67-262.773
				s126.152-162.286,107.98-303.973c-18.172-141.686-162.498-121.087-180.67-262.773
				c-18.17-141.684,126.153-162.283,107.982-303.967C591.824,99.853,447.499,120.452,429.327-21.229"/>
		</g>
		<g>
			<path fill="none" stroke="#2D376E" stroke-miterlimit="10" d="M739.978,1375.583
				c-17.162-141.687-161.629-122.212-178.791-263.899s127.302-161.161,110.14-302.847
				c-17.164-141.685-161.629-122.212-178.791-263.898c-17.164-141.684,127.302-161.157,110.14-302.841
				c-17.165-141.682-161.63-122.209-178.792-263.889"/>
		</g>
		<g>
			<path fill="none" stroke="#2D376E" stroke-miterlimit="10" d="M724.576,1376.147c-16.153-141.686-160.75-123.34-176.904-265.027
				s128.443-160.032,112.291-301.718C643.809,667.715,499.211,686.06,483.058,544.374
				C466.904,402.691,611.503,384.346,595.35,242.662C579.197,100.981,434.598,119.326,418.446-22.355"/>
		</g>
		<g>
			<path fill="none" stroke="#2D376E" stroke-miterlimit="10" d="M709.17,1376.713c-15.143-141.688-159.866-124.473-175.01-266.16
				c-15.143-141.687,129.579-158.9,114.436-300.587C633.453,668.28,488.73,685.494,473.585,543.808
				C458.442,402.124,603.164,384.91,588.021,243.226C572.878,101.545,428.155,118.758,413.012-22.923"/>
		</g>
		<g>
			<path fill="none" stroke="#2D376E" stroke-miterlimit="10" d="M693.762,1377.282
				c-14.135-141.688-158.973-125.609-173.108-267.295C506.519,968.3,651.36,952.221,637.226,810.535
				c-14.135-141.687-158.975-125.608-173.108-267.294C449.983,401.558,594.824,385.479,580.69,243.795
				C566.556,102.114,421.715,118.192,407.581-23.488"/>
		</g>
		<g>
			<path fill="none" stroke="#2D376E" stroke-miterlimit="10" d="M678.348,1377.847
				c-13.124-141.687-158.074-126.744-171.198-268.431s131.825-156.628,118.701-298.315
				c-13.126-141.686-158.075-126.744-171.199-268.43c-13.124-141.684,131.825-156.624,118.701-298.308
				c-13.124-141.681-158.074-126.74-171.198-268.421"/>
		</g>
		<g>
			<path fill="none" stroke="#2D376E" stroke-miterlimit="10" d="M662.933,1378.419
				c-12.115-141.687-157.169-127.885-169.282-269.571C481.537,967.162,626.587,953.36,614.472,811.673
				c-12.115-141.686-157.166-127.885-169.281-269.571c-12.115-141.684,132.936-155.485,120.821-297.169
				c-12.113-141.681-157.165-127.88-169.28-269.56"/>
		</g>
		<g>
			<path fill="none" stroke="#2D376E" stroke-miterlimit="10" d="M647.51,1378.988c-11.105-141.687-156.25-129.027-167.356-270.713
				c-11.105-141.686,134.039-154.346,122.934-296.033c-11.105-141.686-156.25-129.026-167.356-270.712
				c-11.104-141.684,134.041-154.344,122.935-296.028c-11.103-141.68-156.247-129.02-167.353-270.701"/>
		</g>
		<g>
			<path fill="none" stroke="#2D376E" stroke-miterlimit="10" d="M632.088,1379.56c-10.097-141.686-155.326-130.17-165.422-271.857
				C456.569,966.017,601.8,954.501,591.704,812.814c-10.096-141.686-155.326-130.17-165.422-271.856
				c-10.096-141.684,135.135-153.199,125.039-294.883C541.226,104.393,395.996,115.909,385.9-25.772"/>
		</g>
		<g>
			<path fill="none" stroke="#2D376E" stroke-miterlimit="10" d="M616.657,1380.135c-9.085-141.687-154.392-131.315-163.479-273.002
				S589.4,955.076,580.314,813.389c-9.087-141.686-154.394-131.316-163.48-273.002c-9.086-141.684,136.222-152.053,127.135-293.737
				c-9.086-141.681-154.394-131.311-163.48-272.992"/>
		</g>
		<g>
			<path fill="none" stroke="#2D376E" stroke-miterlimit="10" d="M601.227,1380.71c-8.077-141.687-153.454-132.464-161.531-274.151
				c-8.078-141.687,137.3-150.909,129.223-292.596s-153.454-132.464-161.531-274.15c-8.078-141.683,137.301-150.906,129.224-292.59
				c-8.076-141.682-153.453-132.46-161.53-274.141"/>
		</g>
		<g>
			<path fill="none" stroke="#2D376E" stroke-miterlimit="10" d="M585.789,1381.284c-7.066-141.688-152.504-133.615-159.571-275.301
				c-7.068-141.686,138.371-149.759,131.304-291.446c-7.066-141.687-152.505-133.614-159.573-275.3
				c-7.068-141.683,138.371-149.756,131.304-291.44C522.187,106.115,376.748,114.188,369.68-27.492"/>
		</g>
		<g>
			<path fill="none" stroke="#2D376E" stroke-miterlimit="10" d="M570.35,1381.857c-6.058-141.687-151.549-134.765-157.608-276.451
				s139.435-148.608,133.376-290.294c-6.058-141.685-151.549-134.764-157.608-276.45
				c-6.058-141.684,139.435-148.605,133.376-290.289c-6.057-141.681-151.548-134.76-157.606-276.441"/>
		</g>
		<g>
			<path fill="none" stroke="#2D376E" stroke-miterlimit="10" d="M554.901,1382.435c-5.047-141.686-150.587-135.916-155.634-277.603
				S539.758,957.375,534.71,815.688c-5.047-141.686-150.584-135.916-155.633-277.602C374.03,396.404,519.568,390.633,514.519,248.95
				c-5.047-141.682-150.585-135.912-155.633-277.593"/>
		</g>
		<g>
			<path fill="none" stroke="#2D376E" stroke-miterlimit="10" d="M539.454,1383.011c-4.039-141.687-149.615-137.07-153.652-278.757
				c-4.038-141.687,141.537-146.303,137.498-287.99c-4.039-141.686-149.612-137.069-153.651-278.755
				c-4.038-141.684,141.536-146.3,137.498-287.984C503.108,107.844,357.534,112.46,353.496-29.22"/>
		</g>
		<g>
			<path fill="none" stroke="#2D376E" stroke-miterlimit="10" d="M524,1383.589c-3.028-141.686-148.631-138.222-151.659-279.908
				s142.574-145.15,139.546-286.837S363.255,678.62,360.226,536.934C357.198,395.251,502.8,391.787,499.772,250.103
				c-3.028-141.682-148.632-138.219-151.661-279.9"/>
		</g>
		<g>
			<path fill="none" stroke="#2D376E" stroke-miterlimit="10" d="M508.543,1384.167c-2.02-141.687-147.643-139.378-149.662-281.065
				s143.604-143.996,141.585-285.683S352.824,678.043,350.805,536.357c-2.019-141.683,143.604-143.992,141.585-285.676
				c-2.019-141.682-147.642-139.373-149.661-281.054"/>
		</g>
		<g>
			<path fill="none" stroke="#2D376E" stroke-miterlimit="10" d="M493.084,1384.742c-1.009-141.687-146.648-140.532-147.658-282.219
				c-1.009-141.687,144.626-142.841,143.617-284.528c-1.009-141.686-146.645-140.532-147.655-282.218
				c-1.009-141.684,144.626-142.838,143.617-284.522c-1.009-141.68-146.645-140.526-147.654-282.207"/>
		</g>
		<g>
			<path fill="none" stroke="#2D376E" stroke-miterlimit="10" d="M477.617,1385.321c0-141.687-145.64-141.687-145.64-283.374
				s145.64-141.687,145.64-283.373s-145.64-141.687-145.64-283.373c0-141.683,145.64-141.683,145.64-283.367
				c0-141.682-145.64-141.682-145.64-283.363"/>
		</g>
	</g>
</g>
</svg>
