<?xml version="1.0" encoding="utf-8"?>
<!-- Generator: Adobe Illustrator 17.0.0, SVG Export Plug-In . SVG Version: 6.00 Build 0)  -->
<!DOCTYPE svg PUBLIC "-//W3C//DTD SVG 1.1//EN" "http://www.w3.org/Graphics/SVG/1.1/DTD/svg11.dtd">
<svg version="1.1" id="Layer_1" xmlns="http://www.w3.org/2000/svg" xmlns:xlink="http://www.w3.org/1999/xlink" x="0px" y="0px"
	 width="1827.445px" height="1331.53px" viewBox="0 0 1827.445 1331.53" enable-background="new 0 0 1827.445 1331.53"
	 xml:space="preserve">
<g opacity="0.5">
	<g>
		<g>
			<path fill="none" stroke="#6496C8" stroke-miterlimit="10" d="M328.63-99.404c126.038,78.352-5.506,268.785,120.531,347.137
				c126.038,78.352,257.582-112.081,383.62-33.73s66.304,108.969,66.304,251.92c0,180.52,83.866,210.645-42.172,345.889
				C730.875,947.057,551.068,796.254,425.03,931.498s53.769,286.048-72.269,421.291"/>
		</g>
		<g>
			<path fill="none" stroke="#6496C8" stroke-miterlimit="10" d="M346.706-98.722c124.482,79.226-9.229,268.296,115.253,347.523
				s258.192-109.843,382.674-30.617s62.443,110.529,62.109,252.734c-0.421,179.202,84.994,209.944-39.99,344.313
				C741.768,949.602,561.811,798.96,436.826,933.33s54.973,285.011-70.012,419.381"/>
		</g>
		<g>
			<path fill="none" stroke="#6496C8" stroke-miterlimit="10" d="M364.786-98.022C487.712-17.921,351.827,169.75,474.753,249.85
				c122.926,80.101,258.81-107.57,381.736-27.468s58.576,112.056,57.911,253.529c-0.837,177.883,86.123,209.241-37.807,342.737
				c-123.931,133.495-304.04-16.982-427.971,116.513s56.179,283.973-67.752,417.468"/>
		</g>
		<g>
			<path fill="none" stroke="#6496C8" stroke-miterlimit="10" d="M382.868-97.304c121.37,80.975-16.694,267.209,104.676,348.184
				c121.37,80.976,259.433-105.259,380.803-24.283s54.704,113.547,53.711,254.305c-1.246,176.565,87.253,208.537-35.624,341.158
				s-303.141-17.69-426.018,114.931s57.387,282.931-65.49,415.552"/>
		</g>
		<g>
			<path fill="none" stroke="#6496C8" stroke-miterlimit="10" d="M400.952-96.567c119.814,81.849-20.434,266.609,99.379,348.458
				c119.814,81.849,260.061-102.909,379.875-21.059s50.826,115.002,49.509,255.063c-1.649,175.245,88.382,207.832-33.441,339.579
				S594.03,807.08,472.206,938.826s58.597,281.888-63.226,413.634"/>
		</g>
		<g>
			<path fill="none" stroke="#6496C8" stroke-miterlimit="10" d="M419.039-95.81c118.254,82.721-24.181,265.968,94.073,348.69
				c118.26,82.726,260.695-100.521,378.955-17.795s46.947,116.423,45.309,255.805c-2.044,173.925,89.513,207.125-31.257,337.997
				C785.349,959.758,604.769,809.789,484,940.661s59.81,280.841-60.96,411.713"/>
		</g>
		<g>
			<path fill="none" stroke="#6496C8" stroke-miterlimit="10" d="M437.127-95.034c116.698,83.596-27.928,265.292,88.77,348.888
				c116.703,83.6,261.329-98.096,378.033-14.496s43.061,117.807,41.105,256.525c-2.434,172.604,90.644,206.417-29.072,336.415
				s-300.457-19.797-420.173,110.2s61.025,279.792-58.692,409.789"/>
		</g>
		<g>
			<path fill="none" stroke="#6496C8" stroke-miterlimit="10" d="M455.216-94.24c115.142,84.47-31.676,264.577,83.466,349.048
				c115.147,84.474,261.966-95.632,377.113-11.157s39.172,119.154,36.9,257.225c-2.819,171.283,91.775,205.708-26.887,334.831
				C807.145,964.83,626.241,815.213,507.579,944.336s62.242,278.74-56.421,407.863"/>
		</g>
		<g>
			<path fill="none" stroke="#6496C8" stroke-miterlimit="10" d="M473.304-93.426c113.586,85.345-35.425,263.823,78.161,349.169
				c113.591,85.349,262.602-93.13,376.194-7.781s35.281,120.464,32.696,257.907c-3.197,169.96,92.907,204.997-24.702,333.245
				s-298.679-21.188-416.288,107.061s63.461,277.685-54.148,405.934"/>
		</g>
		<g>
			<path fill="none" stroke="#6496C8" stroke-miterlimit="10" d="M491.393-92.593c112.03,86.22-39.173,263.031,72.857,349.251
				c112.035,86.224,263.238-90.589,375.274-4.365s31.389,121.736,28.493,258.568c-3.568,168.638,94.04,204.284-22.515,331.658
				S647.708,820.64,531.153,948.014s64.683,276.626-51.873,404.001"/>
		</g>
		<g>
			<path fill="none" stroke="#6496C8" stroke-miterlimit="10" d="M509.481-91.74c110.474,87.094-42.919,262.199,67.555,349.294
				c110.479,87.098,263.873-88.007,374.352-0.91s27.495,122.97,24.292,259.21c-3.934,167.314,95.173,203.571-20.328,330.07
				c-115.502,126.5-296.91-22.566-412.412,103.933s65.907,275.566-49.595,402.065"/>
		</g>
		<g>
			<path fill="none" stroke="#6496C8" stroke-miterlimit="10" d="M527.567-90.867c108.918,87.968-46.662,261.328,62.256,349.298
				c108.923,87.973,264.504-85.388,373.427,2.585s23.601,124.166,20.092,259.833c-4.293,165.991,96.307,202.855-18.141,328.48
				s-296.03-23.252-410.478,102.374s67.133,274.501-47.315,400.127"/>
		</g>
		<g>
			<path fill="none" stroke="#6496C8" stroke-miterlimit="10" d="M545.651-89.975c107.362,88.843-50.401,260.419,56.961,349.262
				c107.367,88.847,265.13-82.729,372.498,6.119s19.708,125.324,15.896,260.436c-4.646,164.667,97.441,202.139-15.953,326.888
				c-113.395,124.75-295.152-23.934-408.546,100.816s68.363,273.434-45.032,398.185"/>
		</g>
		<g>
			<path fill="none" stroke="#6496C8" stroke-miterlimit="10" d="M563.732-89.063c105.806,89.718-54.134,259.469,51.672,349.187
				c105.811,89.721,265.752-80.03,371.563,9.692s15.816,126.443,11.702,261.019c-4.993,163.342,98.577,201.42-13.764,325.295
				c-112.341,123.876-294.276-24.611-406.617,99.265s69.594,272.363-42.747,396.239"/>
		</g>
		<g>
			<path fill="none" stroke="#6496C8" stroke-miterlimit="10" d="M581.81-88.131c104.25,90.592-57.861,258.48,46.39,349.073
				c104.255,90.596,266.366-77.293,370.621,13.303s11.927,127.524,7.513,261.583c-5.334,162.017,99.713,200.699-11.575,323.7
				c-111.287,123.001-293.404-25.287-404.691,97.716s70.829,271.289-40.458,394.291"/>
		</g>
		<g>
			<path fill="none" stroke="#6496C8" stroke-miterlimit="10" d="M599.884-87.181c102.694,91.466-61.579,257.453,41.115,348.919
				c102.699,91.471,266.972-74.516,369.671,16.954s8.04,128.565,3.329,262.127c-5.668,160.692,100.849,199.977-9.384,322.103
				c-110.234,122.127-292.534-25.957-402.767,96.169s72.066,270.212-38.168,392.338"/>
		</g>
		<g>
			<path fill="none" stroke="#6496C8" stroke-miterlimit="10" d="M617.952-86.21c101.138,92.341-65.287,256.386,35.851,348.727
				c101.143,92.345,267.569-71.701,368.712,20.645s4.157,129.567-0.85,262.652c-5.996,159.365,101.987,199.252-7.193,320.504
				c-109.18,121.253-291.666-26.625-400.846,94.627s73.306,269.13-35.874,390.383"/>
		</g>
		<g>
			<path fill="none" stroke="#6496C8" stroke-miterlimit="10" d="M636.016-85.22c99.582,93.215-68.985,255.281,30.597,348.496
				c99.587,93.219,268.154-68.846,367.741,24.374c99.587,93.219,0.279,130.53-5.024,263.157
				c-6.318,158.039,103.125,198.526-5.001,318.903c-108.126,120.378-290.802-27.289-398.928,93.088s74.549,268.046-33.578,388.424"
				/>
		</g>
		<g>
			<path fill="none" stroke="#6496C8" stroke-miterlimit="10" d="M654.073-84.21c98.026,94.09-72.671,254.137,25.356,348.227
				c98.031,94.094,268.728-65.953,366.759,28.141s-3.594,131.454-9.19,263.644c-6.634,156.713,104.264,197.798-2.808,317.301
				c-107.073,119.504-289.94-27.95-397.013,91.553s75.794,266.958-31.279,386.46"/>
		</g>
		<g>
			<path fill="none" stroke="#6496C8" stroke-miterlimit="10" d="M672.124-83.182c96.47,94.964-76.342,252.955,20.128,347.919
				c96.475,94.968,269.287-63.022,365.762,31.946s-7.461,132.338-13.349,264.111c-6.943,155.387,105.404,197.068-0.615,315.697
				s-289.081-28.607-395.101,90.022s77.043,265.865-28.976,384.494"/>
		</g>
		<g>
			<path fill="none" stroke="#6496C8" stroke-miterlimit="10" d="M690.167-82.136c94.914,95.838-79.999,251.735,14.916,347.574
				c94.919,95.843,269.832-60.053,364.751,35.79s-11.32,133.183-17.5,264.559c-7.246,154.06,106.545,196.336,1.58,314.09
				c-104.966,117.754-288.226-29.26-393.191,88.496c-104.966,117.754,78.294,264.768-26.671,382.523"/>
		</g>
		<g>
			<path fill="none" stroke="#6496C8" stroke-miterlimit="10" d="M708.201-81.069c93.358,96.713-83.639,250.478,9.719,347.191
				c93.363,96.718,270.36-57.047,363.723,39.67s-15.172,133.989-21.642,264.99c-7.543,152.732,107.687,195.601,3.776,312.481
				c-103.912,116.881-287.373-29.907-391.285,86.972s79.549,263.669-24.363,380.548"/>
		</g>
		<g>
			<path fill="none" stroke="#6496C8" stroke-miterlimit="10" d="M726.227-79.985c91.802,97.588-87.261,249.184,4.541,346.771
				c91.807,97.592,270.87-54.004,362.677,43.588s-19.015,134.755-25.774,265.401c-7.834,151.404,108.83,194.865,5.972,310.87
				c-102.858,116.006-286.524-30.553-389.382,85.453s80.807,262.564-22.051,378.57"/>
		</g>
		<g>
			<path fill="none" stroke="#6496C8" stroke-miterlimit="10" d="M744.243-78.883c90.247,98.462-90.864,247.854-0.618,346.316
				c90.251,98.466,271.361-50.925,361.612,47.541s-22.847,135.483-29.896,265.796c-8.118,150.077,109.974,194.126,8.17,309.257
				c-101.805,115.131-285.678-31.193-387.483,83.938s82.068,261.455-19.737,376.586"/>
		</g>
		<g>
			<path fill="none" stroke="#6496C8" stroke-miterlimit="10" d="M762.249-77.763c88.691,99.336-94.446,246.488-5.756,345.825
				c88.695,99.341,271.832-47.811,360.526,51.53c88.695,99.341-26.67,136.172-34.008,266.171
				c-8.396,148.749,111.119,193.386,10.368,307.642c-100.751,114.257-284.835-31.829-385.586,82.428s83.333,260.342-17.419,374.598"
				/>
		</g>
		<g>
			<path fill="none" stroke="#6496C8" stroke-miterlimit="10" d="M780.243-76.626c87.135,100.211-98.007,245.088-10.872,345.299
				c87.139,100.216,272.28-44.662,359.418,55.554c87.139,100.216-30.481,136.821-38.107,266.53
				c-8.668,147.421,112.265,192.643,12.568,306.024c-99.698,113.382-283.996-32.459-383.693,80.923s84.6,259.224-15.097,372.606"/>
		</g>
		<g>
			<path fill="none" stroke="#6496C8" stroke-miterlimit="10" d="M798.226-75.471c85.579,101.085-101.544,243.654-15.965,344.739
				c85.583,101.09,272.705-41.478,358.287,59.612s-34.281,137.434-42.195,266.873c-8.931,146.089,113.416,191.892,14.775,304.397
				c-98.645,112.509-283.161-33.085-381.806,79.425s85.87,258.103-12.775,370.612"/>
		</g>
		<g>
			<path fill="none" stroke="#6496C8" stroke-miterlimit="10" d="M816.197-74.301c84.023,101.96-105.056,242.186-21.033,344.146
				c84.027,101.965,273.105-38.262,357.131,63.703s-38.067,138.007-46.269,267.199c-9.191,144.761,114.564,191.145,16.977,302.774
				c-97.592,111.635-282.329-33.706-379.921,77.929s87.145,256.976-10.447,368.61"/>
		</g>
		<g>
			<path fill="none" stroke="#6496C8" stroke-miterlimit="10" d="M834.155-73.113c82.467,102.834-108.542,240.686-26.075,343.521
				c82.47,102.84,273.479-35.013,355.949,67.825s-41.839,138.543-50.33,267.508c-9.444,143.433,115.714,190.393,19.18,301.148
				c-96.538,110.76-281.5-34.324-378.038,76.437s88.424,255.844-8.115,366.604"/>
		</g>
		<g>
			<path fill="none" stroke="#6496C8" stroke-miterlimit="10" d="M852.099-71.911c80.911,103.708-112,239.155-31.09,342.865
				c80.914,103.713,273.826-31.734,354.74,71.981s-45.596,139.041-54.376,267.801c-9.691,142.105,116.865,189.64,21.385,299.521
				c-95.485,109.886-280.675-34.935-376.159,74.951s89.706,254.707-5.779,364.593"/>
		</g>
		<g>
			<path fill="none" stroke="#6496C8" stroke-miterlimit="10" d="M870.028-70.693c79.355,104.583-115.431,237.595-36.076,342.178
				c79.358,104.588,274.144-28.423,353.502,76.165s-49.337,139.502-58.408,268.08c-9.931,140.776,118.017,188.884,23.59,297.891
				c-94.431,109.011-279.854-35.542-374.285,73.47s90.992,253.564-3.439,362.576"/>
		</g>
		<g>
			<path fill="none" stroke="#6496C8" stroke-miterlimit="10" d="M887.943-69.46c77.799,105.458-118.831,236.004-41.032,341.462
				c77.802,105.463,274.432-25.084,352.234,80.379s-53.063,139.926-62.424,268.345c-10.166,139.448,119.171,188.126,25.798,296.257
				c-93.377,108.137-279.036-36.143-372.414,71.994s92.282,252.417-1.096,360.554"/>
		</g>
		<g>
			<path fill="none" stroke="#6496C8" stroke-miterlimit="10" d="M905.842-68.214c76.243,106.332-122.2,234.385-45.957,340.717
				c76.246,106.337,274.689-21.716,350.935,84.62c76.246,106.337-56.771,140.315-66.424,268.595
				c-10.394,138.12,120.326,187.364,28.006,294.622c-92.324,107.262-278.223-36.739-370.547,70.524
				c-92.324,107.262,93.576,251.263,1.252,358.525"/>
		</g>
		<g>
			<path fill="none" stroke="#6496C8" stroke-miterlimit="10" d="M923.725-66.954c74.687,107.206-125.537,232.74-50.85,339.947
				c74.69,107.212,274.914-18.321,349.604,88.889s-60.462,140.668-70.408,268.831c-10.615,136.792,121.482,186.6,30.216,292.982
				c-91.27,106.387-277.414-37.329-368.684,69.06s94.874,250.105,3.604,356.492"/>
		</g>
		<g>
			<path fill="none" stroke="#6496C8" stroke-miterlimit="10" d="M941.592-65.681c73.131,108.081-128.841,231.069-55.71,339.15
				c73.134,108.086,275.106-14.902,348.24,93.184s-64.134,140.987-74.374,269.056c-10.831,135.464,122.64,185.831,32.428,291.34
				c-90.216,105.514-276.609-37.912-366.825,67.601s96.176,248.94,5.96,354.453"/>
		</g>
		<g>
			<path fill="none" stroke="#6496C8" stroke-miterlimit="10" d="M959.441-64.396c71.575,108.956-132.11,229.374-60.535,338.329
				c71.578,108.96,275.263-11.458,346.841,97.503c71.578,108.96-67.787,141.271-78.322,269.269
				c-11.04,134.137,123.8,185.061,34.641,289.694c-89.163,104.639-275.808-38.491-364.971,66.148s97.483,247.768,8.32,352.407"/>
		</g>
		<g>
			<path fill="none" stroke="#6496C8" stroke-miterlimit="10" d="M977.273-63.1c70.019,109.83-135.344,227.655-65.325,337.485
				c70.022,109.835,275.385-7.99,345.407,101.845s-71.42,141.521-82.252,269.469c-11.244,132.809,124.961,184.287,36.856,288.046
				c-88.109,103.764-275.012-39.063-363.121,64.701c-88.109,103.765,98.794,246.591,10.685,350.355"/>
		</g>
		<g>
			<path fill="none" stroke="#6496C8" stroke-miterlimit="10" d="M995.086-61.792c68.463,110.705-138.542,225.915-70.079,336.62
				c68.466,110.71,275.471-4.501,343.937,106.208s-75.033,141.738-86.164,269.659c-11.441,131.481,126.124,183.509,39.073,286.394
				c-87.056,102.89-274.22-39.628-361.276,63.261c-87.056,102.89,100.109,245.408,13.054,348.298"/>
		</g>
		<g>
			<path fill="none" stroke="#6496C8" stroke-miterlimit="10" d="M1012.881-60.475c66.907,111.579-141.703,224.154-74.796,335.734
				c66.91,111.584,275.519-0.991,342.429,110.593s-78.625,141.923-90.056,269.84c-11.631,130.154,127.289,182.728,41.291,284.738
				c-86.002,102.015-273.434-40.187-359.435,61.829s101.43,244.217,15.428,346.232"/>
		</g>
		<g>
			<path fill="none" stroke="#6496C8" stroke-miterlimit="10" d="M1030.657-59.148c65.351,112.453-144.825,222.375-79.474,334.829
				c65.354,112.459,275.53,2.537,340.884,114.996s-82.195,142.077-93.928,270.01c-11.816,128.827,128.455,181.944,43.511,283.08
				c-84.948,101.14-272.651-40.739-357.6,60.402c-84.948,101.141,102.755,243.02,17.806,344.162"/>
		</g>
		<g>
			<path fill="none" stroke="#6496C8" stroke-miterlimit="10" d="M1048.413-57.813c63.797,113.331-147.907,220.582-84.11,333.913
				s275.501,6.081,339.298,119.412s-85.744,142.198-97.783,270.169c-11.995,127.501,129.624,181.156,45.733,281.418
				c-83.895,100.267-271.874-41.284-355.769,58.983s104.085,241.816,20.19,342.083"/>
		</g>
		<g>
			<path fill="none" stroke="#6496C8" stroke-miterlimit="10" d="M1066.15-56.469c62.241,114.205-150.952,218.77-88.711,332.975
				c62.241,114.206,275.433,9.642,337.674,123.849s-89.27,142.291-101.615,270.324c-12.167,126.175,130.794,180.364,47.957,279.751
				c-82.841,99.392-271.102-41.822-353.943,57.57s105.42,240.605,22.578,339.997"/>
		</g>
		<g>
			<path fill="none" stroke="#6496C8" stroke-miterlimit="10" d="M1083.867-55.118c60.685,115.08-153.956,216.942-93.271,332.023
				c60.685,115.08,275.326,13.218,336.011,128.299s-92.772,142.355-105.427,270.471c-12.333,124.849,131.967,179.568,50.183,278.081
				c-81.787,98.517-270.335-42.351-352.122,56.166s106.76,239.386,24.972,337.903"/>
		</g>
		<g>
			<path fill="none" stroke="#6496C8" stroke-miterlimit="10" d="M1101.563-53.761c59.129,115.955-156.92,215.102-97.791,331.057
				c59.129,115.955,275.177,16.807,334.306,132.762s-96.251,142.391-109.218,270.612
				c-12.492,123.524,133.141,178.768,52.411,276.406c-80.734,97.643-269.573-42.874-350.306,54.769s108.105,238.159,27.371,335.802"
				/>
		</g>
		<g>
			<path fill="none" stroke="#6496C8" stroke-miterlimit="10" d="M1119.239-52.398c57.573,116.829-159.842,213.251-102.269,330.081
				c57.573,116.829,274.988,20.408,332.561,137.237s-99.706,142.399-112.988,270.748
				c-12.646,122.199,134.318,177.965,54.641,274.728c-79.68,96.768-268.816-43.388-348.496,53.38s109.456,236.925,29.776,333.693"/>
		</g>
		<g>
			<path fill="none" stroke="#6496C8" stroke-miterlimit="10" d="M1136.894-51.03c56.017,117.703-162.723,211.39-106.706,329.094
				s274.757,24.017,330.774,141.721s-103.136,142.381-116.736,270.879c-12.793,120.875,135.496,177.156,56.873,273.045
				c-78.626,95.893-268.066-43.894-346.692,52c-78.626,95.893,110.813,235.681,32.186,331.576"/>
		</g>
		<g>
			<path fill="none" stroke="#6496C8" stroke-miterlimit="10" d="M1154.528-49.658c54.461,118.578-165.562,209.521-111.101,328.099
				c54.461,118.579,274.484,27.635,328.944,146.214c54.461,118.579-106.542,142.336-120.463,271.006
				c-12.934,119.55,136.677,176.343,59.108,271.358c-77.573,95.02-267.321-44.392-344.893,50.628s112.175,234.43,34.602,329.449"/>
		</g>
		<g>
			<path fill="none" stroke="#6496C8" stroke-miterlimit="10" d="M1172.141-48.284c52.905,119.452-168.359,207.645-115.454,327.097
				s274.168,31.26,327.073,150.714s-109.923,142.268-124.168,271.129c-13.069,118.227,137.861,175.526,61.345,269.666
				c-76.519,94.145-266.581-44.879-343.101,49.266s113.543,233.169,37.024,327.314"/>
		</g>
		<g>
			<path fill="none" stroke="#6496C8" stroke-miterlimit="10" d="M1189.733-46.905c51.349,120.327-171.113,205.763-119.764,326.091
				s273.81,34.891,325.159,155.218c51.349,120.327-113.279,142.175-127.851,271.25c-13.198,116.904,139.047,174.703,63.585,267.969
				c-75.466,93.27-265.848-45.358-341.314,47.912s114.917,231.9,39.451,325.17"/>
		</g>
		<g>
			<path fill="none" stroke="#6496C8" stroke-miterlimit="10" d="M1207.303-45.526c49.793,121.202-173.825,203.878-124.032,325.079
				c49.793,121.202,273.41,38.525,323.203,159.727s-116.61,142.059-131.512,271.37c-13.32,115.582,140.235,173.876,65.827,266.267
				c-74.412,92.396-265.122-45.828-339.534,46.568s116.297,230.62,41.885,323.016"/>
		</g>
		<g>
			<path fill="none" stroke="#6496C8" stroke-miterlimit="10" d="M1224.852-44.145c48.237,122.075-176.493,201.992-128.257,324.067
				c48.237,122.076,272.967,42.161,321.204,164.238c48.237,122.076-119.915,141.921-135.152,271.489
				c-13.437,114.26,141.427,173.043,68.072,264.56c-73.358,91.521-264.401-46.288-337.76,45.233s117.684,229.331,44.326,320.852"/>
		</g>
		<g>
			<path fill="none" stroke="#6496C8" stroke-miterlimit="10" d="M1242.38-42.763c46.681,122.95-179.12,200.103-132.439,323.054
				s272.481,45.798,319.162,168.749s-123.194,141.762-138.769,271.607c-13.547,112.94,142.62,172.206,70.319,262.848
				c-72.305,90.647-263.688-46.738-335.992,43.91c-72.304,90.647,119.078,228.031,46.773,318.679"/>
		</g>
		<g>
			<path fill="none" stroke="#6496C8" stroke-miterlimit="10" d="M1259.886-41.383c45.125,123.825-181.703,198.216-136.578,322.041
				s271.952,49.434,317.077,173.26c45.125,123.825-126.448,141.583-142.365,271.726c-13.651,111.62,143.817,171.363,72.569,261.131
				c-71.251,89.773-262.98-47.177-334.232,42.596c-71.251,89.773,120.478,226.721,49.227,316.494"/>
		</g>
		<g>
			<path fill="none" stroke="#6496C8" stroke-miterlimit="10" d="M1277.371-40.003c43.568,124.699-184.244,196.332-140.675,321.03
				c43.569,124.699,271.381,53.068,314.95,177.768c43.569,124.7-129.676,141.385-145.938,271.846
				c-13.75,110.301,145.017,170.514,74.823,259.407c-70.198,88.898-262.28-47.605-332.478,41.293s121.885,225.401,51.688,314.298"/>
		</g>
		<g>
			<path fill="none" stroke="#6496C8" stroke-miterlimit="10" d="M1294.835-38.625c42.013,125.574-186.742,194.451-144.729,320.024
				c42.013,125.574,270.767,56.698,312.78,182.272c42.013,125.574-132.878,141.167-149.49,271.969
				c-13.842,108.982,146.219,169.659,77.079,257.679c-69.144,88.023-261.587-48.021-330.731,40.002s123.3,224.068,54.156,312.091"/>
		</g>
		<g>
			<path fill="none" stroke="#6496C8" stroke-miterlimit="10" d="M1312.277-37.25c40.457,126.448-189.198,192.574-148.742,319.023
				c40.457,126.449,270.111,60.322,310.568,186.771s-136.053,140.933-153.02,272.094
				c-13.927,107.664,147.425,168.798,79.338,255.943c-68.09,87.149-260.902-48.425-328.992,38.723s124.721,222.724,56.631,309.872"
				/>
		</g>
		<g>
			<path fill="none" stroke="#6496C8" stroke-miterlimit="10" d="M1329.699-35.878c38.901,127.323-191.612,190.704-152.712,318.028
				c38.901,127.323,269.413,63.942,308.314,191.264c38.901,127.323-139.204,140.683-156.529,272.223
				c-14.007,106.349,148.634,167.931,81.601,254.201c-67.037,86.274-260.224-48.818-327.261,37.457
				c-67.037,86.274,126.151,221.367,59.114,307.641"/>
		</g>
		<g>
			<path fill="none" stroke="#6496C8" stroke-miterlimit="10" d="M1347.1-34.51c37.344,128.197-193.985,188.843-156.64,317.04
				s268.674,67.552,306.018,195.749c37.345,128.197-142.328,140.416-160.017,272.356
				c-14.081,105.033,149.847,167.057,83.867,252.453c-65.983,85.4-259.554-49.198-325.537,36.203s127.588,219.997,61.605,305.397"/>
		</g>
		<g>
			<path fill="none" stroke="#6496C8" stroke-miterlimit="10" d="M1364.48-33.146c35.788,129.072-196.316,186.99-160.528,316.062
				c35.789,129.072,267.893,71.153,303.682,200.226c35.789,129.072-145.427,140.134-163.483,272.493
				c-14.149,103.718,151.062,166.177,86.136,250.698c-64.929,84.526-258.892-49.564-323.821,34.962
				c-64.929,84.526,129.033,218.614,64.104,303.14"/>
		</g>
		<g>
			<path fill="none" stroke="#6496C8" stroke-miterlimit="10" d="M1381.84-31.788c34.233,129.947-198.607,185.148-164.374,315.094
				c34.233,129.947,267.072,74.745,301.304,204.691s-148.5,139.838-166.928,272.635c-14.211,102.404,152.282,165.289,88.409,248.936
				c-63.876,83.651-258.238-49.916-322.114,33.735s130.486,217.218,66.611,300.869"/>
		</g>
		<g>
			<path fill="none" stroke="#6496C8" stroke-miterlimit="10" d="M1399.18-30.435c32.676,130.821-200.857,183.317-168.18,314.137
				c32.677,130.821,266.21,78.325,298.886,209.146s-151.547,139.53-170.353,272.784c-14.266,101.092,153.505,164.393,90.686,247.166
				c-62.822,82.776-257.593-50.254-320.415,32.522s131.949,215.807,69.126,298.583"/>
		</g>
		<g>
			<path fill="none" stroke="#6496C8" stroke-miterlimit="10" d="M1416.499-29.088c31.12,131.695-203.067,181.499-171.947,313.194
				s265.308,81.892,296.429,213.588s-154.57,139.209-173.757,272.94c-14.316,99.781,154.732,163.49,92.966,245.389
				c-61.769,81.902-256.956-50.577-318.725,31.325c-61.768,81.902,133.419,214.381,71.651,296.283"/>
		</g>
		<g>
			<path fill="none" stroke="#6496C8" stroke-miterlimit="10" d="M1433.8-27.75c29.564,132.57-205.239,179.694-175.674,312.264
				c29.564,132.571,264.367,85.445,293.932,218.015s-157.567,138.876-177.141,273.102
				c-14.359,98.471,155.963,162.579,95.251,243.604c-60.715,81.027-256.329-50.884-317.044,30.143s134.899,212.939,74.184,293.967"
				/>
		</g>
		<g>
			<path fill="none" stroke="#6496C8" stroke-miterlimit="10" d="M1451.08-26.418c28.008,133.444-207.371,177.905-179.363,311.349
				c28.008,133.444,263.388,88.983,291.396,222.429s-160.539,138.534-180.505,273.273c-14.397,97.162,157.198,161.66,97.54,241.81
				c-59.661,80.153-255.711-51.175-315.372,28.977c-59.661,80.153,136.388,211.482,76.727,291.634"/>
		</g>
		<g>
			<path fill="none" stroke="#6496C8" stroke-miterlimit="10" d="M1468.342-25.094c26.452,134.319-209.466,176.131-183.013,310.45
				c26.452,134.319,262.37,92.506,288.823,226.826s-163.487,138.181-183.849,273.451c-14.429,95.854,158.437,160.732,99.832,240.007
				c-58.608,79.279-255.102-51.451-313.71,27.828c-58.608,79.279,137.887,210.007,79.28,289.285"/>
		</g>
		<g>
			<path fill="none" stroke="#6496C8" stroke-miterlimit="10" d="M1485.585-23.778c24.896,135.194-211.523,174.375-186.627,309.568
				c24.896,135.194,261.316,96.012,286.212,231.206s-166.41,137.818-187.174,273.638c-14.455,94.548,159.681,159.795,102.13,238.195
				c-57.554,78.404-254.504-51.707-312.058,26.696c-57.554,78.404,139.396,208.516,81.842,286.92"/>
		</g>
		<g>
			<path fill="none" stroke="#6496C8" stroke-miterlimit="10" d="M1502.81-22.471c23.34,136.067-213.544,172.636-190.203,308.704
				c23.34,136.068,260.224,99.499,283.565,235.567s-169.309,137.448-190.481,273.835
				c-14.475,93.244,160.929,158.849,104.432,236.375c-56.5,77.529-253.915-51.946-310.416,25.583
				c-56.5,77.529,140.915,207.004,84.414,284.534"/>
		</g>
		<g>
			<path fill="none" stroke="#6496C8" stroke-miterlimit="10" d="M1520.017-21.174c21.784,136.942-215.529,170.916-193.744,307.858
				c21.784,136.943,259.097,102.969,280.882,239.91s-172.184,137.07-193.769,274.04c-14.489,91.94,162.182,157.893,106.738,234.544
				c-55.447,76.655-253.337-52.165-308.784,24.49s142.444,205.475,86.997,282.13"/>
		</g>
		<g>
			<path fill="none" stroke="#6496C8" stroke-miterlimit="10" d="M1537.207-19.886c20.228,137.817-217.479,169.216-197.25,307.033
				c20.228,137.817,257.935,106.418,278.163,244.234c20.228,137.817-175.036,136.684-197.039,274.257
				c-14.497,90.639,163.44,156.926,109.05,232.703c-54.393,75.781-252.77-52.364-307.163,23.417s143.984,203.925,89.591,279.706"/>
		</g>
		<g>
			<path fill="none" stroke="#6496C8" stroke-miterlimit="10" d="M1554.379-18.609c18.672,138.691-219.394,167.536-200.722,306.227
				s256.739,109.846,275.411,248.539S1451.204,672.45,1428.777,810.64c-14.499,89.339,164.703,155.949,111.366,230.852
				c-53.339,74.906-252.214-52.542-305.554,22.364c-53.339,74.906,145.536,202.354,92.196,277.26"/>
		</g>
		<g>
			<path fill="none" stroke="#6496C8" stroke-miterlimit="10" d="M1571.535-17.343c17.116,139.566-221.276,165.877-204.16,305.443
				S1622.883,401.355,1640,540.921c17.116,139.566-180.669,135.896-203.526,274.72c-14.495,88.04,165.971,154.961,113.688,228.989
				c-52.286,74.031-251.67-52.699-303.956,21.333c-52.286,74.031,147.098,200.761,94.813,274.793"/>
		</g>
		<g>
			<path fill="none" stroke="#6496C8" stroke-miterlimit="10" d="M1588.674-16.087c15.56,140.44-223.125,164.24-207.565,304.68
				c15.56,140.441,254.245,116.641,269.806,257.081c15.56,140.441-183.452,135.493-206.744,274.968
				c-14.486,86.744,167.245,153.961,116.015,227.114c-51.232,73.157-251.138-52.833-302.37,20.324
				c-51.232,73.157,148.673,199.146,97.441,272.303"/>
		</g>
		<g>
			<path fill="none" stroke="#6496C8" stroke-miterlimit="10" d="M1605.797-14.842c14.004,141.314-224.942,162.625-210.938,303.939
				c14.004,141.315,252.951,120.005,266.955,261.32c14.004,141.315-186.213,135.086-209.946,275.228
				c-14.471,85.45,168.524,152.949,118.348,225.228c-50.179,72.282-250.617-52.942-300.796,19.34s150.26,197.506,100.082,269.789"/>
		</g>
		<g>
			<path fill="none" stroke="#6496C8" stroke-miterlimit="10" d="M1622.905-13.609c12.448,142.189-226.728,161.033-214.28,303.222
				s251.625,123.345,264.073,265.535s-188.951,134.677-213.131,275.499c-14.45,84.157,169.809,151.923,120.686,223.328
				c-49.125,71.407-250.11-53.026-299.234,18.381c-49.125,71.407,151.86,195.842,102.735,267.25"/>
		</g>
		<g>
			<path fill="none" stroke="#6496C8" stroke-miterlimit="10" d="M1639.997-12.388c10.892,143.064-228.484,159.465-217.592,302.529
				s250.269,126.662,261.161,269.726S1491.897,694.13,1467.265,835.65c-14.423,82.865,171.1,150.885,123.031,221.415
				c-48.071,70.534-249.615-53.084-297.686,17.449c-48.071,70.534,153.472,194.152,105.401,264.685"/>
		</g>
		<g>
			<path fill="none" stroke="#6496C8" stroke-miterlimit="10" d="M1657.075-11.179c9.336,143.938-230.211,157.922-220.875,301.859
				c9.336,143.938,248.883,129.955,258.219,273.893s-194.365,133.845-219.455,276.079
				c-14.391,81.577,172.397,149.832,125.381,219.488c-47.018,69.659-249.134-53.115-296.151,16.544s155.098,192.433,108.081,262.092
				"/>
		</g>
		<g>
			<path fill="none" stroke="#6496C8" stroke-miterlimit="10" d="M1674.139-9.981c7.78,144.812-231.909,156.402-224.129,301.214
				c7.78,144.813,247.469,133.224,255.249,278.037s-197.04,133.427-222.595,276.387c-14.353,80.291,173.7,148.765,127.738,217.547
				c-45.964,68.785-248.666-53.116-294.63,15.668s156.738,190.685,110.774,259.47"/>
		</g>
		<g>
			<path fill="none" stroke="#6496C8" stroke-miterlimit="10" d="M1691.188-8.797c6.224,145.687-233.579,154.907-227.355,300.594
				s246.027,136.468,252.251,282.154s-199.695,133.007-225.72,276.708c-14.309,79.006,175.01,147.683,130.102,215.589
				c-44.91,67.91-248.213-53.088-293.123,14.822c-44.911,67.91,158.392,188.908,113.482,256.817"/>
		</g>
		<g>
			<path fill="none" stroke="#6496C8" stroke-miterlimit="10" d="M1708.225-7.625c4.668,146.561-235.223,153.438-230.554,300
				c4.668,146.562,244.559,139.685,249.227,286.248s-202.329,132.585-228.832,277.042
				c-14.26,77.725,176.327,146.583,132.472,213.615c-43.857,67.035-247.775-53.027-291.631,14.008
				c-43.857,67.035,160.061,187.099,116.204,254.134"/>
		</g>
		<g>
			<path fill="none" stroke="#6496C8" stroke-miterlimit="10" d="M1725.248-6.466c3.112,147.436-236.84,151.994-233.728,299.43
				c3.112,147.436,243.064,142.879,246.176,290.315s-204.944,132.163-231.93,277.389
				c-14.205,76.446,177.651,145.468,134.849,211.625c-42.803,66.161-247.351-52.933-290.154,13.227s161.745,185.255,118.942,251.416
				"/>
		</g>
		<g>
			<path fill="none" stroke="#6496C8" stroke-miterlimit="10" d="M1742.259-5.32c1.556,148.311-238.432,150.576-236.876,298.887
				s241.544,146.045,243.1,294.356s-207.54,131.74-235.015,277.75c-14.144,75.169,178.982,144.334,137.234,209.617
				c-41.75,65.287-246.943-52.803-288.693,12.482c-41.75,65.287,163.444,183.377,121.695,248.663"/>
		</g>
		<g>
			<path fill="none" stroke="#6496C8" stroke-miterlimit="10" d="M1759.257-4.187c0,149.185-240,149.185-240,298.37
				s240,149.185,240,298.371S1549.14,723.87,1521.17,870.677c-14.078,73.895,180.32,143.18,139.626,207.59
				c-40.696,64.412-246.551-52.637-287.247,11.775c-40.696,64.412,165.159,181.461,124.464,245.873"/>
		</g>
	</g>
</g>
</svg>
