<?xml version="1.0" encoding="utf-8"?>
<!-- Generator: Adobe Illustrator 17.0.0, SVG Export Plug-In . SVG Version: 6.00 Build 0)  -->
<!DOCTYPE svg PUBLIC "-//W3C//DTD SVG 1.1//EN" "http://www.w3.org/Graphics/SVG/1.1/DTD/svg11.dtd">
<svg version="1.1" id="Layer_1" xmlns="http://www.w3.org/2000/svg" xmlns:xlink="http://www.w3.org/1999/xlink" x="0px" y="0px"
	 width="1827.445px" height="1331.53px" viewBox="0 0 1827.445 1331.53" enable-background="new 0 0 1827.445 1331.53"
	 xml:space="preserve">
<g opacity="0.75">
	<g>
		<g>
			<path fill="none" stroke="#6496C8" stroke-miterlimit="10" d="M340.677-26.345c72.773,94.841-23.035,165.858,49.739,260.7
				c72.772,94.838,168.58,23.822,241.351,118.661c72.772,94.84-23.035,165.857,49.737,260.698
				c72.774,94.841,168.581,23.825,241.355,118.666c72.773,94.84-23.035,165.857,49.738,260.698
				c72.776,94.845,168.584,23.828,241.36,118.673s-23.032,165.862,49.745,260.707"/>
		</g>
		<g>
			<path fill="none" stroke="#6496C8" stroke-miterlimit="10" d="M354.754-26.132c72.095,94.841-24.037,165.434,48.057,260.275
				c72.093,94.838,168.225,24.246,240.318,119.085c72.094,94.84-24.038,165.433,48.056,260.273
				c72.095,94.841,168.227,24.248,240.322,119.09c72.094,94.84-24.038,165.434,48.057,260.274
				c72.098,94.844,168.23,24.252,240.327,119.096s-24.034,165.438,48.063,260.283"/>
		</g>
		<g>
			<path fill="none" stroke="#6496C8" stroke-miterlimit="10" d="M368.831-25.918c71.416,94.841-25.04,165.005,46.376,259.847
				c71.414,94.838,167.871,24.675,239.285,119.513c71.415,94.84-25.041,165.004,46.374,259.845
				c71.416,94.841,167.873,24.677,239.289,119.518c71.416,94.84-25.041,165.005,46.375,259.846
				c71.419,94.844,167.875,24.681,239.294,119.525s-25.037,165.009,46.382,259.854"/>
		</g>
		<g>
			<path fill="none" stroke="#6496C8" stroke-miterlimit="10" d="M382.909-25.702c70.737,94.841-26.043,164.573,44.694,259.413
				c70.736,94.838,167.517,25.107,238.252,119.947c70.737,94.84-26.044,164.572,44.693,259.411
				c70.738,94.841,167.518,25.11,238.256,119.952c70.737,94.84-26.044,164.572,44.693,259.412
				c70.74,94.845,167.521,25.113,238.261,119.958c70.74,94.844-26.041,164.577,44.7,259.421"/>
		</g>
		<g>
			<path fill="none" stroke="#6496C8" stroke-miterlimit="10" d="M396.986-25.484c70.059,94.841-27.047,164.135,43.012,258.976
				c70.057,94.838,167.163,25.545,237.22,120.384c70.058,94.84-27.047,164.134,43.011,258.974
				c70.059,94.841,167.164,25.548,237.223,120.389c70.058,94.84-27.047,164.134,43.011,258.975
				c70.062,94.844,167.167,25.55,237.229,120.396s-27.044,164.139,43.018,258.984"/>
		</g>
		<g>
			<path fill="none" stroke="#6496C8" stroke-miterlimit="10" d="M411.064-25.262c69.38,94.841-28.05,163.693,41.33,258.534
				c69.379,94.838,166.809,25.987,236.187,120.825c69.379,94.84-28.051,163.692,41.329,258.532
				c69.38,94.841,166.81,25.989,236.191,120.83c69.38,94.84-28.05,163.693,41.329,258.533
				c69.383,94.845,166.813,25.993,236.196,120.837c69.383,94.845-28.047,163.697,41.336,258.542"/>
		</g>
		<g>
			<path fill="none" stroke="#6496C8" stroke-miterlimit="10" d="M425.141-25.039c68.702,94.841-29.053,163.247,39.648,258.088
				c68.7,94.838,166.455,26.433,235.155,121.272c68.701,94.84-29.054,163.246,39.647,258.086
				c68.702,94.841,166.457,26.435,235.159,121.276c68.701,94.84-29.054,163.247,39.647,258.087
				c68.704,94.844,166.459,26.439,235.164,121.283s-29.051,163.251,39.654,258.096"/>
		</g>
		<g>
			<path fill="none" stroke="#6496C8" stroke-miterlimit="10" d="M439.219-24.814c68.023,94.841-30.057,162.797,37.966,257.637
				c68.021,94.838,166.101,26.883,234.123,121.723s-30.057,162.796,37.965,257.635c68.023,94.841,166.103,26.886,234.126,121.728
				c68.023,94.84-30.057,162.796,37.965,257.636c68.026,94.844,166.105,26.889,234.131,121.734
				c68.026,94.844-30.054,162.801,37.972,257.645"/>
		</g>
		<g>
			<path fill="none" stroke="#6496C8" stroke-miterlimit="10" d="M453.296-24.586c67.344,94.841-31.06,162.342,36.284,257.182
				c67.343,94.838,165.747,27.338,233.09,122.178c67.344,94.84-31.061,162.341,36.283,257.18
				c67.345,94.841,165.749,27.341,233.094,122.183c67.344,94.84-31.061,162.341,36.283,257.181
				c67.347,94.844,165.751,27.344,233.099,122.19c67.348,94.845-31.057,162.345,36.29,257.19"/>
		</g>
		<g>
			<path fill="none" stroke="#6496C8" stroke-miterlimit="10" d="M467.374-24.356c66.666,94.841-32.064,161.882,34.602,256.723
				c66.664,94.838,165.393,27.798,232.058,122.637c66.665,94.84-32.064,161.881,34.601,256.721
				c66.666,94.841,165.395,27.8,232.061,122.642c66.665,94.84-32.064,161.882,34.601,256.722
				c66.668,94.845,165.398,27.804,232.066,122.649c66.668,94.845-32.061,161.885,34.608,256.731"/>
		</g>
		<g>
			<path fill="none" stroke="#6496C8" stroke-miterlimit="10" d="M481.451-24.124c65.987,94.841-33.067,161.418,32.92,256.258
				c65.986,94.838,165.039,28.262,231.025,123.102s-33.068,161.417,32.919,256.256c65.987,94.841,165.041,28.265,231.029,123.107
				c65.987,94.84-33.067,161.417,32.919,256.257c65.99,94.844,165.044,28.268,231.033,123.114
				c65.99,94.844-33.064,161.422,32.926,256.266"/>
		</g>
		<g>
			<path fill="none" stroke="#6496C8" stroke-miterlimit="10" d="M495.529-23.89c65.308,94.841-34.07,160.949,31.239,255.789
				c65.307,94.838,164.685,28.731,229.992,123.571c65.308,94.84-34.071,160.948,31.237,255.787
				c65.309,94.841,164.687,28.734,229.996,123.575c65.308,94.84-34.07,160.948,31.238,255.788
				c65.311,94.844,164.689,28.737,230,123.582s-34.067,160.953,31.244,255.797"/>
		</g>
		<g>
			<path fill="none" stroke="#6496C8" stroke-miterlimit="10" d="M509.606-23.653c64.63,94.841-35.073,160.475,29.557,255.316
				c64.628,94.838,164.331,29.205,228.959,124.043c64.629,94.84-35.074,160.474,29.556,255.315s164.333,29.207,228.963,124.048
				c64.629,94.84-35.073,160.475,29.556,255.315c64.632,94.844,164.335,29.211,228.968,124.055s-35.07,160.479,29.562,255.324"/>
		</g>
		<g>
			<path fill="none" stroke="#6496C8" stroke-miterlimit="10" d="M523.683-23.415c63.951,94.841-36.076,159.997,27.876,254.838
				c63.95,94.838,163.977,29.682,227.926,124.522c63.951,94.84-36.076,159.996,27.874,254.836
				c63.951,94.841,163.978,29.685,227.93,124.527c63.951,94.84-36.076,159.996,27.875,254.837
				c63.954,94.844,163.981,29.688,227.934,124.534c63.954,94.844-36.073,160.001,27.881,254.846"/>
		</g>
		<g>
			<path fill="none" stroke="#6496C8" stroke-miterlimit="10" d="M537.76-23.173c63.273,94.841-37.078,159.515,26.195,254.355
				c63.271,94.838,163.622,30.165,226.893,125.005c63.272,94.84-37.079,159.514,26.193,254.353
				c63.273,94.841,163.623,30.168,226.896,125.009c63.272,94.84-37.078,159.514,26.194,254.354
				c63.275,94.844,163.626,30.172,226.901,125.016s-37.075,159.519,26.2,254.363"/>
		</g>
		<g>
			<path fill="none" stroke="#6496C8" stroke-miterlimit="10" d="M551.837-22.929c62.594,94.841-38.08,159.027,24.514,253.868
				c62.593,94.838,163.267,30.653,225.859,125.492c62.593,94.84-38.081,159.026,24.513,253.866
				c62.594,94.841,163.268,30.656,225.862,125.497c62.594,94.84-38.08,159.026,24.513,253.867
				c62.596,94.845,163.27,30.658,225.867,125.504c62.596,94.844-38.078,159.03,24.519,253.876"/>
		</g>
		<g>
			<path fill="none" stroke="#6496C8" stroke-miterlimit="10" d="M565.914-22.683c61.915,94.841-39.082,158.535,22.834,253.376
				c61.914,94.838,162.911,31.145,224.825,125.984c61.915,94.84-39.082,158.534,22.832,253.373
				c61.916,94.841,162.913,31.148,224.828,125.989c61.915,94.84-39.082,158.534,22.833,253.374
				c61.918,94.845,162.915,31.151,224.833,125.996c61.918,94.844-39.079,158.539,22.839,253.383"/>
		</g>
		<g>
			<path fill="none" stroke="#6496C8" stroke-miterlimit="10" d="M579.99-22.435c61.237,94.841-40.083,158.038,21.154,252.879
				c61.235,94.838,162.555,31.642,223.79,126.481c61.236,94.84-40.084,158.037,21.153,252.877
				c61.237,94.841,162.557,31.644,223.794,126.486c61.236,94.84-40.083,158.038,21.153,252.878
				c61.239,94.844,162.559,31.648,223.798,126.493s-40.08,158.042,21.159,252.887"/>
		</g>
		<g>
			<path fill="none" stroke="#6496C8" stroke-miterlimit="10" d="M594.066-22.184c60.558,94.841-41.084,157.536,19.474,252.378
				c60.557,94.838,162.198,32.144,222.755,126.983c60.557,94.84-41.084,157.535,19.473,252.375
				c60.558,94.841,162.2,32.147,222.758,126.988c60.558,94.84-41.084,157.535,19.474,252.376
				c60.561,94.845,162.202,32.149,222.763,126.995c60.561,94.845-41.081,157.54,19.479,252.385"/>
		</g>
		<g>
			<path fill="none" stroke="#6496C8" stroke-miterlimit="10" d="M608.142-21.93c59.88,94.841-42.084,157.03,17.796,251.871
				c59.878,94.838,161.841,32.65,221.72,127.489c59.879,94.84-42.084,157.029,17.794,251.869
				c59.88,94.841,161.843,32.653,221.723,127.494c59.879,94.84-42.084,157.029,17.795,251.87
				c59.882,94.845,161.845,32.656,221.727,127.501c59.882,94.844-42.081,157.034,17.8,251.879"/>
		</g>
		<g>
			<path fill="none" stroke="#6496C8" stroke-miterlimit="10" d="M622.218-21.675c59.201,94.841-43.083,156.518,16.117,251.359
				c59.2,94.838,161.484,33.162,220.683,128c59.2,94.84-43.084,156.517,16.116,251.358
				c59.201,94.841,161.485,33.164,220.686,128.005c59.2,94.84-43.084,156.518,16.117,251.359
				c59.203,94.844,161.488,33.168,220.691,128.012s-43.081,156.522,16.122,251.367"/>
		</g>
		<g>
			<path fill="none" stroke="#6496C8" stroke-miterlimit="10" d="M636.293-21.417c58.522,94.841-44.082,156.002,14.44,250.843
				c58.521,94.838,161.125,33.678,219.646,128.516c58.522,94.84-44.083,156.001,14.439,250.842
				c58.522,94.841,161.127,33.68,219.65,128.521c58.522,94.84-44.083,156.002,14.439,250.842
				c58.525,94.845,161.129,33.684,219.654,128.528c58.525,94.845-44.08,156.006,14.445,250.851"/>
		</g>
		<g>
			<path fill="none" stroke="#6496C8" stroke-miterlimit="10" d="M650.368-21.157c57.844,94.841-45.081,155.481,12.763,250.323
				c57.842,94.838,160.767,34.199,218.609,129.037c57.843,94.84-45.081,155.48,12.762,250.321
				c57.844,94.841,160.768,34.201,218.612,129.042c57.843,94.84-45.081,155.481,12.762,250.322
				c57.846,94.845,160.77,34.205,218.616,129.049c57.846,94.845-45.078,155.485,12.768,250.33"/>
		</g>
		<g>
			<path fill="none" stroke="#6496C8" stroke-miterlimit="10" d="M664.443-20.894c57.165,94.841-46.078,154.955,11.087,249.797
				c57.164,94.838,160.407,34.725,217.57,129.563c57.164,94.84-46.079,154.954,11.086,249.795s160.408,34.727,217.573,129.568
				c57.165,94.84-46.078,154.955,11.086,249.796c57.167,94.844,160.41,34.73,217.578,129.575s-46.076,154.959,11.092,249.805"/>
		</g>
		<g>
			<path fill="none" stroke="#6496C8" stroke-miterlimit="10" d="M678.517-20.628c56.486,94.841-47.075,154.425,9.412,249.266
				c56.485,94.838,160.046,35.255,216.531,130.094c56.486,94.84-47.075,154.424,9.411,249.264
				c56.487,94.841,160.047,35.257,216.534,130.099c56.486,94.84-47.075,154.425,9.411,249.265
				c56.489,94.845,160.05,35.261,216.538,130.106c56.488,94.844-47.072,154.428,9.416,249.274"/>
		</g>
		<g>
			<path fill="none" stroke="#6496C8" stroke-miterlimit="10" d="M692.591-20.361c55.808,94.841-48.07,153.89,7.737,248.73
				c55.807,94.838,159.685,35.791,215.491,130.629c55.807,94.84-48.071,153.889,7.736,248.728
				c55.808,94.841,159.686,35.793,215.494,130.634c55.807,94.84-48.071,153.889,7.737,248.729
				c55.81,94.845,159.688,35.797,215.498,130.641c55.81,94.845-48.068,153.893,7.742,248.738"/>
		</g>
		<g>
			<path fill="none" stroke="#6496C8" stroke-miterlimit="10" d="M706.664-20.091c55.129,94.841-49.065,153.349,6.064,248.19
				c55.128,94.838,159.322,36.331,214.45,131.17c55.129,94.84-49.066,153.348,6.063,248.188
				c55.129,94.841,159.323,36.333,214.453,131.175c55.129,94.84-49.065,153.348,6.064,248.189
				c55.131,94.844,159.325,36.336,214.457,131.182s-49.063,153.353,6.069,248.198"/>
		</g>
		<g>
			<path fill="none" stroke="#6496C8" stroke-miterlimit="10" d="M720.737-19.817c54.451,94.841-50.059,152.804,4.392,247.644
				c54.449,94.838,158.959,36.876,213.408,131.716c54.45,94.84-50.059,152.803,4.391,247.642
				c54.451,94.841,158.96,36.879,213.411,131.72c54.45,94.84-50.059,152.803,4.391,247.643
				c54.453,94.844,158.962,36.882,213.415,131.727c54.453,94.844-50.057,152.808,4.396,247.652"/>
		</g>
		<g>
			<path fill="none" stroke="#6496C8" stroke-miterlimit="10" d="M734.809-19.542c53.772,94.841-51.051,152.253,2.721,247.094
				c53.771,94.838,158.594,37.426,212.365,132.266s-51.052,152.252,2.719,247.092c53.772,94.841,158.595,37.429,212.367,132.271
				c53.771,94.84-51.052,152.252,2.72,247.093c53.774,94.844,158.597,37.432,212.371,132.278
				c53.774,94.845-51.049,152.257,2.725,247.102"/>
		</g>
		<g>
			<path fill="none" stroke="#6496C8" stroke-miterlimit="10" d="M748.88-19.265c53.093,94.841-52.043,151.698,1.05,246.539
				c53.092,94.838,158.228,37.982,211.32,132.821c53.093,94.84-52.043,151.697,1.049,246.537
				c53.094,94.841,158.23,37.985,211.323,132.826c53.093,94.84-52.043,151.697,1.05,246.538
				c53.095,94.845,158.232,37.989,211.327,132.833c53.095,94.844-52.041,151.701,1.055,246.546"/>
		</g>
		<g>
			<path fill="none" stroke="#6496C8" stroke-miterlimit="10" d="M762.951-18.985c52.415,94.841-53.033,151.138-0.619,245.978
				c52.414,94.838,157.861,38.543,210.275,133.381c52.414,94.84-53.034,151.136-0.62,245.976
				c52.415,94.841,157.863,38.545,210.278,133.386c52.414,94.84-53.033,151.137-0.619,245.977
				c52.417,94.845,157.865,38.549,210.281,133.393s-53.031,151.141-0.614,245.986"/>
		</g>
		<g>
			<path fill="none" stroke="#6496C8" stroke-miterlimit="10" d="M777.022-18.702C828.758,76.14,723,131.87,774.736,226.711
				c51.735,94.838,157.493,39.108,209.228,133.947c51.735,94.84-54.023,150.571-2.287,245.411
				c51.736,94.841,157.494,39.11,209.231,133.952c51.736,94.84-54.023,150.572-2.287,245.412
				c51.738,94.845,157.496,39.114,209.234,133.958s-54.02,150.576-2.282,245.421"/>
		</g>
		<g>
			<path fill="none" stroke="#6496C8" stroke-miterlimit="10" d="M791.091-18.417c51.057,94.841-55.01,150.002-3.952,244.843
				c51.056,94.838,157.124,39.678,208.18,134.517c51.057,94.84-55.01,150.001-3.953,244.841
				c51.058,94.841,157.125,39.68,208.182,134.522c51.057,94.84-55.01,150.002-3.953,244.842
				c51.06,94.844,157.127,39.684,208.186,134.529c51.059,94.844-55.008,150.005-3.948,244.851"/>
		</g>
		<g>
			<path fill="none" stroke="#6496C8" stroke-miterlimit="10" d="M805.16-18.129c50.379,94.841-55.996,149.427-5.617,244.267
				c50.378,94.838,156.753,40.253,207.13,135.093c50.378,94.84-55.997,149.426-5.618,244.265
				c50.379,94.841,156.754,40.256,207.133,135.098c50.379,94.84-55.996,149.426-5.618,244.266
				c50.381,94.845,156.756,40.259,207.137,135.104c50.381,94.845-55.994,149.431-5.613,244.275"/>
		</g>
		<g>
			<path fill="none" stroke="#6496C8" stroke-miterlimit="10" d="M819.229-17.839c49.7,94.841-56.981,148.846-7.281,243.687
				c49.699,94.838,156.38,40.834,206.079,135.673c49.7,94.84-56.981,148.845-7.282,243.685
				c49.7,94.841,156.381,40.836,206.082,135.677c49.7,94.84-56.981,148.846-7.281,243.686
				c49.702,94.845,156.383,40.84,206.085,135.684c49.702,94.845-56.979,148.85-7.277,243.695"/>
		</g>
		<g>
			<path fill="none" stroke="#6496C8" stroke-miterlimit="10" d="M833.296-17.546c49.022,94.841-57.964,148.261-8.943,243.101
				c49.02,94.838,156.006,41.419,205.027,136.258c49.021,94.84-57.965,148.26-8.944,243.099
				c49.022,94.841,156.007,41.422,205.029,136.263c49.021,94.84-57.964,148.26-8.943,243.1
				c49.024,94.844,156.009,41.425,205.033,136.27c49.023,94.845-57.962,148.265-8.939,243.109"/>
		</g>
		<g>
			<path fill="none" stroke="#6496C8" stroke-miterlimit="10" d="M847.363-17.251c48.343,94.841-58.946,147.67-10.603,242.512
				c48.342,94.838,155.631,42.01,203.972,136.848c48.342,94.84-58.946,147.669-10.604,242.51
				c48.343,94.841,155.632,42.012,203.975,136.853c48.343,94.84-58.946,147.67-10.603,242.511
				c48.345,94.844,155.634,42.016,203.979,136.86c48.345,94.845-58.944,147.674-10.599,242.52"/>
		</g>
		<g>
			<path fill="none" stroke="#6496C8" stroke-miterlimit="10" d="M861.429-16.953c47.664,94.841-59.926,147.076-12.261,241.916
				c47.663,94.838,155.253,42.605,202.917,137.444c47.664,94.84-59.926,147.075-12.262,241.914
				c47.665,94.841,155.255,42.607,202.919,137.448c47.664,94.84-59.926,147.075-12.262,241.915
				c47.666,94.844,155.256,42.611,202.922,137.455c47.666,94.845-59.924,147.08-12.257,241.924"/>
		</g>
		<g>
			<path fill="none" stroke="#6496C8" stroke-miterlimit="10" d="M875.493-16.653c46.986,94.841-60.904,146.475-13.918,241.316
				c46.985,94.838,154.874,43.205,201.859,138.044c46.985,94.84-60.904,146.474-13.919,241.314
				c46.986,94.841,154.875,43.208,201.861,138.049c46.985,94.84-60.904,146.474-13.919,241.315
				c46.988,94.844,154.877,43.211,201.865,138.056c46.988,94.845-60.902,146.479-13.914,241.323"/>
		</g>
		<g>
			<path fill="none" stroke="#6496C8" stroke-miterlimit="10" d="M889.557-16.351c46.307,94.841-61.88,145.87-15.573,240.71
				c46.306,94.838,154.493,43.81,200.799,138.65c46.307,94.84-61.881,145.869-15.574,240.708
				c46.307,94.841,154.495,43.813,200.802,138.655c46.307,94.84-61.88,145.869-15.574,240.709
				c46.309,94.845,154.496,43.816,200.805,138.661s-61.878,145.874-15.569,240.718"/>
		</g>
		<g>
			<path fill="none" stroke="#6496C8" stroke-miterlimit="10" d="M903.62-16.045c45.628,94.841-62.855,145.259-17.226,240.1
				c45.627,94.838,154.11,44.421,199.738,139.26c45.628,94.84-62.855,145.258-17.227,240.098
				c45.629,94.841,154.112,44.423,199.74,139.265c45.628,94.84-62.855,145.258-17.227,240.099
				c45.63,94.844,154.113,44.426,199.744,139.272c45.63,94.845-62.853,145.263-17.223,240.108"/>
		</g>
		<g>
			<path fill="none" stroke="#6496C8" stroke-miterlimit="10" d="M917.683-15.737c44.95,94.841-63.827,144.644-18.877,239.485
				c44.949,94.838,153.726,45.036,198.675,139.875c44.949,94.84-63.828,144.643-18.878,239.483
				c44.95,94.841,153.727,45.039,198.677,139.88c44.95,94.84-63.827,144.643-18.878,239.484
				c44.952,94.845,153.729,45.042,198.68,139.887c44.952,94.844-63.825,144.648-18.874,239.492"/>
		</g>
		<g>
			<path fill="none" stroke="#6496C8" stroke-miterlimit="10" d="M931.744-15.428c44.271,94.841-64.797,144.024-20.526,238.864
				c44.27,94.838,153.339,45.656,197.609,140.495c44.271,94.84-64.798,144.023-20.527,238.862
				c44.271,94.841,153.34,45.659,197.611,140.5c44.271,94.84-64.798,144.023-20.527,238.863
				c44.273,94.845,153.342,45.662,197.615,140.507s-64.796,144.028-20.523,238.872"/>
		</g>
		<g>
			<path fill="none" stroke="#6496C8" stroke-miterlimit="10" d="M945.804-15.115c43.593,94.841-65.766,143.399-22.173,238.239
				c43.592,94.838,152.95,46.282,196.542,141.121c43.592,94.84-65.766,143.398-22.174,238.237
				c43.593,94.841,152.951,46.284,196.544,141.125c43.592,94.84-65.766,143.398-22.174,238.238
				c43.594,94.845,152.953,46.288,196.547,141.132s-65.764,143.402-22.17,238.247"/>
		</g>
		<g>
			<path fill="none" stroke="#6496C8" stroke-miterlimit="10" d="M959.862-14.8c42.914,94.841-66.732,142.768-23.818,237.609
				c42.913,94.838,152.559,46.912,195.472,141.751c42.914,94.84-66.732,142.767-23.819,237.607
				c42.914,94.841,152.56,46.914,195.474,141.755c42.914,94.84-66.732,142.768-23.818,237.608
				c42.916,94.844,152.562,46.918,195.477,141.762c42.916,94.845-66.73,142.772-23.814,237.617"/>
		</g>
		<g>
			<path fill="none" stroke="#6496C8" stroke-miterlimit="10" d="M973.92-14.482c42.235,94.841-67.696,142.133-25.46,236.974
				c42.234,94.838,152.165,47.547,194.4,142.386c42.235,94.84-67.696,142.132-25.461,236.971
				c42.236,94.841,152.167,47.55,194.402,142.391c42.235,94.84-67.696,142.132-25.461,236.972
				c42.237,94.844,152.168,47.553,194.405,142.398c42.237,94.844-67.694,142.137-25.457,236.981"/>
		</g>
		<g>
			<path fill="none" stroke="#6496C8" stroke-miterlimit="10" d="M987.977-14.162c41.557,94.841-68.657,141.493-27.1,236.333
				c41.556,94.838,151.77,48.187,193.325,143.026c41.556,94.84-68.657,141.492-27.101,236.331
				c41.557,94.841,151.771,48.19,193.328,143.031c41.556,94.84-68.657,141.492-27.101,236.333
				c41.558,94.844,151.772,48.194,193.331,143.038c41.558,94.845-68.655,141.497-27.097,236.341"/>
		</g>
		<g>
			<path fill="none" stroke="#6496C8" stroke-miterlimit="10" d="M1002.032-13.84c40.878,94.841-69.616,140.847-28.738,235.689
				c40.877,94.838,151.371,48.833,192.248,143.671c40.878,94.84-69.616,140.846-28.739,235.687
				c40.878,94.841,151.372,48.835,192.251,143.676c40.878,94.84-69.616,140.847-28.738,235.688
				c40.88,94.845,151.374,48.838,192.254,143.683c40.88,94.844-69.614,140.851-28.735,235.697"/>
		</g>
		<g>
			<path fill="none" stroke="#6496C8" stroke-miterlimit="10" d="M1016.086-13.514c40.2,94.841-70.572,140.198-30.373,235.039
				c40.199,94.838,150.97,49.482,191.169,144.322c40.199,94.84-70.573,140.197-30.374,235.036
				c40.2,94.841,150.972,49.485,191.171,144.327c40.199,94.84-70.573,140.197-30.373,235.037
				c40.201,94.844,150.973,49.488,191.174,144.333c40.201,94.844-70.571,140.202-30.37,235.046"/>
		</g>
		<g>
			<path fill="none" stroke="#6496C8" stroke-miterlimit="10" d="M1030.139-13.187c39.521,94.841-71.526,139.543-32.005,234.383
				c39.52,94.838,150.567,50.137,190.087,144.976c39.52,94.84-71.527,139.542-32.006,234.382
				c39.521,94.841,150.568,50.14,190.089,144.981c39.521,94.84-71.527,139.542-32.006,234.382
				c39.522,94.845,150.57,50.143,190.092,144.988c39.522,94.844-71.525,139.546-32.002,234.391"/>
		</g>
		<g>
			<path fill="none" stroke="#6496C8" stroke-miterlimit="10" d="M1044.19-12.858c38.842,94.841-72.477,138.883-33.635,233.724
				c38.841,94.838,150.161,50.797,189.002,145.636c38.842,94.84-72.478,138.882-33.636,233.722
				c38.842,94.841,150.162,50.799,189.004,145.641c38.842,94.84-72.478,138.883-33.636,233.723
				c38.844,94.844,150.164,50.803,189.007,145.648c38.844,94.845-72.476,138.886-33.632,233.732"/>
		</g>
		<g>
			<path fill="none" stroke="#6496C8" stroke-miterlimit="10" d="M1058.24-12.524c38.164,94.841-73.426,138.218-35.262,233.06
				c38.163,94.838,149.752,51.462,187.915,146.3c38.163,94.84-73.426,138.217-35.263,233.058
				c38.164,94.841,149.753,51.464,187.917,146.305c38.163,94.84-73.426,138.218-35.263,233.059
				c38.165,94.844,149.755,51.468,187.92,146.312s-73.424,138.222-35.259,233.067"/>
		</g>
		<g>
			<path fill="none" stroke="#6496C8" stroke-miterlimit="10" d="M1072.289-12.19c37.485,94.841-74.372,137.549-36.887,232.39
				c37.484,94.838,149.341,52.131,186.825,146.97c37.485,94.84-74.372,137.548-36.887,232.388
				c37.485,94.841,149.342,52.133,186.827,146.974c37.485,94.84-74.372,137.549-36.887,232.389
				c37.487,94.844,149.343,52.137,186.829,146.981c37.487,94.845-74.37,137.553-36.883,232.398"/>
		</g>
		<g>
			<path fill="none" stroke="#6496C8" stroke-miterlimit="10" d="M1086.336-11.853c36.806,94.841-75.314,136.875-38.508,231.716
				c36.806,94.838,148.926,52.805,185.732,147.644c36.806,94.84-75.315,136.874-38.509,231.714
				c36.807,94.841,148.927,52.807,185.734,147.649c36.806,94.84-75.314,136.875-38.508,231.715
				c36.808,94.845,148.928,52.811,185.736,147.656s-75.313,136.879-38.505,231.724"/>
		</g>
		<g>
			<path fill="none" stroke="#6496C8" stroke-miterlimit="10" d="M1100.382-11.514c36.128,94.841-76.254,136.195-40.126,231.037
				c36.127,94.838,148.509,53.485,184.635,148.323c36.127,94.84-76.254,136.194-40.127,231.035
				c36.128,94.841,148.51,53.486,184.637,148.328c36.128,94.84-76.254,136.195-40.126,231.036
				c36.129,94.844,148.511,53.49,184.64,148.335s-76.252,136.199-40.123,231.045"/>
		</g>
		<g>
			<path fill="none" stroke="#6496C8" stroke-miterlimit="10" d="M1114.426-11.172c35.449,94.841-77.19,135.512-41.741,230.353
				c35.448,94.838,148.088,54.168,183.536,149.007c35.449,94.84-77.191,135.511-41.742,230.351
				c35.449,94.841,148.089,54.171,183.538,149.012c35.449,94.84-77.191,135.511-41.742,230.352
				c35.451,94.844,148.09,54.173,183.541,149.019c35.451,94.844-77.189,135.516-41.738,230.361"/>
		</g>
		<g>
			<path fill="none" stroke="#6496C8" stroke-miterlimit="10" d="M1128.469-10.828c34.771,94.841-78.124,134.824-43.353,229.665
				c34.77,94.838,147.664,54.857,182.434,149.695c34.77,94.84-78.124,134.823-43.354,229.663
				c34.771,94.841,147.665,54.859,182.436,149.7c34.77,94.84-78.124,134.823-43.354,229.664
				c34.772,94.845,147.666,54.861,182.438,149.707c34.772,94.845-78.123,134.827-43.351,229.673"/>
		</g>
		<g>
			<path fill="none" stroke="#6496C8" stroke-miterlimit="10" d="M1142.51-10.481c34.092,94.841-79.054,134.13-44.962,228.972
				c34.091,94.838,147.237,55.549,181.328,150.388c34.091,94.84-79.055,134.129-44.963,228.97s147.238,55.551,181.33,150.393
				c34.092,94.84-79.054,134.13-44.963,228.971c34.093,94.845,147.239,55.555,181.333,150.4s-79.053,134.134-44.959,228.98"/>
		</g>
		<g>
			<path fill="none" stroke="#6496C8" stroke-miterlimit="10" d="M1156.549-10.132c33.413,94.841-79.981,133.434-46.568,228.274
				c33.412,94.838,146.807,56.246,180.219,151.086c33.413,94.84-79.981,133.433-46.568,228.272
				c33.413,94.841,146.808,56.249,180.221,151.091c33.413,94.84-79.981,133.433-46.568,228.273
				c33.415,94.844,146.809,56.252,180.223,151.098c33.415,94.845-79.98,133.438-46.565,228.282"/>
		</g>
		<g>
			<path fill="none" stroke="#6496C8" stroke-miterlimit="10" d="M1170.586-9.781c32.735,94.841-80.905,132.731-48.17,227.572
				c32.734,94.838,146.373,56.949,179.107,151.788c32.734,94.84-80.905,132.73-48.171,227.57
				c32.735,94.841,146.374,56.951,179.109,151.792c32.734,94.84-80.905,132.731-48.17,227.571
				c32.736,94.844,146.375,56.955,179.111,151.799c32.736,94.845-80.903,132.735-48.167,227.58"/>
		</g>
		<g>
			<path fill="none" stroke="#6496C8" stroke-miterlimit="10" d="M1184.622-9.427c32.056,94.841-81.824,132.024-49.768,226.866
				c32.055,94.838,145.936,57.656,177.991,152.494c32.056,94.84-81.825,132.023-49.769,226.864
				c32.056,94.841,145.937,57.658,177.993,152.499c32.056,94.84-81.825,132.024-49.769,226.865
				c32.057,94.844,145.938,57.662,177.995,152.506s-81.823,132.028-49.766,226.873"/>
		</g>
		<g>
			<path fill="none" stroke="#6496C8" stroke-miterlimit="10" d="M1198.656-9.073c31.377,94.841-82.741,131.314-51.364,226.154
				c31.377,94.838,145.495,58.366,176.872,153.206S1241.423,501.6,1272.8,596.439c31.378,94.841,145.496,58.369,176.873,153.211
				c31.377,94.84-82.741,131.313-51.364,226.153c31.379,94.844,145.497,58.372,176.876,153.218s-82.74,131.318-51.361,226.162"/>
		</g>
		<g>
			<path fill="none" stroke="#6496C8" stroke-miterlimit="10" d="M1212.688-8.715c30.699,94.841-83.654,130.598-52.955,225.438
				c30.698,94.838,145.051,59.082,175.749,153.921c30.698,94.84-83.654,130.597-52.956,225.436
				c30.699,94.841,145.051,59.085,175.75,153.926c30.699,94.84-83.654,130.597-52.955,225.437
				c30.7,94.844,145.052,59.088,175.753,153.933c30.7,94.845-83.652,130.602-52.952,225.446"/>
		</g>
		<g>
			<path fill="none" stroke="#6496C8" stroke-miterlimit="10" d="M1226.719-8.354c30.02,94.841-84.563,129.878-54.543,224.719
				c30.02,94.838,144.602,59.802,174.622,154.641c30.02,94.84-84.563,129.877-54.543,224.717
				c30.02,94.841,144.603,59.804,174.623,154.646c30.02,94.84-84.563,129.878-54.543,224.718
				c30.021,94.845,144.604,59.808,174.626,154.653c30.021,94.844-84.562,129.881-54.54,224.727"/>
		</g>
		<g>
			<path fill="none" stroke="#6496C8" stroke-miterlimit="10" d="M1240.747-7.992c29.341,94.841-85.468,129.153-56.127,223.995
				c29.341,94.838,144.151,60.527,173.491,155.365c29.341,94.84-85.468,129.152-56.127,223.993
				c29.342,94.841,144.151,60.529,173.493,155.37c29.341,94.84-85.468,129.153-56.127,223.994
				c29.343,94.845,144.152,60.533,173.495,155.377c29.343,94.845-85.467,129.157-56.124,224.002"/>
		</g>
		<g>
			<path fill="none" stroke="#6496C8" stroke-miterlimit="10" d="M1254.774-7.628c28.663,94.841-86.37,128.425-57.707,223.266
				c28.662,94.838,143.695,61.255,172.357,156.094c28.663,94.84-86.37,128.424-57.707,223.264
				c28.663,94.841,143.695,61.258,172.358,156.099c28.663,94.84-86.37,128.424-57.707,223.264
				c28.664,94.844,143.696,61.261,172.36,156.106s-86.368,128.429-57.704,223.274"/>
		</g>
		<g>
			<path fill="none" stroke="#6496C8" stroke-miterlimit="10" d="M1268.798-7.262c27.984,94.841-87.267,127.692-59.283,222.533
				c27.984,94.838,143.235,61.988,171.219,156.827c27.984,94.84-87.267,127.691-59.283,222.531
				c27.984,94.841,143.236,61.99,171.22,156.832c27.984,94.84-87.267,127.692-59.283,222.532
				c27.985,94.845,143.237,61.994,171.222,156.838c27.985,94.845-87.266,127.696-59.28,222.541"/>
		</g>
		<g>
			<path fill="none" stroke="#6496C8" stroke-miterlimit="10" d="M1282.821-6.894c27.306,94.841-88.16,126.956-60.855,221.796
				c27.305,94.838,142.771,62.724,170.076,157.564s-88.161,126.955-60.855,221.794c27.306,94.841,142.772,62.727,170.078,157.569
				c27.306,94.84-88.161,126.954-60.855,221.795c27.307,94.845,142.773,62.73,170.08,157.576
				c27.307,94.845-88.159,126.959-60.853,221.804"/>
		</g>
		<g>
			<path fill="none" stroke="#6496C8" stroke-miterlimit="10" d="M1296.842-6.523c26.627,94.841-89.05,126.214-62.423,221.055
				c26.626,94.838,142.303,63.465,168.93,158.305c26.627,94.84-89.05,126.213-62.423,221.053
				c26.627,94.841,142.304,63.468,168.931,158.31c26.627,94.84-89.05,126.213-62.423,221.054
				c26.628,94.845,142.305,63.471,168.933,158.317c26.628,94.845-89.049,126.218-62.42,221.063"/>
		</g>
		<g>
			<path fill="none" stroke="#6496C8" stroke-miterlimit="10" d="M1310.86-6.151c25.948,94.841-89.935,125.469-63.986,220.31
				c25.948,94.838,141.831,64.21,167.779,159.05s-89.935,125.468-63.987,220.308c25.948,94.841,141.832,64.213,167.78,159.055
				c25.948,94.84-89.935,125.468-63.987,220.309c25.95,94.845,141.833,64.216,167.782,159.062
				c25.949,94.844-89.934,125.473-63.984,220.318"/>
		</g>
		<g>
			<path fill="none" stroke="#6496C8" stroke-miterlimit="10" d="M1324.876-5.776c25.27,94.841-90.816,124.72-65.546,219.561
				c25.269,94.838,141.355,64.959,166.624,159.799c25.27,94.84-90.816,124.719-65.546,219.559
				c25.27,94.841,141.355,64.962,166.625,159.804c25.27,94.84-90.816,124.719-65.546,219.56
				c25.271,94.845,141.356,64.965,166.627,159.811s-90.815,124.724-65.544,219.569"/>
		</g>
		<g>
			<path fill="none" stroke="#6496C8" stroke-miterlimit="10" d="M1338.89-5.4c24.591,94.841-91.692,123.968-67.101,218.808
				c24.591,94.838,140.874,65.712,165.465,160.552s-91.692,123.967-67.102,218.806c24.591,94.841,140.875,65.715,165.466,160.557
				c24.591,94.84-91.692,123.967-67.101,218.807c24.592,94.844,140.875,65.718,165.468,160.564
				c24.593,94.845-91.691,123.972-67.099,218.816"/>
		</g>
		<g>
			<path fill="none" stroke="#6496C8" stroke-miterlimit="10" d="M1352.902-5.021c23.913,94.841-92.564,123.211-68.652,218.052
				c23.912,94.838,140.389,66.469,164.301,161.309s-92.564,123.21-68.652,218.05c23.913,94.841,140.389,66.472,164.302,161.313
				c23.912,94.84-92.564,123.21-68.652,218.05c23.914,94.844,140.39,66.475,164.304,161.32
				c23.914,94.844-92.563,123.215-68.65,218.059"/>
		</g>
		<g>
			<path fill="none" stroke="#6496C8" stroke-miterlimit="10" d="M1366.912-4.641c23.234,94.841-93.432,122.45-70.198,217.291
				c23.233,94.838,139.899,67.23,163.133,162.068c23.234,94.84-93.432,122.449-70.198,217.29s139.9,67.232,163.134,162.073
				c23.234,94.84-93.432,122.45-70.198,217.29c23.235,94.844,139.901,67.236,163.136,162.08
				c23.235,94.845-93.431,122.454-70.196,217.299"/>
		</g>
		<g>
			<path fill="none" stroke="#6496C8" stroke-miterlimit="10" d="M1380.919-4.259c22.555,94.841-94.295,121.686-71.74,216.528
				c22.555,94.838,139.405,67.993,161.96,162.833c22.555,94.84-94.295,121.685-71.74,216.526s139.406,67.996,161.961,162.838
				c22.555,94.84-94.295,121.685-71.74,216.526c22.556,94.844,139.406,68,161.963,162.845
				c22.556,94.844-94.294,121.69-71.738,216.535"/>
		</g>
		<g>
			<path fill="none" stroke="#6496C8" stroke-miterlimit="10" d="M1394.924-3.875c21.877,94.841-95.153,120.919-73.277,215.76
				c21.876,94.838,138.906,68.761,160.782,163.601s-95.154,120.918-73.277,215.758c21.877,94.841,138.907,68.764,160.784,163.606
				c21.877,94.84-95.153,120.918-73.277,215.758c21.878,94.844,138.908,68.767,160.785,163.612
				c21.878,94.844-95.152,120.923-73.275,215.767"/>
		</g>
		<g>
			<path fill="none" stroke="#6496C8" stroke-miterlimit="10" d="M1408.927-3.49c21.198,94.841-96.007,120.147-74.809,214.989
				c21.198,94.838,138.403,69.533,159.6,164.371c21.198,94.84-96.007,120.146-74.809,214.987s138.403,69.535,159.602,164.376
				c21.198,94.84-96.007,120.147-74.809,214.988c21.199,94.844,138.404,69.539,159.603,164.383
				c21.199,94.845-96.006,120.151-74.807,214.996"/>
		</g>
		<g>
			<path fill="none" stroke="#6496C8" stroke-miterlimit="10" d="M1422.927-3.103c20.519,94.841-96.856,119.373-76.337,214.214
				c20.519,94.838,137.895,70.307,158.414,165.146c20.519,94.84-96.856,119.372-76.337,214.212
				c20.52,94.841,137.895,70.309,158.415,165.151c20.519,94.84-96.856,119.373-76.337,214.213
				c20.52,94.845,137.896,70.313,158.416,165.157s-96.855,119.377-76.335,214.222"/>
		</g>
		<g>
			<path fill="none" stroke="#6496C8" stroke-miterlimit="10" d="M1436.925-2.714c19.841,94.841-97.7,118.595-77.859,213.437
				c19.84,94.838,137.381,71.085,157.222,165.924c19.841,94.84-97.7,118.594-77.86,213.434
				c19.841,94.841,137.382,71.088,157.223,165.929c19.841,94.84-97.7,118.594-77.86,213.435
				c19.842,94.845,137.383,71.09,157.224,165.936c19.842,94.845-97.699,118.599-77.858,213.444"/>
		</g>
		<g>
			<path fill="none" stroke="#6496C8" stroke-miterlimit="10" d="M1450.921-2.322c19.162,94.841-98.539,117.814-79.377,212.655
				c19.162,94.838,136.864,71.866,156.025,166.704c19.162,94.84-98.54,117.813-79.378,212.653
				c19.162,94.841,136.864,71.868,156.026,166.709c19.162,94.84-98.54,117.814-79.377,212.654
				c19.163,94.845,136.865,71.872,156.028,166.716c19.163,94.844-98.539,117.818-79.376,212.663"/>
		</g>
		<g>
			<path fill="none" stroke="#6496C8" stroke-miterlimit="10" d="M1464.914-1.93c18.484,94.841-99.374,117.03-80.89,211.871
				c18.483,94.838,136.34,72.65,154.824,167.489c18.483,94.84-99.374,117.029-80.891,211.869
				c18.484,94.841,136.341,72.652,154.825,167.494c18.484,94.84-99.374,117.03-80.89,211.87
				c18.484,94.844,136.342,72.656,154.826,167.501c18.484,94.845-99.373,117.033-80.889,211.879"/>
		</g>
		<g>
			<path fill="none" stroke="#6496C8" stroke-miterlimit="10" d="M1478.904-1.537c17.805,94.841-100.203,116.242-82.398,211.084
				c17.805,94.838,135.812,73.438,153.617,168.276c17.805,94.84-100.203,116.241-82.398,211.082s135.813,73.44,153.618,168.281
				c17.805,94.84-100.203,116.242-82.398,211.083c17.806,94.844,135.814,73.443,153.619,168.288
				c17.806,94.844-100.202,116.246-82.396,211.091"/>
		</g>
	</g>
</g>
</svg>
